<svg width="1440" height="1024" viewBox="0 0 1440 1024" fill="none" xmlns="http://www.w3.org/2000/svg">
<rect width="1440" height="1024" fill="#0A091D"/>
<mask id="mask0_29_3982" style="mask-type:alpha" maskUnits="userSpaceOnUse" x="0" y="0" width="1440" height="1024">
<rect width="1440" height="1024" fill="#0A091D"/>
</mask>
<g mask="url(#mask0_29_3982)">
<g style="mix-blend-mode:screen" filter="url(#filter0_f_29_3982)">
<path fill-rule="evenodd" clip-rule="evenodd" d="M2101.29 -173.154C2118.13 -145.491 2091.41 -97.4148 2033.65 -40.4397C2014.31 -10.0916 1980.44 25.7143 1935.24 64.0415C2060.94 6.2602 2166.42 -15.3401 2185.75 16.4185C2208.76 54.2202 2101.01 153.305 1945.07 237.73C1789.14 322.155 1644.07 359.951 1621.06 322.149C1611.78 306.895 1623.78 281.664 1651.66 251.443C1404.25 383.924 1175.91 442.623 1139.33 382.545C1122.5 354.882 1149.22 306.805 1206.97 249.83C1255.86 173.132 1397.52 61.5751 1580.4 -37.4397C1831.09 -173.164 2064.3 -233.925 2101.29 -173.154Z" fill="#0EB657" fill-opacity="0.7"/>
</g>
<g style="mix-blend-mode:screen" opacity="0.4" filter="url(#filter1_f_29_3982)">
<path fill-rule="evenodd" clip-rule="evenodd" d="M-13.9878 498.621C33.2332 507.272 75.1299 561.904 106.061 645.101C126.463 675.069 144.478 714.838 159.294 761.894L153.42 497.868L383.802 1009.28L202.463 1032.51C203.329 1054.33 203.671 1076.54 203.456 1099.03L431.894 1185.96L374.857 1345.57L196.509 1223.3C172.865 1449.76 92.4699 1608.66 1.66435 1592.03C-45.5567 1583.38 -87.4533 1528.74 -118.384 1445.55C-180.734 1353.96 -220.796 1170.85 -215.347 967.903C-215.11 959.071 -214.79 950.309 -214.388 941.62L-219.618 938.034L-214.315 940.053C-201.795 675.836 -114.235 480.254 -13.9878 498.621ZM409.267 1612.45C395.385 1556.66 388.062 1488.49 390 1416.28C394.646 1243.24 450.724 1112.55 515.253 1124.37C579.782 1136.19 628.327 1286.05 623.681 1459.09C619.036 1632.13 562.958 1762.83 498.429 1751C469.563 1745.72 443.896 1712.81 424.758 1662.56L290.335 1806.33L409.267 1612.45Z" fill="#CC3663"/>
</g>
<g style="mix-blend-mode:overlay" opacity="0.6" clip-path="url(#clip0_29_3982)">
<path d="M54.0911 632.136C52.8617 631.848 52.1669 631.274 52.737 631.017C53.3785 630.73 55.1602 631.047 55.8728 631.682C56.3004 632.166 55.5699 632.363 54.6256 632.242C54.4474 632.212 54.2692 632.181 54.0911 632.136Z" fill="white"/>
<path d="M68.5931 647.453C67.2034 647.121 66.3839 646.41 67.061 646.092C67.7381 645.79 69.8939 646.078 70.7313 646.879C71.2301 647.499 70.2323 647.726 69.0029 647.529C68.8782 647.514 68.7179 647.484 68.5931 647.453Z" fill="white"/>
<path d="M82.5428 663.15C80.8324 662.742 79.8703 661.88 80.7256 661.487C81.6699 661.064 84.1821 661.487 85.1085 662.425C85.7143 663.211 84.5027 663.483 83.0417 663.256C82.8991 663.226 82.7031 663.196 82.5428 663.15Z" fill="white"/>
<path d="M96.0112 679.148C94.0514 678.695 92.9468 677.621 93.9446 677.152C95.0315 676.623 98.0248 677.138 99.0581 678.257C99.7529 679.239 98.1136 679.572 96.2785 679.209C96.2072 679.209 96.1003 679.179 96.0112 679.148Z" fill="white"/>
<path d="M108.981 695.359C106.754 694.829 105.614 693.68 106.754 693.121C107.983 692.501 111.208 693.06 112.349 694.346C113.115 695.465 111.101 695.873 108.981 695.359Z" fill="white"/>
<path d="M121.452 711.825C119.029 711.235 117.746 709.905 118.993 709.255C120.365 708.559 124.053 709.164 125.283 710.616C126.209 711.992 123.625 712.34 121.452 711.825Z" fill="white"/>
<path d="M133.441 728.399C130.787 727.778 129.45 726.312 130.876 725.601C132.283 724.891 136.239 725.36 137.628 727.053C138.573 728.596 135.74 728.928 133.441 728.399Z" fill="white"/>
<path d="M144.986 745.108C142.153 744.412 140.763 742.84 142.295 742.053C143.935 741.192 148.157 741.888 149.511 743.611C150.42 745.169 147.729 745.773 144.986 745.108Z" fill="white"/>
<path d="M156.031 761.937C152.966 761.196 151.47 759.427 153.145 758.55C154.837 757.673 159.434 758.188 160.966 760.229C161.928 761.953 159.006 762.648 156.031 761.937Z" fill="white"/>
<path d="M166.631 778.782C163.441 778.011 161.874 776.12 163.673 775.168C165.615 774.14 170.462 774.927 171.922 776.938C172.884 778.767 169.766 779.523 166.631 778.782Z" fill="white"/>
<path d="M176.767 795.688C173.151 794.811 171.619 792.603 173.953 791.636C176.233 790.683 181.026 791.576 182.487 793.678C183.538 795.795 179.779 796.414 176.767 795.688Z" fill="white"/>
<path d="M186.423 812.578C182.77 811.686 181.078 809.478 183.198 808.36C185.532 807.12 190.948 807.997 192.534 810.371C193.549 812.534 189.95 813.456 186.423 812.578Z" fill="white"/>
<path d="M195.668 829.423C191.66 828.425 190.056 825.945 192.729 824.841C195.081 823.858 200.515 824.585 202.118 827.11C203.116 829.378 199.339 830.33 195.668 829.423Z" fill="white"/>
<path d="M204.433 846.268C200.175 845.209 198.554 842.563 201.423 841.369C203.935 840.326 209.601 841.037 211.293 843.804C212.326 846.269 208.317 847.236 204.433 846.268Z" fill="white"/>
<path d="M212.752 863.007C208.494 861.918 206.837 859.106 209.742 857.896C212.379 856.808 218.276 857.625 219.933 860.453C220.984 863.144 216.351 863.915 212.752 863.007Z" fill="white"/>
<path d="M220.609 879.731C216.101 878.536 214.444 875.603 217.544 874.318C220.591 873.063 226.596 874.258 228.163 877.056C229.143 879.732 224.742 880.835 220.609 879.731Z" fill="white"/>
<path d="M228.019 896.348C223.333 895.063 221.676 891.978 224.955 890.648C227.895 889.468 234.309 890.452 235.983 893.597C236.927 896.409 232.295 897.528 228.019 896.348Z" fill="white"/>
<path d="M234.966 912.845C230.191 911.484 228.552 908.293 231.956 906.948C235.305 905.618 241.595 906.949 243.145 910.064C244.089 913.027 239.367 914.085 234.966 912.845Z" fill="white"/>
<path d="M241.433 929.267C236.515 927.8 234.912 924.443 238.458 923.082C241.629 921.858 248.328 922.947 249.985 926.455C250.947 929.812 245.459 930.462 241.433 929.267Z" fill="white"/>
<path d="M247.436 945.522C242.483 943.949 240.915 940.502 244.55 939.156C247.811 937.947 254.599 939.142 256.202 942.786C257.021 945.977 251.979 946.974 247.436 945.522Z" fill="white"/>
<path d="M252.922 961.716C247.88 960.007 246.348 956.408 250.09 955.078C253.475 953.884 260.442 955.23 261.973 959.025C262.775 962.337 257.554 963.289 252.922 961.716Z" fill="white"/>
<path d="M257.91 977.774C252.814 975.914 251.336 972.164 255.202 970.879C258.694 969.715 265.768 971.243 267.246 975.205C267.994 978.894 262.097 979.317 257.91 977.774Z" fill="white"/>
<path d="M262.38 993.667C257.195 991.61 255.824 987.845 259.833 986.59C263.396 985.472 270.505 987.211 271.895 991.294C272.5 994.787 267.084 995.527 262.38 993.667Z" fill="white"/>
<path d="M266.317 1009.45C261.132 1007.2 259.832 1003.28 263.912 1002.12C267.565 1001.08 274.727 1003.06 276.027 1007.28C276.526 1010.87 271.02 1011.49 266.317 1009.45Z" fill="white"/>
<path d="M269.701 1025.07C264.57 1022.61 263.394 1018.62 267.51 1017.56C271.626 1016.5 278.45 1019.15 279.518 1023.2C279.91 1026.92 274.458 1027.34 269.701 1025.07Z" fill="white"/>
<path d="M46.481 661.498C44.7527 661.09 43.7728 660.213 44.6459 659.805C45.5903 659.366 48.2094 659.805 49.1358 660.742C49.795 661.589 48.3161 661.801 46.962 661.589C46.8017 661.574 46.6235 661.528 46.481 661.498Z" fill="white"/>
<path d="M60.1453 677.664C58.0964 677.18 56.9918 676.121 58.0252 675.637C59.0765 675.169 62.1054 675.547 63.2634 676.757C64.0473 677.815 62.0695 678.042 60.4304 677.724C60.3413 677.709 60.2344 677.679 60.1453 677.664Z" fill="white"/>
<path d="M73.3465 694.04C71.1015 693.511 69.9257 692.346 71.0839 691.772C72.3133 691.167 75.6807 691.742 76.8387 693.027C77.6226 694.131 75.4845 694.554 73.3465 694.04Z" fill="white"/>
<path d="M86.0131 710.659C83.5366 710.069 82.236 708.708 83.5189 708.058C84.9444 707.347 88.7216 707.983 89.9865 709.45C90.9128 710.856 88.258 711.188 86.0131 710.659Z" fill="white"/>
<path d="M98.288 727.413C95.6155 726.777 94.2437 725.28 95.6691 724.57C97.0946 723.874 101.21 724.374 102.618 726.067C103.58 727.61 100.675 727.972 98.288 727.413Z" fill="white"/>
<path d="M110.081 744.273C107.177 743.562 105.752 741.974 107.32 741.188C109.012 740.341 113.378 741.067 114.732 742.791C115.676 744.379 112.914 744.968 110.081 744.273Z" fill="white"/>
<path d="M121.412 761.254C118.294 760.498 116.762 758.714 118.472 757.837C120.343 756.885 125.083 757.671 126.561 759.577C127.523 761.331 124.476 762.011 121.412 761.254Z" fill="white"/>
<path d="M132.297 778.22C129.001 777.419 127.415 775.513 129.25 774.576C131.246 773.548 136.253 774.38 137.767 776.421C138.765 778.266 135.522 779.007 132.297 778.22Z" fill="white"/>
<path d="M142.754 795.232C139.262 794.385 137.587 792.313 139.547 791.285C141.703 790.151 147.048 791.044 148.634 793.266C149.738 795.399 145.854 795.973 142.754 795.232Z" fill="white"/>
<path d="M152.73 812.198C148.971 811.275 147.225 809.052 149.399 807.964C151.769 806.769 157.488 807.692 159.109 810.051C160.16 812.213 156.401 813.09 152.73 812.198Z" fill="white"/>
<path d="M162.332 829.073C158.43 828.12 156.667 825.791 158.947 824.627C161.424 823.357 167.357 824.325 168.996 826.82C170.047 829.089 166.127 830.011 162.332 829.073Z" fill="white"/>
<path d="M171.471 845.918C167.391 844.904 165.556 842.425 167.98 841.185C170.617 839.824 176.906 840.868 178.599 843.529C179.667 845.919 175.48 846.916 171.471 845.918Z" fill="white"/>
<path d="M180.2 862.596C175.96 861.537 174.125 858.966 176.673 857.666C179.453 856.26 185.902 857.334 187.612 860.101C188.77 862.869 183.906 863.518 180.2 862.596Z" fill="white"/>
<path d="M188.502 879.214C184.048 878.065 182.195 875.388 184.885 874.012C187.825 872.516 194.596 873.681 196.342 876.614C197.393 879.26 192.813 880.318 188.502 879.214Z" fill="white"/>
<path d="M196.358 895.666C191.672 894.425 189.783 891.628 192.688 890.207C195.574 888.786 202.683 889.648 204.572 892.975C205.605 895.757 200.83 896.845 196.358 895.666Z" fill="white"/>
<path d="M203.804 911.92C199.047 910.635 197.176 907.732 200.17 906.295C203.395 904.738 210.611 906.054 212.321 909.199C213.39 912.284 207.92 913.055 203.804 911.92Z" fill="white"/>
<path d="M210.751 928.055C205.923 926.709 203.999 923.624 207.082 922.173C210.218 920.691 217.754 921.72 219.625 925.319C220.729 928.6 214.992 929.234 210.751 928.055Z" fill="white"/>
<path d="M217.325 943.962C212.372 942.51 210.519 939.395 213.726 937.929C217.218 936.326 224.808 937.869 226.483 941.286C227.445 944.537 221.636 945.217 217.325 943.962Z" fill="white"/>
<path d="M223.399 959.718C218.304 958.145 216.451 954.909 219.818 953.443C223.542 951.81 231.186 953.474 232.86 957.073C233.751 960.294 228.317 961.231 223.399 959.718Z" fill="white"/>
<path d="M229.046 975.262C223.861 973.553 222.044 970.226 225.519 968.775C229.029 967.324 237.064 968.746 238.792 972.722C239.683 976.291 233.482 976.729 229.046 975.262Z" fill="white"/>
<path d="M234.212 990.565C229.009 988.75 227.263 985.348 230.791 983.942C234.747 982.385 242.604 984.396 244.154 988.222C244.902 991.564 239.218 992.319 234.212 990.565Z" fill="white"/>
<path d="M238.861 1005.67C233.64 1003.69 231.93 1000.18 235.547 998.836C239.235 997.475 247.449 999.306 249.017 1003.51C249.711 1006.96 243.903 1007.59 238.861 1005.67Z" fill="white"/>
<path d="M243.064 1020.53C237.754 1018.34 236.169 1014.82 239.911 1013.55C244.062 1012.14 252.009 1014.62 253.38 1018.64C253.932 1022.14 248.07 1022.61 243.064 1020.53Z" fill="white"/>
<path d="M49.9155 708.841C48.3833 708.478 47.6172 707.692 48.419 707.298C49.2743 706.89 51.537 707.269 52.3031 708.13C52.8732 708.992 51.2518 709.159 49.9155 708.841Z" fill="white"/>
<path d="M62.4042 725.747C60.6047 725.323 59.7139 724.355 60.6583 723.902C61.6026 723.448 64.3643 723.796 65.2907 724.9C65.9142 725.898 63.9899 726.125 62.4042 725.747Z" fill="white"/>
<path d="M74.4826 742.758C72.5227 742.274 71.5251 741.17 72.5763 740.641C73.6276 740.112 76.6743 740.49 77.6898 741.76C78.3133 742.818 76.389 743.211 74.4826 742.758Z" fill="white"/>
<path d="M86.0626 759.845C83.7821 759.285 82.6775 758.045 83.9248 757.426C85.2789 756.76 88.7176 757.32 89.7687 758.681C90.5348 759.997 88.0759 760.329 86.0626 759.845Z" fill="white"/>
<path d="M97.2324 776.917C94.8093 776.327 93.6335 774.935 94.9698 774.255C96.4487 773.514 100.155 774.135 101.277 775.616C102.079 777.083 99.406 777.446 97.2324 776.917Z" fill="white"/>
<path d="M107.975 794.019C105.249 793.354 103.984 791.827 105.534 791.056C107.192 790.224 111.325 790.905 112.554 792.568C113.303 794.05 110.559 794.655 107.975 794.019Z" fill="white"/>
<path d="M118.29 811.076C115.35 810.35 113.978 808.641 115.671 807.825C117.524 806.918 121.996 807.659 123.297 809.458C124.17 811.243 120.891 811.711 118.29 811.076Z" fill="white"/>
<path d="M128.194 827.997C125.005 827.225 123.616 825.441 125.487 824.534C127.464 823.566 132.239 824.338 133.575 826.273C134.413 828.027 131.259 828.738 128.194 827.997Z" fill="white"/>
<path d="M137.672 844.841C134.34 844.04 132.862 842.074 134.822 841.107C136.978 840.033 142.091 840.88 143.516 842.997C144.443 845.023 140.647 845.568 137.672 844.841Z" fill="white"/>
<path d="M146.775 861.489C143.283 860.627 141.733 858.571 143.853 857.558C146.152 856.439 151.533 857.332 152.958 859.539C153.902 861.687 149.875 862.261 146.775 861.489Z" fill="white"/>
<path d="M155.469 878.047C151.709 877.109 150.142 874.931 152.422 873.843C154.863 872.649 160.583 873.602 162.061 875.976C163.023 878.274 158.747 878.879 155.469 878.047Z" fill="white"/>
<path d="M163.752 894.348C159.886 893.364 158.265 891.081 160.653 889.978C163.022 888.874 169.098 889.6 170.684 892.231C171.645 894.605 167.173 895.21 163.752 894.348Z" fill="white"/>
<path d="M171.662 910.436C167.689 909.407 166.05 907.033 168.526 905.9C171.252 904.66 177.364 905.734 178.842 908.274C179.804 910.739 175.19 911.344 171.662 910.436Z" fill="white"/>
<path d="M179.126 926.329C174.939 925.209 173.3 922.76 175.937 921.565C178.788 920.265 185.184 921.43 186.698 924.122C187.643 926.707 182.796 927.312 179.126 926.329Z" fill="white"/>
<path d="M186.18 941.994C181.797 940.784 180.123 938.213 182.938 937.004C185.967 935.673 192.648 936.959 194.18 939.772C195.107 942.463 189.993 943.037 186.18 941.994Z" fill="white"/>
<path d="M192.861 957.357C188.406 956.086 186.75 953.455 189.636 952.246C192.772 950.915 199.578 952.292 201.074 955.18C202.001 958.023 196.727 958.461 192.861 957.357Z" fill="white"/>
<path d="M199.077 972.492C194.445 971.116 192.77 968.379 195.835 967.17C198.918 965.96 206.08 967.11 207.683 970.376C208.556 973.295 203.051 973.672 199.077 972.492Z" fill="white"/>
<path d="M204.885 987.311C200.234 985.829 198.595 983.032 201.696 981.868C204.85 980.689 212.083 981.959 213.686 985.316C214.452 988.098 209.41 988.748 204.885 987.311Z" fill="white"/>
<path d="M210.229 1001.87C205.472 1000.27 203.833 997.366 207.058 996.247C210.675 994.978 217.891 996.778 219.351 1000.01C220.082 1002.87 214.843 1003.43 210.229 1001.87Z" fill="white"/>
<path d="M215.109 1016.12C210.281 1014.38 208.678 1011.4 212.01 1010.32C215.751 1009.12 223.11 1011.13 224.499 1014.47C225.158 1017.36 219.795 1017.81 215.109 1016.12Z" fill="white"/>
<path d="M219.563 1030.01C214.627 1028.11 213.131 1025.13 216.588 1024.12C220.401 1023 227.812 1025.22 229.131 1028.62C229.683 1031.54 224.248 1031.83 219.563 1030.01Z" fill="white"/>
<path d="M37.9396 741.077C36.8706 740.835 36.3362 740.26 36.942 739.988C37.53 739.716 39.1335 739.913 39.668 740.578C39.9886 741.122 38.973 741.319 37.9396 741.077Z" fill="white"/>
<path d="M49.7867 758.239C48.5217 757.936 47.8803 757.226 48.5931 756.893C49.377 756.53 51.2835 756.848 51.8714 757.589C52.2989 758.345 50.9092 758.511 49.7867 758.239Z" fill="white"/>
<path d="M61.2063 775.448C59.6562 775.069 58.9079 774.223 59.781 773.799C60.7076 773.331 63.0772 773.724 63.8077 774.662C64.2708 775.478 62.7029 775.795 61.2063 775.448Z" fill="white"/>
<path d="M72.2338 792.58C70.4699 792.156 69.6326 791.173 70.6482 790.689C71.646 790.206 74.3364 790.523 75.1915 791.673C75.6903 792.625 73.9442 792.988 72.2338 792.58Z" fill="white"/>
<path d="M82.8334 809.712C80.8022 809.228 79.858 808.094 81.0518 807.534C82.3347 806.945 85.417 807.444 86.3078 808.654C86.8601 809.758 84.8289 810.181 82.8334 809.712Z" fill="white"/>
<path d="M93.0767 826.678C90.9031 826.163 89.8698 824.893 91.1527 824.288C92.4178 823.684 95.8386 824.092 96.8541 825.529C97.5132 826.844 95.0188 827.147 93.0767 826.678Z" fill="white"/>
<path d="M102.875 843.553C100.363 842.948 99.2939 841.572 100.773 840.877C102.234 840.181 106.011 840.62 107.133 842.253C107.81 843.69 105.049 844.068 102.875 843.553Z" fill="white"/>
<path d="M112.299 860.247C109.609 859.597 108.415 858.054 110.019 857.298C111.783 856.467 115.934 857.148 117.038 858.811C117.769 860.399 114.704 860.822 112.299 860.247Z" fill="white"/>
<path d="M121.384 876.714C118.427 876.003 117.197 874.369 118.997 873.553C120.903 872.676 125.34 873.418 126.498 875.187C127.246 876.895 123.932 877.334 121.384 876.714Z" fill="white"/>
<path d="M130.042 892.984C126.924 892.228 125.624 890.444 127.53 889.597C129.615 888.66 134.39 889.461 135.601 891.367C136.367 893.181 132.786 893.65 130.042 892.984Z" fill="white"/>
<path d="M138.344 908.936C135.065 908.119 133.711 906.26 135.743 905.383C137.81 904.506 142.852 905.096 144.188 907.258C144.972 909.179 141.212 909.647 138.344 908.936Z" fill="white"/>
<path d="M146.253 924.662C142.726 923.77 141.336 921.819 143.545 920.882C145.915 919.869 151.278 920.807 152.561 922.924C153.309 924.829 149.639 925.524 146.253 924.662Z" fill="white"/>
<path d="M153.789 940.056C150.101 939.118 148.676 937.092 151.045 936.125C153.379 935.172 158.992 935.914 160.399 938.303C161.147 940.329 157.334 940.964 153.789 940.056Z" fill="white"/>
<path d="M160.95 955.177C157.066 954.148 155.623 952.031 158.118 951.049C160.79 949.99 166.634 951.095 167.97 953.408C168.79 955.692 164.282 956.054 160.95 955.177Z" fill="white"/>
<path d="M167.701 969.965C163.924 968.922 162.339 966.865 164.495 965.807C167.132 964.507 173.706 965.687 175.113 968.227C175.862 970.42 171.585 971.024 167.701 969.965Z" fill="white"/>
<path d="M174.061 984.36C170.195 983.256 168.592 981.139 170.837 980.096C173.599 978.811 180.369 980.112 181.776 982.728C182.507 984.951 178.07 985.495 174.061 984.36Z" fill="white"/>
<path d="M180.047 998.453C176.056 997.243 174.417 995.05 176.769 994.007C179.655 992.722 186.675 994.174 188.082 996.881C188.777 999.195 184.18 999.693 180.047 998.453Z" fill="white"/>
<path d="M185.604 1012.12C181.524 1010.82 179.903 1008.58 182.344 1007.59C185.426 1006.33 192.482 1007.9 193.889 1010.72C194.548 1013.06 189.809 1013.45 185.604 1012.12Z" fill="white"/>
<path d="M190.735 1025.43C186.583 1024.02 184.98 1021.71 187.492 1020.76C190.682 1019.53 197.933 1021.3 199.305 1024.22C199.928 1026.59 195.028 1026.88 190.735 1025.43Z" fill="white"/>
<path d="M25.1441 773.508L25.1799 773.524L25.1262 773.569C25.1441 773.539 25.1441 773.524 25.1441 773.508Z" fill="white"/>
<path d="M35.5659 791.034C34.7463 790.838 34.3544 790.384 34.8176 790.157C35.2809 789.93 36.5281 790.082 36.92 790.626C37.1694 791.065 36.3677 791.216 35.5659 791.034Z" fill="white"/>
<path d="M46.4331 808.212C45.2928 807.94 44.7762 807.335 45.4533 807.048C46.166 806.746 47.8586 807.018 48.3218 807.653C48.6603 808.288 47.4131 808.439 46.4331 808.212Z" fill="white"/>
<path d="M56.9438 825.223C55.6253 824.905 55.0374 824.195 55.8036 823.832C56.641 823.454 58.6187 823.787 59.1888 824.558C59.5273 825.269 58.2266 825.526 56.9438 825.223Z" fill="white"/>
<path d="M67.0449 842.129C65.4057 841.751 64.7109 840.874 65.6731 840.45C66.6352 840.027 69.094 840.315 69.8244 841.343C70.2698 842.235 68.4524 842.462 67.0449 842.129Z" fill="white"/>
<path d="M76.8071 858.792C75.0254 858.369 74.2415 857.386 75.3106 856.902C76.4688 856.373 79.1769 856.827 79.9252 857.885C80.4062 858.944 78.375 859.17 76.8071 858.792Z" fill="white"/>
<path d="M86.1953 875.29C84.1464 874.79 83.2556 873.656 84.485 873.112C85.8214 872.523 88.975 873.037 89.7945 874.247C90.3467 875.441 88.0126 875.728 86.1953 875.29Z" fill="white"/>
<path d="M95.2098 891.5C92.858 890.925 91.896 889.685 93.3214 889.065C94.8894 888.4 98.3637 888.975 99.2901 890.351C99.8245 891.591 97.4369 892.044 95.2098 891.5Z" fill="white"/>
<path d="M103.849 907.376C101.408 906.786 100.375 905.425 101.89 904.79C103.547 904.08 107.36 904.7 108.322 906.167C108.945 907.588 106.059 907.92 103.849 907.376Z" fill="white"/>
<path d="M112.187 922.936C109.71 922.331 108.552 921 109.906 920.29C111.581 919.398 115.929 920.064 116.98 921.682C117.603 923.163 114.521 923.511 112.187 922.936Z" fill="white"/>
<path d="M120.132 938.193C117.459 937.543 116.23 936.091 117.691 935.32C119.526 934.368 124.284 935.109 125.406 936.878C126.065 938.481 122.68 938.813 120.132 938.193Z" fill="white"/>
<path d="M127.757 953.042C124.87 952.316 123.605 950.834 125.227 950.033C127.187 949.066 132.193 949.867 133.334 951.712C133.993 953.375 130.429 953.708 127.757 953.042Z" fill="white"/>
<path d="M135.007 967.543C131.978 966.771 130.642 965.168 132.353 964.367C134.473 963.369 139.854 964.262 141.047 966.198C141.706 967.967 137.876 968.284 135.007 967.543Z" fill="white"/>
<path d="M141.919 981.636C138.712 980.789 137.358 979.156 139.193 978.34C141.438 977.342 147.015 978.325 148.227 980.321C148.886 982.136 144.877 982.408 141.919 981.636Z" fill="white"/>
<path d="M148.457 995.305C145.089 994.367 143.682 992.659 145.642 991.842C148.047 990.845 153.963 991.934 155.192 994.036C155.797 995.82 151.913 996.258 148.457 995.305Z" fill="white"/>
<path d="M154.603 1008.55C151.057 1007.54 149.614 1005.75 151.699 1004.95C154.3 1003.94 160.429 1005.15 161.694 1007.37C162.3 1009.2 158.22 1009.56 154.603 1008.55Z" fill="white"/>
<path d="M160.392 1021.3C156.775 1020.21 155.332 1018.39 157.488 1017.62C160.197 1016.66 166.433 1018 167.697 1020.27C168.303 1022.16 164.116 1022.42 160.392 1021.3Z" fill="white"/>
<path d="M19.5989 823.405L19.884 823.224L20.4541 823.421L20.1156 823.587L19.5989 823.405Z" fill="white"/>
<path d="M29.6819 840.175L30.2521 839.827L31.3211 840.221L30.6975 840.538L29.6819 840.175Z" fill="white"/>
<path d="M40.2999 857.217C39.4803 857.035 39.0706 856.581 39.4982 856.34C40.0149 856.052 41.5115 856.264 41.8857 856.793C42.1351 857.338 40.9947 857.383 40.2999 857.217Z" fill="white"/>
<path d="M50.0087 873.669C48.9397 873.397 48.4765 872.822 49.1002 872.535C49.7951 872.217 51.4698 872.505 51.9152 873.14C52.2181 873.76 50.953 873.911 50.0087 873.669Z" fill="white"/>
<path d="M59.3258 889.848C58.0251 889.545 57.4016 888.88 58.1143 888.517C58.8805 888.109 61.1967 888.351 61.7846 889.213C62.1053 889.909 60.6442 890.166 59.3258 889.848Z" fill="white"/>
<path d="M68.3578 905.68C66.8968 905.332 66.202 904.561 66.986 904.168C67.9482 903.669 70.5138 904.032 71.1374 904.955C71.5471 905.817 69.7475 906.013 68.3578 905.68Z" fill="white"/>
<path d="M76.9977 921.195C75.2695 920.786 74.4678 919.894 75.4122 919.425C76.5703 918.851 79.5814 919.29 80.3118 920.363C80.775 921.346 78.6369 921.573 76.9977 921.195Z" fill="white"/>
<path d="M85.3531 936.3C83.3932 935.831 82.5024 934.848 83.5715 934.319C84.8722 933.669 88.3109 934.184 89.1304 935.408C89.6114 936.527 87.1882 936.754 85.3531 936.3Z" fill="white"/>
<path d="M93.3871 950.982C91.2669 950.468 90.3405 949.425 91.4987 948.865C92.9241 948.17 96.6122 948.745 97.4852 950.045C97.9839 951.225 95.3648 951.466 93.3871 950.982Z" fill="white"/>
<path d="M101.065 965.272C98.7311 964.697 97.68 963.548 98.9985 962.959C100.62 962.248 104.736 962.899 105.68 964.29C106.196 965.575 103.257 965.802 101.065 965.272Z" fill="white"/>
<path d="M108.441 979.077C105.875 978.442 104.806 977.263 106.267 976.643C108.049 975.902 112.378 976.598 113.358 978.095C113.875 979.35 111.024 979.713 108.441 979.077Z" fill="white"/>
<path d="M115.477 992.415C112.894 991.765 111.7 990.57 112.965 989.905C114.693 989.013 119.753 989.784 120.858 991.433C121.375 992.793 118.274 993.126 115.477 992.415Z" fill="white"/>
<path d="M122.211 1005.25C119.539 1004.56 118.309 1003.33 119.61 1002.67C121.427 1001.76 126.737 1002.62 127.841 1004.35C128.412 1005.8 124.83 1005.93 122.211 1005.25Z" fill="white"/>
<path d="M128.535 1017.58C125.702 1016.82 124.384 1015.53 125.792 1014.88C127.769 1013.96 133.453 1014.96 134.629 1016.77C135.234 1018.32 131.35 1018.33 128.535 1017.58Z" fill="white"/>
<path d="M2.70533 855.474L2.88351 855.399L3.16858 855.489L2.9904 855.58L2.70533 855.474Z" fill="white"/>
<path d="M12.7532 871.805L12.9135 871.715L13.1986 871.82L13.0382 871.911L12.7532 871.805Z" fill="white"/>
<path d="M22.0877 887.834L22.5509 887.592L23.3349 887.879L22.8538 888.121L22.0877 887.834Z" fill="white"/>
<path d="M31.138 903.499L31.8685 903.152L32.991 903.56L32.3317 903.923L31.138 903.499Z" fill="white"/>
<path d="M40.8645 919.271C40.0627 919.075 39.6886 918.681 40.1162 918.47C40.6508 918.213 42.0583 918.424 42.4146 918.908C42.6106 919.332 41.7197 919.468 40.8645 919.271Z" fill="white"/>
<path d="M49.5224 934.302C48.4356 934.06 47.9367 933.53 48.5247 933.258C49.2018 932.941 51.0904 933.138 51.5714 933.848C51.8386 934.393 50.6449 934.559 49.5224 934.302Z" fill="white"/>
<path d="M57.931 948.863C56.7017 948.591 56.1316 947.971 56.7908 947.653C57.6461 947.26 59.8554 947.593 60.372 948.334C60.6927 949.014 59.107 949.12 57.931 948.863Z" fill="white"/>
<path d="M66.0011 962.971C64.4867 962.624 63.8275 961.928 64.6471 961.565C65.6984 961.112 68.2997 961.505 68.9232 962.382C69.2439 963.093 67.5512 963.319 66.0011 962.971Z" fill="white"/>
<path d="M73.7864 976.596C72.1294 976.202 71.3455 975.461 72.1295 975.038C73.2164 974.463 76.4947 974.917 77.2251 975.961C77.5814 976.792 75.6037 977.019 73.7864 976.596Z" fill="white"/>
<path d="M81.2859 989.644C79.4508 989.206 78.5778 988.419 79.4687 987.981C80.6625 987.376 84.2616 987.906 85.0276 988.994C85.4373 989.902 83.2814 990.113 81.2859 989.644Z" fill="white"/>
<path d="M88.4652 1002.18C86.434 1001.7 85.472 1000.83 86.4698 1000.35C87.824 999.715 91.8506 1000.32 92.7236 1001.53C93.1689 1002.57 90.4607 1002.66 88.4652 1002.18Z" fill="white"/>
<path d="M95.3954 1014.07C93.1861 1013.52 92.1884 1012.66 93.2753 1012.19C94.7364 1011.57 99.0303 1012.25 99.9389 1013.51C100.384 1014.5 97.7829 1014.64 95.3954 1014.07Z" fill="white"/>
<path d="M102.183 1025.16C99.9555 1024.6 98.8331 1023.74 99.7062 1023.27C101.06 1022.56 106.12 1023.33 107.136 1024.7C107.67 1025.8 104.499 1025.74 102.183 1025.16Z" fill="white"/>
<path d="M12.5164 932.075L12.7124 931.954L13.14 932.106L12.8727 932.196L12.5164 932.075Z" fill="white"/>
<path d="M20.9783 946.41L21.4594 946.213L22.2077 946.471L21.7444 946.667L20.9783 946.41Z" fill="white"/>
<path d="M29.8499 960.625C29.1907 960.473 28.9056 960.186 29.262 960.02C29.7253 959.808 30.919 960.035 31.1862 960.383C31.3288 960.685 30.5448 960.776 29.8499 960.625Z" fill="white"/>
<path d="M38.045 974.052C37.2076 973.855 36.7978 973.507 37.2076 973.311C37.6887 973.069 39.3457 973.235 39.7198 973.75C39.9158 974.158 38.9358 974.264 38.045 974.052Z" fill="white"/>
<path d="M45.919 986.935C44.8678 986.693 44.369 986.255 44.8679 985.998C45.545 985.68 47.683 985.968 48.1284 986.572C48.3778 987.117 46.9702 987.177 45.919 986.935Z" fill="white"/>
<path d="M53.5082 999.228C52.3323 998.956 51.5305 998.442 52.2076 998.124C53.0629 997.746 55.6464 998.11 56.1986 998.835C56.5015 999.41 54.9335 999.546 53.5082 999.228Z" fill="white"/>
<path d="M60.9727 1010.72C59.6008 1010.4 58.906 1009.89 59.4227 1009.59C60.2245 1009.13 63.3603 1009.54 64.0195 1010.37C64.3579 1011.04 62.4337 1011.05 60.9727 1010.72Z" fill="white"/>
<path d="M68.3123 1021.4C66.7087 1021.03 65.8714 1020.46 66.5128 1020.17C67.4928 1019.72 71.0384 1020.22 71.7867 1021.09C72.1964 1021.81 69.9514 1021.77 68.3123 1021.4Z" fill="white"/>
<path d="M17.0188 995.959L17.5355 995.778L18.4086 996.065L17.8384 996.232L17.0188 995.959Z" fill="white"/>
<path d="M25.4099 1007.38C24.7863 1007.24 24.5547 1007.03 24.7507 1006.92C25.0536 1006.76 26.4255 1006.89 26.7284 1007.26C26.8887 1007.5 26.0513 1007.5 25.4099 1007.38Z" fill="white"/>
<path d="M33.2483 1017.69C32.4643 1017.52 32.0367 1017.24 32.3218 1017.1C32.7673 1016.87 34.6203 1017.13 35.03 1017.55C35.2794 1017.92 33.9966 1017.86 33.2483 1017.69Z" fill="white"/>
<path d="M7.80544 590.202L8.07271 590.066L8.74974 590.278L8.50029 590.414L7.80544 590.202Z" fill="white"/>
<path d="M22.9847 603.163L23.5014 602.89L24.7486 603.284L24.2675 603.556L22.9847 603.163Z" fill="white"/>
<path d="M39.1258 617.392C38.2706 617.21 37.7183 616.817 38.0568 616.636C38.4488 616.409 39.892 616.636 40.4443 617.09C40.8006 617.453 40.1414 617.513 39.6247 617.468C39.4465 617.452 39.2862 617.422 39.1258 617.392Z" fill="white"/>
<path d="M3.34928 615.333C2.47624 615.151 1.94176 614.713 2.35158 614.547C2.79702 614.35 4.1333 614.562 4.63215 615.015C4.98846 615.409 4.3114 615.484 3.70562 615.409C3.5809 615.378 3.45618 615.363 3.34928 615.333Z" fill="white"/>
<path d="M17.9932 630.258C16.7817 629.97 16.1225 629.411 16.657 629.139C17.2628 628.836 19.098 629.154 19.775 629.774C20.2204 630.303 19.3117 630.454 18.4921 630.348C18.3139 630.333 18.1536 630.303 17.9932 630.258Z" fill="white"/>
<path d="M32.3711 645.666C30.928 645.334 30.1263 644.623 30.8212 644.305C31.5339 643.988 33.6719 644.275 34.5271 645.092C35.0794 645.772 33.8856 645.924 32.7809 645.742C32.6384 645.727 32.478 645.681 32.3711 645.666Z" fill="white"/>
<path d="M9.49247 659.077L10.027 658.744L11.292 659.168L10.704 659.53L9.49247 659.077Z" fill="white"/>
<path d="M23.709 675.65C22.7291 675.423 22.2124 674.924 22.7113 674.697C23.2637 674.44 24.7781 674.697 25.2948 675.226C25.6511 675.725 24.6711 675.846 23.8516 675.68C23.8159 675.665 23.7625 675.65 23.709 675.65Z" fill="white"/>
<path d="M36.9815 692.102C35.7877 691.814 35.1464 691.179 35.7522 690.892C36.3758 690.59 38.211 690.817 38.9058 691.573C39.3512 692.208 38.0505 692.359 36.9815 692.102Z" fill="white"/>
<path d="M12.6775 706.781L13.1408 706.479L14.1029 706.827L13.6218 707.129L12.6775 706.781Z" fill="white"/>
<path d="M25.7182 723.975C24.9342 723.794 24.5601 723.4 24.9877 723.204C25.4866 722.962 26.5735 723.204 26.9298 723.627C27.1614 724.005 26.4487 724.141 25.7182 723.975Z" fill="white"/>
<path d="M12.4422 756.391L12.7094 756.225L13.2796 756.422L12.9767 756.618L12.4422 756.391Z" fill="white"/>
<path d="M23.719 773.478L24.2179 773.161L25.1444 773.509C25.1444 773.524 25.1266 773.539 25.1266 773.554L24.6811 773.826L23.719 773.478Z" fill="white"/>
</g>
<g style="mix-blend-mode:overlay" opacity="0.7" clip-path="url(#clip1_29_3982)">
<path d="M1368.37 0.291904C1366.5 1.13208 1365.46 1.56773 1365.16 1.67664C1365.35 1.56773 1365.54 1.5055 1365.74 1.41215L1373.36 -2.02637C1371.69 -1.24842 1370.04 -0.470482 1368.37 0.291904Z" fill="white"/>
<path d="M1344.61 10.2028C1344.38 10.2806 1342.38 11.0274 1341.85 11.1208C1342.2 10.8096 1349.14 8.32018 1349.2 8.30462C1349.23 8.30462 1349.26 8.28906 1349.28 8.28906C1348.98 8.538 1345.82 9.76716 1344.61 10.2028Z" fill="white"/>
<path d="M1350.53 9.20721C1350 9.42503 1348.19 10.1096 1347.69 10.1407C1347.67 10.1252 1347.66 10.1096 1347.64 10.1096C1348.11 9.64286 1354.14 7.18456 1355.21 6.95117C1355.23 6.95117 1355.26 6.95117 1355.29 6.95117C1355.29 6.96673 1355.3 6.98229 1355.32 6.99785C1355.02 7.27791 1352.7 8.35147 1350.53 9.20721Z" fill="white"/>
<path d="M1312.39 20.4412C1311.69 20.6435 1310.99 20.8769 1310.28 21.0169C1310.52 20.8613 1315.71 19.3677 1315.76 19.3677C1315.78 19.3677 1315.79 19.3677 1315.82 19.3677C1315.65 19.461 1313.2 20.1923 1312.39 20.4412Z" fill="white"/>
<path d="M1319.17 19.3052C1318.96 19.3674 1317.11 19.9431 1316.88 19.8965C1317.05 19.6475 1321.93 18.0916 1322.84 17.936C1322.87 17.936 1322.9 17.936 1322.92 17.9516C1322.7 18.1383 1320.72 18.8384 1319.17 19.3052Z" fill="white"/>
<path d="M1325.92 18.9314C1325.7 19.0092 1323.74 19.6316 1323.48 19.5071C1323.67 19.087 1328.76 17.3444 1329.7 17.2666C1329.73 17.2666 1329.78 17.2666 1329.81 17.2822C1329.67 17.5933 1327.17 18.5269 1325.92 18.9314Z" fill="white"/>
<path d="M1277.21 29.745C1276.8 29.8539 1276.41 29.9472 1276.01 30.0406C1276.3 29.9628 1276.59 29.9005 1276.88 29.8228L1278.87 29.3249C1278.96 29.2938 1279.03 29.2782 1279.12 29.2626C1279.14 29.2626 1279.17 29.2471 1279.17 29.2471C1278.51 29.4182 1277.85 29.5738 1277.21 29.745Z" fill="white"/>
<path d="M1284.71 28.376C1284.41 28.4538 1283.42 28.7027 1283.28 28.6872C1283.39 28.5783 1286.36 27.8003 1286.99 27.6914C1287 27.6914 1287.03 27.6914 1287.05 27.6914C1286.91 27.7692 1285.68 28.1271 1284.71 28.376Z" fill="white"/>
<path d="M1292.21 27.7847C1291.87 27.878 1290.71 28.1737 1290.53 28.1114C1290.64 27.8936 1294.08 26.9289 1294.79 26.8667C1294.8 26.8667 1294.83 26.8667 1294.85 26.8823C1294.79 27.0534 1293.09 27.5513 1292.21 27.7847Z" fill="white"/>
<path d="M1299.69 27.9557C1299.42 28.0179 1298.07 28.3913 1297.86 28.2824C1297.97 27.9401 1301.7 26.8354 1302.46 26.8354C1302.5 26.8354 1302.53 26.8354 1302.54 26.851C1302.48 27.0999 1300.64 27.6912 1299.69 27.9557Z" fill="white"/>
<path d="M1247.25 36.9473L1247.61 36.8387L1248.29 36.6992L1247.88 36.8077L1247.25 36.9473Z" fill="white"/>
<path d="M1255.21 36.0306L1255.73 35.8595L1256.69 35.6572L1256.14 35.8284L1255.21 36.0306Z" fill="white"/>
<path d="M1263.88 35.7975C1263.71 35.8441 1263.12 35.9686 1263.03 35.9375C1263.06 35.813 1264.87 35.3618 1265.21 35.3618C1265.21 35.3618 1265.23 35.3618 1265.24 35.3774C1265.2 35.4707 1264.22 35.7197 1263.88 35.7975Z" fill="white"/>
<path d="M1272.01 36.4509C1271.85 36.482 1271.1 36.6687 1270.99 36.5909C1271.02 36.3886 1273.11 35.8285 1273.56 35.8596C1273.58 35.8596 1273.61 35.8597 1273.63 35.8908C1273.55 36.0152 1272.62 36.3109 1272.01 36.4509Z" fill="white"/>
<path d="M1363.18 2.7037C1360.47 3.8395 1360.23 3.97953 1360.08 4.05733L1360.11 4.07288C1362.97 2.92152 1365.79 1.73905 1368.59 0.541016C1368.37 0.603251 1367.93 0.712163 1363.18 2.7037Z" fill="white"/>
<path d="M1365.74 1.41248C1368.73 0.105537 1371.55 -1.13917 1373.84 -2.25941C1373.88 -2.27497 1373.89 -2.29053 1373.92 -2.29053C1373.73 -2.21273 1373.55 -2.11938 1373.34 -2.02603L1365.74 1.41248Z" fill="white"/>
<path d="M1338.54 11.961C1337.66 12.2722 1336.75 12.5678 1335.85 12.879C1336.4 12.7234 1341.19 11.1053 1343.04 10.3896C1343.06 10.3896 1343.09 10.374 1343.11 10.374C1341.55 10.7786 1340.08 11.432 1338.54 11.961Z" fill="white"/>
<path d="M1276.86 29.8231C1277.52 29.6519 1278.18 29.4963 1278.85 29.3252L1276.86 29.8231Z" fill="white"/>
<path d="M1291.55 468.599C1290.47 468.894 1289.86 469.486 1290.36 469.75C1290.93 470.046 1292.5 469.719 1293.12 469.066C1293.5 468.568 1292.86 468.365 1292.02 468.49C1291.87 468.521 1291.71 468.552 1291.55 468.599Z" fill="white"/>
<path d="M1304.33 452.838C1303.11 453.18 1302.39 453.912 1302.98 454.238C1303.58 454.55 1305.48 454.254 1306.22 453.429C1306.66 452.791 1305.78 452.558 1304.69 452.76C1304.58 452.776 1304.44 452.807 1304.33 452.838Z" fill="white"/>
<path d="M1316.62 436.687C1315.12 437.107 1314.27 437.994 1315.02 438.399C1315.85 438.834 1318.07 438.399 1318.88 437.434C1319.42 436.625 1318.35 436.345 1317.06 436.578C1316.94 436.61 1316.77 436.641 1316.62 436.687Z" fill="white"/>
<path d="M1328.49 420.227C1326.76 420.694 1325.79 421.798 1326.67 422.281C1327.63 422.825 1330.27 422.296 1331.18 421.145C1331.79 420.133 1330.34 419.791 1328.73 420.165C1328.66 420.165 1328.57 420.196 1328.49 420.227Z" fill="white"/>
<path d="M1339.92 403.547C1337.96 404.092 1336.95 405.274 1337.96 405.85C1339.04 406.488 1341.88 405.912 1342.89 404.59C1343.56 403.438 1341.79 403.018 1339.92 403.547Z" fill="white"/>
<path d="M1350.91 386.603C1348.77 387.21 1347.64 388.579 1348.74 389.248C1349.95 389.964 1353.2 389.342 1354.28 387.848C1355.1 386.432 1352.82 386.074 1350.91 386.603Z" fill="white"/>
<path d="M1361.47 369.551C1359.13 370.189 1357.96 371.698 1359.21 372.429C1360.45 373.161 1363.94 372.678 1365.16 370.936C1365.99 369.349 1363.5 369.006 1361.47 369.551Z" fill="white"/>
<path d="M1371.65 352.358C1369.15 353.074 1367.93 354.692 1369.28 355.501C1370.72 356.388 1374.44 355.672 1375.63 353.898C1376.43 352.296 1374.06 351.674 1371.65 352.358Z" fill="white"/>
<path d="M1381.38 335.042C1378.68 335.804 1377.36 337.624 1378.84 338.527C1380.33 339.429 1384.38 338.9 1385.73 336.8C1386.57 335.026 1384 334.31 1381.38 335.042Z" fill="white"/>
<path d="M1390.72 317.709C1387.91 318.502 1386.53 320.447 1388.11 321.427C1389.82 322.485 1394.09 321.676 1395.38 319.607C1396.23 317.724 1393.48 316.947 1390.72 317.709Z" fill="white"/>
<path d="M1399.65 300.314C1396.46 301.217 1395.11 303.488 1397.17 304.484C1399.18 305.464 1403.4 304.546 1404.69 302.384C1405.62 300.205 1402.3 299.567 1399.65 300.314Z" fill="white"/>
<path d="M1408.16 282.935C1404.94 283.853 1403.45 286.124 1405.32 287.276C1407.38 288.552 1412.15 287.649 1413.54 285.206C1414.44 282.982 1411.27 282.032 1408.16 282.935Z" fill="white"/>
<path d="M1416.31 265.602C1412.78 266.629 1411.36 269.181 1413.72 270.316C1415.79 271.328 1420.58 270.581 1421.99 267.983C1422.87 265.649 1419.54 264.669 1416.31 265.602Z" fill="white"/>
<path d="M1424.03 248.27C1420.28 249.359 1418.85 252.082 1421.38 253.311C1423.59 254.385 1428.58 253.653 1430.07 250.806C1430.99 248.27 1427.45 247.274 1424.03 248.27Z" fill="white"/>
<path d="M1431.36 231.046C1427.61 232.166 1426.15 235.06 1428.71 236.305C1431.03 237.425 1436.23 236.585 1437.69 233.676C1438.61 230.906 1434.53 230.113 1431.36 231.046Z" fill="white"/>
<path d="M1438.28 213.838C1434.31 215.067 1432.85 218.085 1435.58 219.408C1438.27 220.699 1443.56 219.47 1444.94 216.592C1445.8 213.838 1441.93 212.702 1438.28 213.838Z" fill="white"/>
<path d="M1444.82 196.738C1440.69 198.061 1439.23 201.235 1442.12 202.604C1444.71 203.818 1450.36 202.806 1451.83 199.57C1452.66 196.676 1448.58 195.525 1444.82 196.738Z" fill="white"/>
<path d="M1284.85 438.384C1283.33 438.804 1282.46 439.706 1283.23 440.126C1284.07 440.578 1286.37 440.126 1287.19 439.162C1287.77 438.29 1286.47 438.073 1285.27 438.29C1285.13 438.306 1284.98 438.353 1284.85 438.384Z" fill="white"/>
<path d="M1296.89 421.751C1295.09 422.249 1294.11 423.338 1295.02 423.836C1295.95 424.319 1298.62 423.93 1299.64 422.685C1300.33 421.596 1298.59 421.362 1297.14 421.689C1297.06 421.705 1296.97 421.736 1296.89 421.751Z" fill="white"/>
<path d="M1308.52 404.901C1306.55 405.446 1305.51 406.644 1306.53 407.235C1307.61 407.857 1310.58 407.266 1311.6 405.944C1312.29 404.808 1310.41 404.372 1308.52 404.901Z" fill="white"/>
<path d="M1319.68 387.801C1317.5 388.408 1316.36 389.809 1317.49 390.478C1318.74 391.209 1322.07 390.555 1323.19 389.046C1324 387.599 1321.66 387.257 1319.68 387.801Z" fill="white"/>
<path d="M1330.5 370.563C1328.15 371.216 1326.94 372.756 1328.19 373.488C1329.45 374.203 1333.08 373.69 1334.32 371.947C1335.16 370.36 1332.6 369.987 1330.5 370.563Z" fill="white"/>
<path d="M1340.89 353.215C1338.33 353.946 1337.08 355.58 1338.46 356.389C1339.95 357.26 1343.8 356.513 1344.99 354.739C1345.82 353.106 1343.39 352.499 1340.89 353.215Z" fill="white"/>
<path d="M1350.88 335.742C1348.13 336.52 1346.78 338.356 1348.29 339.258C1349.94 340.238 1354.11 339.429 1355.41 337.469C1356.26 335.664 1353.58 334.964 1350.88 335.742Z" fill="white"/>
<path d="M1360.47 318.284C1357.56 319.109 1356.17 321.069 1357.78 322.034C1359.54 323.092 1363.95 322.236 1365.29 320.136C1366.17 318.237 1363.31 317.475 1360.47 318.284Z" fill="white"/>
<path d="M1369.68 300.781C1366.61 301.652 1365.13 303.784 1366.86 304.842C1368.76 306.009 1373.47 305.091 1374.86 302.804C1375.84 300.61 1372.42 300.019 1369.68 300.781Z" fill="white"/>
<path d="M1378.47 283.324C1375.16 284.273 1373.62 286.56 1375.54 287.68C1377.63 288.909 1382.67 287.96 1384.09 285.533C1385.02 283.308 1381.71 282.406 1378.47 283.324Z" fill="white"/>
<path d="M1386.94 265.96C1383.5 266.94 1381.94 269.336 1383.95 270.534C1386.14 271.841 1391.36 270.846 1392.81 268.278C1393.73 265.944 1390.28 264.995 1386.94 265.96Z" fill="white"/>
<path d="M1394.99 248.627C1391.39 249.67 1389.78 252.221 1391.91 253.497C1394.24 254.898 1399.78 253.824 1401.27 251.086C1402.21 248.627 1398.52 247.6 1394.99 248.627Z" fill="white"/>
<path d="M1402.68 231.466C1398.95 232.555 1397.33 235.2 1399.57 236.538C1402.02 237.985 1407.7 236.88 1409.21 234.033C1410.23 231.186 1405.95 230.517 1402.68 231.466Z" fill="white"/>
<path d="M1410 214.367C1406.07 215.549 1404.44 218.303 1406.81 219.719C1409.4 221.259 1415.37 220.061 1416.9 217.043C1417.83 214.32 1413.8 213.231 1410 214.367Z" fill="white"/>
<path d="M1416.92 197.439C1412.79 198.715 1411.13 201.593 1413.69 203.056C1416.23 204.518 1422.49 203.631 1424.16 200.208C1425.07 197.345 1420.86 196.225 1416.92 197.439Z" fill="white"/>
<path d="M1423.48 180.713C1419.29 182.036 1417.64 185.023 1420.28 186.501C1423.12 188.103 1429.48 186.75 1430.98 183.514C1431.93 180.34 1427.11 179.546 1423.48 180.713Z" fill="white"/>
<path d="M1429.6 164.112C1425.35 165.496 1423.65 168.67 1426.37 170.164C1429.13 171.689 1435.77 170.631 1437.42 166.928C1438.39 163.551 1433.34 162.898 1429.6 164.112Z" fill="white"/>
<path d="M1435.4 147.744C1431.03 149.237 1429.4 152.442 1432.23 153.952C1435.3 155.601 1441.99 154.014 1443.47 150.498C1444.31 147.152 1439.2 146.452 1435.4 147.744Z" fill="white"/>
<path d="M1440.75 131.531C1436.26 133.149 1434.63 136.479 1437.59 137.988C1440.88 139.668 1447.61 137.957 1449.09 134.254C1449.87 130.94 1445.08 129.975 1440.75 131.531Z" fill="white"/>
<path d="M1445.73 115.537C1441.16 117.295 1439.56 120.718 1442.62 122.212C1445.71 123.705 1452.79 122.243 1454.31 118.151C1455.1 114.479 1449.63 114.028 1445.73 115.537Z" fill="white"/>
<path d="M1287.88 389.669C1286.53 390.042 1285.86 390.851 1286.56 391.255C1287.32 391.676 1289.31 391.287 1289.98 390.4C1290.49 389.513 1289.06 389.342 1287.88 389.669Z" fill="white"/>
<path d="M1298.88 372.274C1297.3 372.71 1296.51 373.706 1297.35 374.172C1298.18 374.639 1300.61 374.281 1301.43 373.145C1301.98 372.119 1300.28 371.885 1298.88 372.274Z" fill="white"/>
<path d="M1309.53 354.77C1307.8 355.268 1306.92 356.404 1307.85 356.949C1308.77 357.493 1311.46 357.104 1312.35 355.797C1312.9 354.708 1311.21 354.304 1309.53 354.77Z" fill="white"/>
<path d="M1319.73 337.189C1317.72 337.764 1316.75 339.04 1317.85 339.678C1319.04 340.363 1322.07 339.787 1323 338.387C1323.67 337.033 1321.51 336.691 1319.73 337.189Z" fill="white"/>
<path d="M1329.57 319.623C1327.44 320.229 1326.4 321.661 1327.58 322.361C1328.88 323.123 1332.15 322.485 1333.14 320.961C1333.84 319.451 1331.49 319.078 1329.57 319.623Z" fill="white"/>
<path d="M1339.04 302.026C1336.64 302.71 1335.52 304.282 1336.89 305.075C1338.35 305.931 1341.99 305.231 1343.08 303.519C1343.73 301.995 1341.32 301.372 1339.04 302.026Z" fill="white"/>
<path d="M1348.13 284.475C1345.54 285.222 1344.33 286.98 1345.82 287.82C1347.46 288.754 1351.4 287.992 1352.54 286.14C1353.31 284.304 1350.42 283.822 1348.13 284.475Z" fill="white"/>
<path d="M1356.86 267.065C1354.05 267.858 1352.82 269.694 1354.47 270.628C1356.21 271.624 1360.42 270.83 1361.6 268.839C1362.34 267.034 1359.56 266.302 1356.86 267.065Z" fill="white"/>
<path d="M1365.21 249.732C1362.27 250.557 1360.97 252.579 1362.7 253.575C1364.6 254.68 1369.1 253.809 1370.36 251.63C1371.18 249.545 1367.83 248.985 1365.21 249.732Z" fill="white"/>
<path d="M1373.23 232.601C1370.15 233.488 1368.79 235.604 1370.66 236.647C1372.68 237.798 1377.42 236.88 1378.68 234.608C1379.51 232.399 1375.96 231.808 1373.23 232.601Z" fill="white"/>
<path d="M1380.89 215.565C1377.58 216.529 1376.2 218.77 1378.21 219.89C1380.36 221.119 1385.4 220.139 1386.7 217.696C1387.55 215.331 1383.78 214.709 1380.89 215.565Z" fill="white"/>
<path d="M1388.19 198.792C1384.79 199.804 1383.36 202.153 1385.46 203.289C1387.55 204.425 1392.9 203.678 1394.3 200.971C1395.15 198.528 1391.21 197.906 1388.19 198.792Z" fill="white"/>
<path d="M1395.16 182.238C1391.66 183.296 1390.22 185.739 1392.4 186.906C1394.8 188.182 1400.19 187.077 1401.49 184.463C1402.34 181.927 1398.27 181.305 1395.16 182.238Z" fill="white"/>
<path d="M1401.74 165.885C1398.05 167.037 1396.61 169.557 1398.93 170.786C1401.44 172.125 1407.08 170.927 1408.41 168.157C1409.24 165.496 1404.97 164.874 1401.74 165.885Z" fill="white"/>
<path d="M1407.96 149.766C1404.09 151.011 1402.62 153.656 1405.1 154.901C1407.77 156.27 1413.65 154.947 1415 152.054C1415.82 149.284 1411.32 148.693 1407.96 149.766Z" fill="white"/>
<path d="M1413.84 133.958C1409.92 135.265 1408.46 137.973 1411 139.217C1413.76 140.586 1419.76 139.171 1421.08 136.199C1421.9 133.274 1417.25 132.823 1413.84 133.958Z" fill="white"/>
<path d="M1419.32 118.384C1415.24 119.8 1413.76 122.616 1416.46 123.861C1419.18 125.106 1425.49 123.923 1426.9 120.562C1427.67 117.559 1422.82 117.17 1419.32 118.384Z" fill="white"/>
<path d="M1424.44 103.136C1420.34 104.661 1418.9 107.539 1421.63 108.737C1424.41 109.951 1430.78 108.644 1432.19 105.19C1432.87 102.327 1428.43 101.658 1424.44 103.136Z" fill="white"/>
<path d="M1429.15 88.153C1424.96 89.8023 1423.51 92.7896 1426.35 93.9409C1429.54 95.2479 1435.9 93.3964 1437.19 90.0668C1437.83 87.1261 1433.21 86.5505 1429.15 88.153Z" fill="white"/>
<path d="M1433.45 73.4968C1429.2 75.286 1427.78 78.3512 1430.72 79.4558C1434.01 80.7005 1440.5 78.6312 1441.72 75.1927C1442.3 72.221 1437.58 71.7542 1433.45 73.4968Z" fill="white"/>
<path d="M1437.37 59.1981C1433.03 61.1585 1431.71 64.2236 1434.75 65.2661C1438.11 66.4174 1444.64 64.1303 1445.8 60.6295C1446.29 57.6267 1441.5 57.331 1437.37 59.1981Z" fill="white"/>
<path d="M1440.83 45.2415C1436.46 47.3887 1435.19 50.516 1438.28 51.434C1441.44 52.3675 1448.27 50.1582 1449.43 46.3462C1449.9 43.0166 1444.61 43.3745 1440.83 45.2415Z" fill="white"/>
<path d="M1444 31.8611C1439.93 34.0393 1438.54 36.9644 1441.14 37.8824C1444.2 38.9715 1451.5 36.4199 1452.63 32.4523C1453.04 29.2161 1447.75 29.854 1444 31.8611Z" fill="white"/>
<path d="M1277.33 356.498C1276.39 356.747 1275.92 357.338 1276.45 357.618C1276.97 357.898 1278.38 357.696 1278.85 357.011C1279.14 356.451 1278.24 356.249 1277.33 356.498Z" fill="white"/>
<path d="M1287.77 338.838C1286.66 339.149 1286.09 339.88 1286.72 340.223C1287.41 340.596 1289.09 340.269 1289.61 339.507C1289.98 338.729 1288.76 338.558 1287.77 338.838Z" fill="white"/>
<path d="M1297.83 321.132C1296.47 321.521 1295.81 322.392 1296.58 322.828C1297.39 323.31 1299.48 322.905 1300.13 321.941C1300.53 321.101 1299.15 320.774 1297.83 321.132Z" fill="white"/>
<path d="M1307.55 303.503C1306 303.939 1305.26 304.95 1306.15 305.448C1307.03 305.946 1309.4 305.619 1310.16 304.437C1310.6 303.457 1309.06 303.083 1307.55 303.503Z" fill="white"/>
<path d="M1316.89 285.875C1315.1 286.373 1314.27 287.54 1315.32 288.116C1316.45 288.723 1319.17 288.209 1319.95 286.965C1320.44 285.829 1318.65 285.393 1316.89 285.875Z" fill="white"/>
<path d="M1325.92 268.418C1324 268.947 1323.09 270.254 1324.22 270.877C1325.34 271.499 1328.35 271.079 1329.25 269.601C1329.83 268.247 1327.63 267.936 1325.92 268.418Z" fill="white"/>
<path d="M1334.55 251.055C1332.34 251.677 1331.4 253.093 1332.7 253.809C1333.99 254.524 1337.31 254.073 1338.3 252.393C1338.9 250.915 1336.47 250.526 1334.55 251.055Z" fill="white"/>
<path d="M1342.86 233.877C1340.48 234.546 1339.43 236.133 1340.85 236.911C1342.4 237.767 1346.06 237.067 1347.03 235.355C1347.67 233.722 1344.97 233.286 1342.86 233.877Z" fill="white"/>
<path d="M1350.86 216.934C1348.26 217.665 1347.17 219.345 1348.76 220.185C1350.44 221.088 1354.35 220.326 1355.37 218.505C1356.03 216.747 1353.11 216.296 1350.86 216.934Z" fill="white"/>
<path d="M1358.49 200.192C1355.74 200.97 1354.6 202.806 1356.28 203.678C1358.11 204.642 1362.32 203.818 1363.39 201.857C1364.06 199.99 1360.91 199.508 1358.49 200.192Z" fill="white"/>
<path d="M1365.81 183.778C1362.92 184.618 1361.72 186.532 1363.51 187.434C1365.34 188.337 1369.78 187.73 1370.96 185.505C1371.65 183.529 1368.33 183.047 1365.81 183.778Z" fill="white"/>
<path d="M1372.78 167.597C1369.67 168.515 1368.44 170.522 1370.39 171.486C1372.48 172.529 1377.2 171.564 1378.33 169.386C1378.99 167.426 1375.76 166.71 1372.78 167.597Z" fill="white"/>
<path d="M1379.42 151.758C1376.17 152.722 1374.91 154.807 1377 155.803C1379.06 156.783 1384 156.021 1385.24 153.563C1385.9 151.478 1382.54 150.824 1379.42 151.758Z" fill="white"/>
<path d="M1385.73 136.199C1382.3 137.257 1381.03 139.435 1383.23 140.447C1385.59 141.536 1390.73 140.4 1391.91 138.019C1392.63 135.67 1388.66 135.297 1385.73 136.199Z" fill="white"/>
<path d="M1391.68 120.982C1388.35 122.056 1386.95 124.172 1388.85 125.261C1391.17 126.599 1396.97 125.385 1398.21 122.772C1398.87 120.516 1395.1 119.893 1391.68 120.982Z" fill="white"/>
<path d="M1397.28 106.17C1393.87 107.306 1392.46 109.484 1394.44 110.558C1396.87 111.881 1402.84 110.542 1404.08 107.851C1404.72 105.564 1400.81 105.004 1397.28 106.17Z" fill="white"/>
<path d="M1402.56 91.6695C1399.04 92.9142 1397.59 95.1703 1399.67 96.2438C1402.21 97.5664 1408.4 96.0727 1409.64 93.2876C1410.25 90.9071 1406.2 90.3937 1402.56 91.6695Z" fill="white"/>
<path d="M1407.45 77.604C1403.86 78.942 1402.43 81.2448 1404.58 82.2716C1407.3 83.563 1413.51 81.9449 1414.75 79.0509C1415.33 76.6393 1411.16 76.2348 1407.45 77.604Z" fill="white"/>
<path d="M1411.97 63.9121C1408.32 65.3591 1406.9 67.7396 1409.12 68.7198C1411.93 69.9801 1418.32 68.1597 1419.53 65.1568C1420.07 62.7141 1415.76 62.4185 1411.97 63.9121Z" fill="white"/>
<path d="M1416.17 50.7182C1412.4 52.3052 1411.02 54.6546 1413.34 55.5415C1416.24 56.6773 1422.71 54.6546 1423.87 51.6829C1424.41 49.0223 1419.65 49.2557 1416.17 50.7182Z" fill="white"/>
<path d="M1420.09 38.1779C1416.28 39.905 1414.89 42.2699 1417.25 43.0479C1419.97 43.9503 1426.72 41.9432 1427.94 38.7536C1428.46 36.1242 1423.61 36.5754 1420.09 38.1779Z" fill="white"/>
<path d="M1423.8 26.3221C1420.22 28.0647 1418.74 30.2741 1420.67 31.0365C1423.45 32.1567 1430.5 29.5895 1431.68 26.4466C1432.15 23.9261 1427.3 24.6262 1423.8 26.3221Z" fill="white"/>
<path d="M1427.22 15.1195C1423.62 17.0332 1422.16 19.2581 1424.09 19.8805C1426.93 20.7984 1434.05 17.8889 1435.19 14.7616C1435.66 12.1788 1430.7 13.2679 1427.22 15.1195Z" fill="white"/>
<path d="M1430.39 4.55528C1426.78 6.64017 1425.38 8.81841 1427.34 9.30073C1430.22 10.0009 1437.28 6.73352 1438.38 3.65286C1438.76 1.3657 1434.33 2.28368 1430.39 4.55528Z" fill="white"/>
<path d="M1266.06 323.125L1266.09 323.109L1266.04 323.062C1266.06 323.093 1266.06 323.109 1266.06 323.125Z" fill="white"/>
<path d="M1275.24 305.091C1274.52 305.293 1274.18 305.76 1274.58 305.993C1274.99 306.226 1276.09 306.071 1276.44 305.511C1276.66 305.059 1275.95 304.904 1275.24 305.091Z" fill="white"/>
<path d="M1284.82 287.416C1283.81 287.696 1283.36 288.318 1283.96 288.614C1284.58 288.925 1286.08 288.645 1286.48 287.991C1286.78 287.338 1285.68 287.182 1284.82 287.416Z" fill="white"/>
<path d="M1294.08 269.912C1292.92 270.239 1292.4 270.97 1293.08 271.343C1293.81 271.732 1295.56 271.39 1296.06 270.597C1296.36 269.865 1295.21 269.601 1294.08 269.912Z" fill="white"/>
<path d="M1302.98 252.517C1301.54 252.906 1300.93 253.808 1301.77 254.244C1302.62 254.68 1304.79 254.384 1305.43 253.326C1305.82 252.408 1304.22 252.175 1302.98 252.517Z" fill="white"/>
<path d="M1311.58 235.371C1310.01 235.807 1309.32 236.818 1310.27 237.316C1311.29 237.861 1313.67 237.394 1314.33 236.305C1314.76 235.216 1312.97 234.982 1311.58 235.371Z" fill="white"/>
<path d="M1319.86 218.396C1318.05 218.91 1317.27 220.077 1318.35 220.637C1319.53 221.244 1322.31 220.715 1323.03 219.47C1323.52 218.241 1321.46 217.945 1319.86 218.396Z" fill="white"/>
<path d="M1327.8 201.717C1325.73 202.308 1324.88 203.584 1326.14 204.222C1327.52 204.907 1330.58 204.316 1331.4 202.9C1331.87 201.624 1329.76 201.157 1327.8 201.717Z" fill="white"/>
<path d="M1335.41 185.381C1333.26 185.987 1332.35 187.388 1333.69 188.041C1335.15 188.772 1338.51 188.134 1339.35 186.625C1339.9 185.163 1337.36 184.82 1335.41 185.381Z" fill="white"/>
<path d="M1342.76 169.371C1340.58 169.993 1339.56 171.362 1340.75 172.093C1342.23 173.011 1346.06 172.327 1346.98 170.662C1347.53 169.137 1344.82 168.779 1342.76 169.371Z" fill="white"/>
<path d="M1349.76 153.672C1347.41 154.341 1346.32 155.834 1347.61 156.628C1349.23 157.608 1353.42 156.846 1354.41 155.025C1354.99 153.376 1352.01 153.034 1349.76 153.672Z" fill="white"/>
<path d="M1356.48 138.393C1353.94 139.139 1352.82 140.664 1354.25 141.489C1355.98 142.485 1360.39 141.66 1361.39 139.762C1361.98 138.05 1358.84 137.708 1356.48 138.393Z" fill="white"/>
<path d="M1362.87 123.472C1360.2 124.265 1359.02 125.915 1360.53 126.739C1362.4 127.766 1367.14 126.848 1368.19 124.857C1368.77 123.036 1365.4 122.709 1362.87 123.472Z" fill="white"/>
<path d="M1368.96 108.971C1366.14 109.842 1364.94 111.523 1366.56 112.363C1368.54 113.39 1373.45 112.378 1374.52 110.325C1375.1 108.458 1371.57 108.178 1368.96 108.971Z" fill="white"/>
<path d="M1374.72 94.9057C1371.76 95.8704 1370.52 97.6285 1372.24 98.4687C1374.36 99.4956 1379.57 98.3753 1380.66 96.2126C1381.19 94.3767 1377.77 93.9255 1374.72 94.9057Z" fill="white"/>
<path d="M1380.14 81.2761C1377.02 82.3186 1375.74 84.1545 1377.58 84.9792C1379.87 86.0216 1385.27 84.7769 1386.39 82.4897C1386.92 80.6071 1383.33 80.2337 1380.14 81.2761Z" fill="white"/>
<path d="M1385.24 68.16C1382.05 69.2802 1380.78 71.1473 1382.68 71.9408C1385.07 72.9365 1390.56 71.5518 1391.68 69.218C1392.21 67.2731 1388.52 67.0086 1385.24 68.16Z" fill="white"/>
<path d="M1390.06 55.6192C1386.94 56.7706 1385.54 58.5443 1387.16 59.3222C1389.4 60.4269 1395.63 58.8555 1396.79 56.4438C1397.36 54.3434 1393.09 54.499 1390.06 55.6192Z" fill="white"/>
<path d="M1394.72 43.8414C1391.5 45.1017 1390.14 46.8131 1391.79 47.5444C1394.08 48.5246 1400.41 46.7665 1401.57 44.3548C1402.12 42.3322 1397.8 42.6434 1394.72 43.8414Z" fill="white"/>
<path d="M1399.13 32.7788C1395.84 34.148 1394.44 35.8906 1396.13 36.5129C1398.57 37.3998 1405 35.4238 1406.2 32.9499C1406.75 30.9117 1402.37 31.4407 1399.13 32.7788Z" fill="white"/>
<path d="M1403.36 22.4012C1400.2 23.8015 1398.73 25.4507 1400.08 26.0575C1402.26 27.0533 1409.32 24.7506 1410.56 22.1833C1411.1 20.2229 1406.64 20.9386 1403.36 22.4012Z" fill="white"/>
<path d="M1407.36 12.7235C1404.22 14.2327 1402.76 15.8664 1404.09 16.3954C1406.31 17.2355 1413.4 14.6216 1414.64 12.07C1415.16 10.1718 1410.66 11.152 1407.36 12.7235Z" fill="white"/>
<path d="M1411.13 3.7148C1407.91 5.39516 1406.46 6.99773 1407.85 7.3867C1409.9 7.97794 1417.2 5.224 1418.5 2.56343C1418.99 0.696368 1414.39 2.01888 1411.13 3.7148Z" fill="white"/>
<path d="M1261.18 271.779L1261.43 271.966L1261.93 271.763L1261.63 271.592L1261.18 271.779Z" fill="white"/>
<path d="M1270.06 254.524L1270.57 254.882L1271.51 254.478L1270.96 254.151L1270.06 254.524Z" fill="white"/>
<path d="M1279.42 236.99C1278.7 237.176 1278.34 237.643 1278.71 237.892C1279.17 238.188 1280.49 237.97 1280.82 237.425C1281.04 236.865 1280.03 236.818 1279.42 236.99Z" fill="white"/>
<path d="M1287.97 220.061C1287.03 220.342 1286.62 220.933 1287.17 221.228C1287.79 221.555 1289.26 221.259 1289.65 220.606C1289.92 219.968 1288.81 219.813 1287.97 220.061Z" fill="white"/>
<path d="M1296.18 203.413C1295.04 203.725 1294.49 204.409 1295.12 204.783C1295.79 205.203 1297.83 204.954 1298.35 204.067C1298.63 203.351 1297.35 203.087 1296.18 203.413Z" fill="white"/>
<path d="M1304.14 187.123C1302.86 187.481 1302.24 188.274 1302.94 188.679C1303.78 189.192 1306.04 188.819 1306.59 187.87C1306.95 186.983 1305.37 186.781 1304.14 187.123Z" fill="white"/>
<path d="M1311.76 171.16C1310.23 171.58 1309.53 172.498 1310.36 172.98C1311.38 173.571 1314.03 173.12 1314.68 172.016C1315.09 171.004 1313.2 170.771 1311.76 171.16Z" fill="white"/>
<path d="M1319.12 155.617C1317.39 156.099 1316.61 157.11 1317.55 157.655C1318.7 158.324 1321.73 157.795 1322.45 156.534C1322.87 155.383 1320.74 155.15 1319.12 155.617Z" fill="white"/>
<path d="M1326.2 140.509C1324.33 141.038 1323.52 142.111 1324.54 142.687C1325.79 143.402 1329.04 142.811 1329.81 141.473C1330.25 140.26 1327.94 140.011 1326.2 140.509Z" fill="white"/>
<path d="M1332.97 125.806C1330.91 126.397 1329.98 127.579 1331.14 128.186C1332.57 128.917 1336.2 128.248 1337.03 126.817C1337.49 125.494 1334.9 125.261 1332.97 125.806Z" fill="white"/>
<path d="M1339.46 111.6C1337.2 112.254 1336.26 113.467 1337.55 114.105C1339.12 114.868 1342.93 114.152 1343.8 112.611C1344.25 111.32 1341.74 110.947 1339.46 111.6Z" fill="white"/>
<path d="M1345.67 97.8771C1343.39 98.5462 1342.34 99.7753 1343.45 100.46C1344.97 101.378 1349.43 100.584 1350.41 98.8884C1350.86 97.4882 1348.13 97.1459 1345.67 97.8771Z" fill="white"/>
<path d="M1351.6 84.6679C1349.24 85.3836 1348.16 86.6439 1349.31 87.3284C1350.91 88.262 1355.59 87.3751 1356.56 85.6014C1357.06 84.1078 1353.91 83.9677 1351.6 84.6679Z" fill="white"/>
<path d="M1357.17 71.9875C1354.68 72.7654 1353.51 74.0879 1354.75 74.757C1356.5 75.706 1361.51 74.6792 1362.54 72.8121C1363.07 71.2251 1359.65 71.2095 1357.17 71.9875Z" fill="white"/>
<path d="M1362.6 60.0693C1359.97 60.9251 1358.76 62.2787 1360.06 62.901C1361.9 63.7723 1367.19 62.6054 1368.26 60.7383C1368.8 59.1202 1365.21 59.2136 1362.6 60.0693Z" fill="white"/>
<path d="M1367.89 48.9446C1365.34 49.8159 1364.05 51.0606 1365.1 51.6829C1366.73 52.632 1372.62 51.3251 1373.77 49.3802C1374.3 47.8088 1370.58 48.0266 1367.89 48.9446Z" fill="white"/>
<path d="M1373.03 38.5827C1370.41 39.5162 1369.1 40.7609 1370.15 41.321C1371.82 42.1768 1377.85 40.6831 1379.01 38.7538C1379.57 37.2446 1375.77 37.6025 1373.03 38.5827Z" fill="white"/>
<path d="M1377.96 28.9515C1375.18 29.9939 1373.84 31.2386 1374.97 31.7209C1376.79 32.4989 1383 30.7719 1384.2 28.827C1384.79 27.3178 1380.88 27.8468 1377.96 28.9515Z" fill="white"/>
<path d="M1382.76 20.0364C1379.97 21.1722 1378.62 22.4169 1379.75 22.8059C1381.6 23.4594 1387.86 21.5145 1389.09 19.5852C1389.65 18.1382 1385.7 18.8539 1382.76 20.0364Z" fill="white"/>
<path d="M1387.33 11.8368C1384.61 13.0037 1383.2 14.1862 1384.06 14.5752C1385.43 15.1819 1392.51 13.0815 1393.87 10.9966C1394.41 9.61187 1390.34 10.5454 1387.33 11.8368Z" fill="white"/>
<path d="M1391.71 4.35296C1388.95 5.62879 1387.52 6.82683 1388.38 7.10689C1390 7.65145 1397.05 5.03755 1398.35 3.07713C1398.88 1.8013 1395.29 2.81263 1392.68 3.91731C1392.38 4.04178 1391.99 4.21293 1391.71 4.35296Z" fill="white"/>
<path d="M1246.3 238.778L1246.45 238.856L1246.7 238.763L1246.55 238.67L1246.3 238.778Z" fill="white"/>
<path d="M1255.15 221.975L1255.29 222.068L1255.54 221.959L1255.4 221.866L1255.15 221.975Z" fill="white"/>
<path d="M1263.38 205.483L1263.78 205.732L1264.47 205.436L1264.05 205.187L1263.38 205.483Z" fill="white"/>
<path d="M1271.35 189.363L1271.99 189.721L1272.98 189.301L1272.4 188.928L1271.35 189.363Z" fill="white"/>
<path d="M1279.92 173.136C1279.22 173.338 1278.89 173.743 1279.26 173.96C1279.73 174.225 1280.97 174.007 1281.29 173.509C1281.46 173.074 1280.67 172.934 1279.92 173.136Z" fill="white"/>
<path d="M1287.55 157.67C1286.59 157.919 1286.15 158.464 1286.67 158.744C1287.27 159.07 1288.93 158.868 1289.36 158.137C1289.59 157.577 1288.54 157.406 1287.55 157.67Z" fill="white"/>
<path d="M1294.96 142.687C1293.88 142.967 1293.37 143.605 1293.96 143.931C1294.71 144.336 1296.66 143.994 1297.11 143.231C1297.39 142.531 1296 142.422 1294.96 142.687Z" fill="white"/>
<path d="M1302.07 128.171C1300.74 128.528 1300.16 129.244 1300.88 129.617C1301.8 130.084 1304.1 129.68 1304.65 128.777C1304.93 128.046 1303.44 127.813 1302.07 128.171Z" fill="white"/>
<path d="M1308.93 114.152C1307.47 114.556 1306.78 115.319 1307.47 115.754C1308.43 116.346 1311.32 115.879 1311.96 114.805C1312.28 113.95 1310.53 113.716 1308.93 114.152Z" fill="white"/>
<path d="M1315.54 100.725C1313.92 101.176 1313.15 101.985 1313.94 102.436C1314.99 103.058 1318.16 102.514 1318.84 101.394C1319.2 100.46 1317.3 100.242 1315.54 100.725Z" fill="white"/>
<path d="M1321.87 87.8263C1320.08 88.3242 1319.23 89.2111 1320.11 89.7089C1321.3 90.3624 1324.85 89.7401 1325.62 88.4954C1326.01 87.4218 1323.63 87.3284 1321.87 87.8263Z" fill="white"/>
<path d="M1327.97 75.5969C1326.03 76.157 1325.15 77.0439 1326.11 77.5262C1327.39 78.1641 1331.18 77.464 1331.98 76.1726C1332.37 75.1457 1330.08 75.0057 1327.97 75.5969Z" fill="white"/>
<path d="M1333.95 64.177C1331.99 64.7526 1331 65.6395 1331.77 66.1218C1332.97 66.8531 1337.42 66.0596 1338.32 64.6593C1338.79 63.5235 1336 63.5857 1333.95 64.177Z" fill="white"/>
<path d="M1339.81 53.5966C1337.72 54.2345 1336.65 55.1525 1337.47 55.6037C1338.74 56.3039 1343.51 55.3548 1344.49 53.9389C1344.99 52.7876 1341.99 52.9276 1339.81 53.5966Z" fill="white"/>
<path d="M1345.56 43.8414C1343.36 44.526 1342.24 45.444 1343.11 45.8485C1344.46 46.4709 1349.46 45.3817 1350.48 43.9814C1350.99 42.8612 1347.85 43.1257 1345.56 43.8414Z" fill="white"/>
<path d="M1351.14 34.8479C1348.96 35.5636 1347.78 36.4349 1348.43 36.8394C1349.57 37.5551 1355.21 36.2793 1356.36 34.7857C1356.87 33.6654 1353.56 34.0544 1351.14 34.8479Z" fill="white"/>
<path d="M1356.62 26.6175C1354.36 27.3955 1353.12 28.2668 1353.8 28.6246C1355.02 29.247 1360.77 27.8155 1361.96 26.3063C1362.48 25.2794 1359.39 25.7307 1357.02 26.4775C1356.91 26.5242 1356.76 26.5708 1356.62 26.6175Z" fill="white"/>
<path d="M1361.94 19.134C1359.56 20.0053 1358.29 20.8766 1359.01 21.1567C1360.12 21.6079 1366.26 20.052 1367.55 18.5116C1368.07 17.5937 1365.34 18.0604 1363.23 18.6984C1362.79 18.8384 1362.37 18.9784 1361.94 19.134Z" fill="white"/>
<path d="M1367.12 12.3969C1364.86 13.2682 1363.55 14.1084 1364 14.3729C1364.91 14.9174 1371.49 12.9414 1372.81 11.4633C1373.29 10.6543 1370.92 11.2144 1370.19 11.4011C1369.24 11.65 1368.13 12.0079 1367.12 12.3969Z" fill="white"/>
<path d="M1372.1 6.37563C1369.76 7.34028 1368.46 8.1649 1368.9 8.36716C1369.84 8.80281 1376.62 6.51566 1378 5.05312C1378.1 4.91309 1378.36 4.493 1376.75 4.85085C1375.6 5.06868 1373.78 5.67548 1372.1 6.37563Z" fill="white"/>
<path d="M1376.94 1.05437C1374.47 2.14349 1373.17 2.93699 1373.64 3.06146C1374.49 3.31041 1381.46 0.805416 1382.98 -0.703797C1383.07 -0.828268 1383.23 -1.06165 1382.51 -0.937182C1381.33 -0.750476 1378.8 0.229744 1376.94 1.05437Z" fill="white"/>
<path d="M1254.95 159.957L1255.12 160.081L1255.5 159.926L1255.26 159.833L1254.95 159.957Z" fill="white"/>
<path d="M1262.4 145.207L1262.83 145.409L1263.49 145.145L1263.08 144.942L1262.4 145.207Z" fill="white"/>
<path d="M1270.22 130.582C1269.64 130.737 1269.39 131.033 1269.7 131.204C1270.11 131.422 1271.16 131.189 1271.4 130.831C1271.52 130.519 1270.83 130.426 1270.22 130.582Z" fill="white"/>
<path d="M1277.44 116.766C1276.7 116.968 1276.34 117.326 1276.7 117.528C1277.13 117.777 1278.59 117.606 1278.92 117.077C1279.09 116.657 1278.23 116.548 1277.44 116.766Z" fill="white"/>
<path d="M1284.38 103.51C1283.45 103.759 1283.01 104.21 1283.45 104.474C1284.05 104.801 1285.93 104.506 1286.33 103.883C1286.55 103.323 1285.31 103.261 1284.38 103.51Z" fill="white"/>
<path d="M1291.07 90.8602C1290.03 91.1403 1289.32 91.6693 1289.92 91.996C1290.67 92.385 1292.95 92.0116 1293.44 91.2647C1293.7 90.6735 1292.32 90.5335 1291.07 90.8602Z" fill="white"/>
<path d="M1297.64 79.0355C1296.44 79.3623 1295.82 79.8913 1296.28 80.2025C1296.99 80.6692 1299.75 80.2491 1300.33 79.3934C1300.63 78.7088 1298.93 78.6932 1297.64 79.0355Z" fill="white"/>
<path d="M1304.11 68.051C1302.7 68.4244 1301.96 69.0156 1302.53 69.3112C1303.39 69.778 1306.51 69.2645 1307.17 68.3621C1307.53 67.6309 1305.56 67.662 1304.11 68.051Z" fill="white"/>
<path d="M1310.49 57.9686C1309.01 58.3575 1308.21 58.9799 1308.77 59.2755C1309.67 59.7423 1313.08 59.1199 1313.81 58.1864C1314.21 57.4396 1312.07 57.5329 1310.49 57.9686Z" fill="white"/>
<path d="M1316.8 48.7267C1315.27 49.1468 1314.43 49.7225 1314.87 50.0181C1315.62 50.5316 1319.58 49.8158 1320.42 48.8201C1320.82 48.0733 1318.49 48.2444 1316.8 48.7267Z" fill="white"/>
<path d="M1323 40.2786C1321.33 40.7609 1320.39 41.3522 1320.86 41.6478C1321.69 42.1301 1326 41.2588 1326.92 40.2475C1327.31 39.594 1325.49 39.6562 1323.59 40.1075C1323.41 40.1541 1323.17 40.2164 1323 40.2786Z" fill="white"/>
<path d="M1329.09 32.6234C1327.27 33.1835 1326.25 33.7903 1326.76 34.0392C1327.68 34.4593 1332.37 33.4324 1333.37 32.4055C1333.75 31.8143 1332.13 31.9076 1330.42 32.2811C1329.95 32.3744 1329.51 32.4989 1329.09 32.6234Z" fill="white"/>
<path d="M1335.08 25.7777C1333.31 26.3378 1332.26 26.9135 1332.59 27.1469C1333.23 27.6137 1338.41 26.4312 1339.54 25.3421C1339.92 24.8131 1338.46 24.9998 1337.83 25.1087C1337.44 25.1709 1336.39 25.3732 1335.08 25.7777Z" fill="white"/>
<path d="M1340.96 19.6782C1339.09 20.3006 1337.97 20.8763 1338.3 21.0785C1338.96 21.4519 1344.54 20.005 1345.7 18.9936C1345.78 18.8847 1346.03 18.5735 1344.72 18.7447C1343.78 18.8692 1342.31 19.2426 1340.96 19.6782Z" fill="white"/>
<path d="M1346.72 14.3418C1344.74 15.0263 1343.61 15.602 1343.95 15.742C1344.66 16.0221 1350.34 14.3729 1351.58 13.3771C1351.66 13.2837 1351.82 13.1126 1351.24 13.1593C1350.44 13.206 1348.57 13.7038 1346.72 14.3418Z" fill="white"/>
<path d="M1352.34 9.7365C1351.32 10.1255 1349.56 10.7945 1349.37 11.0901C1349.83 11.4635 1356.15 9.36309 1357.44 8.41399C1357.47 8.38288 1357.5 8.3362 1357.53 8.30508C1357.11 7.9939 1352.38 9.72094 1352.34 9.7365Z" fill="white"/>
<path d="M1357.83 5.86188C1355.93 6.59315 1354.93 7.05992 1354.79 7.21551C1355.3 7.40222 1361.68 5.06838 1363.03 4.19708C1363.06 4.16597 1363.11 4.13485 1363.12 4.10373C1362.75 3.94814 1358.33 5.65962 1357.83 5.86188Z" fill="white"/>
<path d="M1360.12 4.0885C1361.3 3.77733 1367.02 1.50573 1368.55 0.634428C1368.57 0.618869 1368.6 0.603312 1368.63 0.587753C1368.62 0.587753 1368.6 0.5722 1368.6 0.556641C1365.81 1.75468 1362.98 2.93715 1360.12 4.0885Z" fill="white"/>
<path d="M1258.92 94.221L1259.37 94.4077L1260.14 94.112L1259.64 93.9409L1258.92 94.221Z" fill="white"/>
<path d="M1266.31 82.4738C1265.76 82.6139 1265.56 82.8317 1265.73 82.9406C1266 83.1118 1267.21 82.9717 1267.47 82.5983C1267.61 82.3494 1266.88 82.3494 1266.31 82.4738Z" fill="white"/>
<path d="M1273.22 71.8628C1272.53 72.0339 1272.15 72.3296 1272.4 72.4696C1272.79 72.703 1274.43 72.4385 1274.79 72.0028C1275.01 71.6294 1273.88 71.6916 1273.22 71.8628Z" fill="white"/>
<path d="M1280.06 62.1543C1279.2 62.3721 1278.73 62.6833 1278.96 62.8544C1279.39 63.1501 1281.6 62.8078 1282.07 62.2632C1282.31 61.8898 1281.11 61.8898 1280.06 62.1543Z" fill="white"/>
<path d="M1286.88 53.3321C1285.92 53.581 1285.37 53.9078 1285.64 54.0945C1286.08 54.3901 1288.62 53.9545 1289.17 53.3943C1289.43 52.9898 1288.07 53.0676 1287.03 53.301C1286.99 53.301 1286.92 53.3165 1286.88 53.3321Z" fill="white"/>
<path d="M1293.59 45.366C1292.45 45.6616 1291.79 46.0351 1292.12 46.2062C1292.68 46.4863 1295.65 45.9417 1296.31 45.3349C1296.59 44.9304 1295.32 45.0393 1294.43 45.1949C1294.14 45.226 1293.88 45.2882 1293.59 45.366Z" fill="white"/>
<path d="M1300.28 38.2091C1299.03 38.5514 1298.3 38.9403 1298.65 39.0959C1299.25 39.3604 1302.48 38.707 1303.22 38.0846C1303.48 37.7423 1302.53 37.8201 1302.1 37.8668C1301.77 37.8979 1301.11 37.9913 1300.28 38.2091Z" fill="white"/>
<path d="M1306.86 31.9075C1305.71 32.2186 1304.69 32.6387 1304.94 32.7943C1305.4 33.1055 1309.28 32.2964 1310.17 31.5963C1310.23 31.534 1310.41 31.3162 1309.5 31.394C1308.98 31.4251 1308.01 31.5807 1306.86 31.9075Z" fill="white"/>
<path d="M1313.37 26.3687C1311.9 26.7888 1311.02 27.1778 1311.27 27.3023C1311.76 27.5357 1316.01 26.571 1316.98 25.8864C1317.05 25.8242 1317.17 25.6997 1316.75 25.6997C1316.15 25.6997 1314.72 25.9798 1313.37 26.3687Z" fill="white"/>
<path d="M1319.81 21.639C1319.17 21.8257 1317.68 22.3081 1317.52 22.5259C1317.85 22.8526 1322.76 21.499 1323.66 20.9389C1323.69 20.9233 1323.72 20.8922 1323.74 20.8611C1323.48 20.5966 1320.58 21.4057 1319.81 21.639Z" fill="white"/>
<path d="M1326.17 17.6556C1325.32 17.9201 1323.86 18.4025 1323.7 18.5736C1324.02 18.7759 1329.18 17.2978 1330.28 16.691C1330.3 16.6754 1330.34 16.6443 1330.36 16.6287C1330.06 16.4576 1326.2 17.6401 1326.17 17.6556Z" fill="white"/>
<path d="M1332.42 14.4349C1329.9 15.2595 1329.86 15.3373 1329.84 15.3684C1330.36 15.3529 1335.45 13.797 1336.7 13.2057C1336.73 13.1902 1336.76 13.159 1336.78 13.1279C1336.36 13.1435 1332.59 14.3726 1332.42 14.4349Z" fill="white"/>
<path d="M1255.5 58.0468L1255.97 58.109L1256.74 57.8757L1256.26 57.7979L1255.5 58.0468Z" fill="white"/>
<path d="M1263.16 50.2671C1262.64 50.3916 1262.32 50.5628 1262.47 50.625C1262.7 50.7495 1264.02 50.5161 1264.33 50.2516C1264.46 50.1115 1264.07 50.1271 1263.89 50.1427C1263.64 50.1582 1263.39 50.2049 1263.16 50.2671Z" fill="white"/>
<path d="M1270.3 43.5459C1269.73 43.686 1269.2 43.8727 1269.33 43.966C1269.54 44.1216 1271.48 43.7793 1271.92 43.4526C1272.01 43.3592 1271.88 43.3281 1271.6 43.3281C1271.29 43.3437 1270.77 43.437 1270.3 43.5459Z" fill="white"/>
<path d="M1277.44 37.6798C1276.69 37.8665 1276.22 38.0688 1276.33 38.1466C1276.53 38.3022 1278.84 37.851 1279.36 37.5087C1279.39 37.4775 1279.47 37.4153 1279.23 37.3998C1278.92 37.3842 1278.15 37.5087 1277.44 37.6798Z" fill="white"/>
<path d="M1284.51 32.6388C1284.21 32.7166 1283.22 32.9811 1283.12 33.1367C1283.3 33.3545 1286.26 32.67 1286.83 32.3432C1286.84 32.3277 1286.88 32.3121 1286.88 32.2965C1286.75 32.1254 1284.98 32.5299 1284.51 32.6388Z" fill="white"/>
<path d="M1291.57 28.4226C1291.15 28.5315 1290.16 28.8116 1290.03 28.936C1290.19 29.1072 1293.52 28.2826 1294.11 27.9869C1294.13 27.9714 1294.16 27.9558 1294.18 27.9403C1294.02 27.8002 1292.09 28.2826 1291.57 28.4226Z" fill="white"/>
<path d="M1298.56 24.9838C1298.07 25.1082 1296.92 25.435 1296.78 25.5283C1296.99 25.6372 1300.71 24.657 1301.44 24.3458C1301.46 24.3303 1301.49 24.3147 1301.51 24.2992C1301.33 24.2369 1298.59 24.9682 1298.56 24.9838Z" fill="white"/>
<path d="M1305.49 22.3235C1304.83 22.5102 1304.18 22.6658 1303.53 22.8992C1303.81 22.8992 1307.93 21.7323 1308.7 21.4833C1308.71 21.4833 1308.74 21.4678 1308.74 21.4678C1308.68 21.4678 1308.59 21.4678 1305.49 22.3235Z" fill="white"/>
<path d="M1246.56 43.4059L1246.88 43.3903L1247.41 43.25L1247.1 43.2656L1246.56 43.4059Z" fill="white"/>
<path d="M1253.91 38.8313L1254.47 38.7846L1255.45 38.5356L1254.85 38.5823L1253.91 38.8313Z" fill="white"/>
<path d="M1262.07 34.8795C1261.95 34.9106 1261.37 35.0507 1261.29 35.1129C1261.37 35.1751 1263 34.8017 1263.31 34.6773C1263.33 34.6773 1263.33 34.6617 1263.34 34.6617C1263.3 34.5995 1262.54 34.7706 1262.07 34.8795Z" fill="white"/>
<path d="M1269.64 31.9077C1269.29 31.9855 1268.95 32.0166 1268.62 32.1722C1268.81 32.1878 1270.91 31.6743 1271.3 31.5499C1271.32 31.5499 1271.32 31.5343 1271.33 31.5343C1271.27 31.5188 1270.06 31.7988 1269.64 31.9077Z" fill="white"/>
<path d="M1223 535.954L1223.09 536.001L1223.36 535.907L1223.24 535.892L1223 535.954Z" fill="white"/>
<path d="M1237.16 524.254L1237.21 524.286L1237.35 524.238L1237.3 524.206L1237.16 524.254Z" fill="white"/>
<path d="M1250.77 511.743L1251.01 511.883L1251.6 511.665L1251.38 511.525L1250.77 511.743Z" fill="white"/>
<path d="M1264.15 498.409L1264.6 498.689L1265.7 498.285L1265.28 498.005L1264.15 498.409Z" fill="white"/>
<path d="M1278.37 483.769C1277.61 483.956 1277.13 484.36 1277.43 484.547C1277.77 484.78 1279.04 484.547 1279.53 484.08C1279.84 483.707 1279.26 483.645 1278.81 483.691C1278.65 483.707 1278.51 483.738 1278.37 483.769Z" fill="white"/>
<path d="M1233.08 500.712L1233.49 501.008L1234.6 500.603L1234.13 500.323L1233.08 500.712Z" fill="white"/>
<path d="M1246.85 485.885C1246.08 486.072 1245.61 486.523 1245.97 486.694C1246.36 486.896 1247.54 486.679 1247.98 486.212C1248.29 485.807 1247.69 485.729 1247.16 485.807C1247.05 485.838 1246.94 485.854 1246.85 485.885Z" fill="white"/>
<path d="M1259.75 470.528C1258.68 470.824 1258.1 471.4 1258.57 471.68C1259.11 471.991 1260.72 471.664 1261.32 471.026C1261.71 470.482 1260.91 470.326 1260.19 470.435C1260.03 470.451 1259.89 470.482 1259.75 470.528Z" fill="white"/>
<path d="M1272.42 454.674C1271.15 455.016 1270.44 455.748 1271.05 456.074C1271.68 456.401 1273.56 456.105 1274.32 455.265C1274.8 454.565 1273.75 454.409 1272.78 454.596C1272.65 454.612 1272.51 454.658 1272.42 454.674Z" fill="white"/>
<path d="M1228.46 472.738L1228.53 472.831L1228.79 472.722L1228.67 472.645L1228.46 472.738Z" fill="white"/>
<path d="M1240.39 456.992L1240.72 457.225L1241.48 456.945L1241.12 456.696L1240.39 456.992Z" fill="white"/>
<path d="M1252.26 440.873L1252.73 441.215L1253.85 440.78L1253.33 440.406L1252.26 440.873Z" fill="white"/>
<path d="M1264.79 423.821C1263.92 424.054 1263.47 424.568 1263.91 424.801C1264.4 425.066 1265.73 424.801 1266.19 424.257C1266.5 423.743 1265.64 423.619 1264.91 423.79C1264.88 423.806 1264.84 423.821 1264.79 423.821Z" fill="white"/>
<path d="M1276.48 406.892C1275.43 407.188 1274.87 407.841 1275.4 408.137C1275.95 408.448 1277.57 408.215 1278.18 407.437C1278.57 406.783 1277.43 406.628 1276.48 406.892Z" fill="white"/>
<path d="M1255.07 391.785L1255.48 392.096L1256.33 391.738L1255.9 391.427L1255.07 391.785Z" fill="white"/>
<path d="M1266.56 374.094C1265.87 374.281 1265.54 374.686 1265.92 374.888C1266.36 375.137 1267.32 374.888 1267.63 374.452C1267.83 374.063 1267.21 373.923 1266.56 374.094Z" fill="white"/>
<path d="M1254.87 340.736L1255.1 340.907L1255.61 340.705L1255.34 340.503L1254.87 340.736Z" fill="white"/>
<path d="M1264.8 323.155L1265.24 323.481L1266.06 323.124C1266.06 323.108 1266.04 323.092 1266.04 323.077L1265.65 322.797L1264.8 323.155Z" fill="white"/>
</g>
</g>
<defs>
<filter id="filter0_f_29_3982" x="895.496" y="-435.593" width="1532.21" height="1080.58" filterUnits="userSpaceOnUse" color-interpolation-filters="sRGB">
<feFlood flood-opacity="0" result="BackgroundImageFix"/>
<feBlend mode="normal" in="SourceGraphic" in2="BackgroundImageFix" result="shape"/>
<feGaussianBlur stdDeviation="119.431" result="effect1_foregroundBlur_29_3982"/>
</filter>
<filter id="filter1_f_29_3982" x="-458.48" y="258.565" width="1321.33" height="1786.63" filterUnits="userSpaceOnUse" color-interpolation-filters="sRGB">
<feFlood flood-opacity="0" result="BackgroundImageFix"/>
<feBlend mode="normal" in="SourceGraphic" in2="BackgroundImageFix" result="shape"/>
<feGaussianBlur stdDeviation="119.431" result="effect1_foregroundBlur_29_3982"/>
</filter>
<clipPath id="clip0_29_3982">
<rect width="522.252" height="456.937" fill="white" transform="matrix(1 8.29765e-05 8.37885e-05 -1 2.61304 1023.57)"/>
</clipPath>
<clipPath id="clip1_29_3982">
<rect width="217" height="535" fill="white" transform="translate(1223 1)"/>
</clipPath>
</defs>
</svg>
