<svg width="3142" height="2482" viewBox="0 0 3142 2482" fill="none" xmlns="http://www.w3.org/2000/svg">
<g opacity="0.4">
<g style="mix-blend-mode:lighten" filter="url(#filter0_f_15_13950)">
<path d="M898.054 1091.82C836.442 1073.11 812.666 1065.37 771.714 1038.15C766.356 1031.99 753.253 1019.41 743.698 1018.31C731.754 1016.93 685.23 985.885 661.284 946.55C637.338 907.215 644.153 906.73 691.076 905.059C738 903.388 674.664 841.724 709.683 836.05C744.702 830.375 723.213 771.538 747.119 783.914C771.024 796.289 837.357 826.443 876.916 850.787C916.475 875.132 882.697 883.582 959.597 958.517C1036.5 1033.45 954.352 990.585 973.756 1006.98C993.159 1023.37 983.438 1047.85 995.033 1095.38C1006.63 1142.91 959.666 1110.54 898.054 1091.82Z" fill="#CC45A1"/>
</g>
<g style="mix-blend-mode:overlay" filter="url(#filter1_f_15_13950)">
<path d="M1114.74 989.987C1055.91 1019.62 1032.83 1030.87 982.807 1045.17C974.351 1046.1 955.491 1049.26 947.696 1054.51C937.951 1061.08 881.043 1077.29 834.521 1077.11C787.998 1076.93 792.62 1072.72 825.68 1044.34C858.74 1015.97 766.955 1030.95 788.361 1008.16C809.766 985.365 750.65 976.619 777.252 966.987C803.853 957.355 874.578 929.1 921.451 914.57C968.324 900.041 949.872 923.112 1061.36 904.94C1172.85 886.767 1081.19 919.741 1107.47 914.239C1133.74 908.737 1144.7 923.417 1188.24 933.894C1231.78 944.372 1173.58 960.355 1114.74 989.987Z" fill="#CC45B6"/>
</g>
<g style="mix-blend-mode:hard-light" filter="url(#filter2_f_15_13950)">
<path d="M809.282 1134.56C750.444 1164.19 727.364 1175.44 677.345 1189.74C668.889 1190.67 650.029 1193.83 642.234 1199.09C632.489 1205.65 575.582 1221.86 529.059 1221.68C482.536 1221.5 487.158 1217.29 520.218 1188.91C553.278 1160.54 461.493 1175.52 482.899 1152.73C504.304 1129.94 445.188 1121.19 471.79 1111.56C498.392 1101.93 569.117 1073.67 615.989 1059.14C662.862 1044.61 644.41 1067.68 755.899 1049.51C867.388 1031.34 775.727 1064.31 802.004 1058.81C828.281 1053.31 839.234 1067.99 882.778 1078.47C926.321 1088.94 868.12 1104.93 809.282 1134.56Z" fill="#CC45B6"/>
</g>
<g style="mix-blend-mode:screen" filter="url(#filter3_f_15_13950)">
<path d="M681.11 943.155C742.24 906.358 766.128 892.91 815.408 890.295C823.371 893.781 841.402 898.663 849.829 890.295C860.362 879.835 916.413 877.033 958.922 910.094C1001.43 943.155 996.165 951 958.922 1002.55C921.68 1054.1 1009.33 1078.95 984.127 1123.96C958.922 1168.98 1010.84 1233.42 984.127 1240.14C957.418 1246.87 885.754 1271.71 839.296 1277.13C792.837 1282.54 815.408 1234.73 708.948 1204.47C602.488 1174.21 694.465 1151.61 669.072 1147.68C643.68 1143.76 637.285 1097.44 600.042 1039.35C562.8 981.259 619.98 979.951 681.11 943.155Z" fill="#2D2681"/>
</g>
<g style="mix-blend-mode:screen" filter="url(#filter4_f_15_13950)">
<path d="M994.357 1219.96C932.746 1201.24 908.969 1193.51 868.017 1166.28C862.659 1160.13 849.556 1147.54 840.001 1146.44C828.057 1145.07 781.533 1114.02 757.587 1074.68C733.641 1035.35 740.456 1034.86 787.379 1033.19C834.303 1031.52 770.967 969.859 805.986 964.184C841.005 958.509 819.516 899.672 843.422 912.048C867.328 924.424 933.66 954.577 973.22 978.922C1012.78 1003.27 979 1011.72 1055.9 1086.65C1132.8 1161.59 1050.66 1118.72 1070.06 1135.11C1089.46 1151.51 1079.74 1175.98 1091.34 1223.51C1102.93 1271.05 1055.97 1238.68 994.357 1219.96Z" fill="#2D2681"/>
</g>
</g>
<rect x="714" y="436" width="1440" height="1024" fill="#0A091D"/>
<g style="mix-blend-mode:screen" filter="url(#filter5_f_15_13950)">
<path fill-rule="evenodd" clip-rule="evenodd" d="M2815.29 262.846C2832.13 290.509 2805.41 338.585 2747.65 395.56C2728.31 425.909 2694.44 461.714 2649.24 500.042C2774.94 442.26 2880.42 420.66 2899.75 452.419C2922.76 490.22 2815.01 589.305 2659.07 673.73C2503.14 758.155 2358.07 795.951 2335.06 758.149C2325.78 742.896 2337.78 717.664 2365.66 687.443C2118.25 819.924 1889.91 878.623 1853.33 818.545C1836.5 790.882 1863.22 742.805 1920.97 685.83C1969.86 609.133 2111.52 497.575 2294.4 398.56C2545.09 262.836 2778.3 202.075 2815.29 262.846Z" fill="#0EB657" fill-opacity="0.7"/>
</g>
<g style="mix-blend-mode:screen" opacity="0.4" filter="url(#filter6_f_15_13950)">
<path fill-rule="evenodd" clip-rule="evenodd" d="M700.012 934.62C747.233 943.272 789.13 997.904 820.061 1081.1C840.463 1111.07 858.478 1150.84 873.294 1197.89L867.42 933.867L1097.8 1445.28L916.463 1468.5C917.329 1490.33 917.671 1512.54 917.456 1535.03L1145.89 1621.96L1088.86 1781.57L910.509 1659.3C886.865 1885.76 806.47 2044.66 715.664 2028.03C668.443 2019.38 626.547 1964.74 595.616 1881.55C533.266 1789.96 493.204 1606.85 498.653 1403.9C498.89 1395.07 499.21 1386.31 499.612 1377.62L494.382 1374.03L499.685 1376.05C512.205 1111.84 599.765 916.253 700.012 934.62ZM1123.27 2048.45C1109.39 1992.66 1102.06 1924.49 1104 1852.28C1108.65 1679.24 1164.72 1548.55 1229.25 1560.37C1293.78 1572.19 1342.33 1722.05 1337.68 1895.09C1333.04 2068.13 1276.96 2198.83 1212.43 2187C1183.56 2181.72 1157.9 2148.81 1138.76 2098.56L1004.34 2242.33L1123.27 2048.45Z" fill="#CC3663"/>
</g>
<g style="mix-blend-mode:overlay" opacity="0.6" clip-path="url(#clip0_15_13950)">
<path d="M768.091 1068.14C766.862 1067.85 766.167 1067.27 766.737 1067.02C767.379 1066.73 769.16 1067.05 769.873 1067.68C770.301 1068.17 769.57 1068.36 768.626 1068.24C768.448 1068.21 768.269 1068.18 768.091 1068.14Z" fill="white"/>
<path d="M782.593 1083.45C781.204 1083.12 780.384 1082.41 781.061 1082.09C781.738 1081.79 783.894 1082.08 784.731 1082.88C785.23 1083.5 784.232 1083.73 783.003 1083.53C782.878 1083.51 782.718 1083.48 782.593 1083.45Z" fill="white"/>
<path d="M796.543 1099.15C794.832 1098.74 793.87 1097.88 794.726 1097.49C795.67 1097.06 798.182 1097.49 799.109 1098.42C799.714 1099.21 798.503 1099.48 797.042 1099.26C796.899 1099.23 796.703 1099.2 796.543 1099.15Z" fill="white"/>
<path d="M810.011 1115.15C808.051 1114.69 806.947 1113.62 807.945 1113.15C809.032 1112.62 812.025 1113.14 813.058 1114.26C813.753 1115.24 812.114 1115.57 810.279 1115.21C810.207 1115.21 810.1 1115.18 810.011 1115.15Z" fill="white"/>
<path d="M822.981 1131.36C820.754 1130.83 819.614 1129.68 820.754 1129.12C821.984 1128.5 825.208 1129.06 826.349 1130.35C827.115 1131.46 825.101 1131.87 822.981 1131.36Z" fill="white"/>
<path d="M835.452 1147.83C833.029 1147.24 831.746 1145.9 832.993 1145.25C834.365 1144.56 838.053 1145.16 839.283 1146.62C840.209 1147.99 837.626 1148.34 835.452 1147.83Z" fill="white"/>
<path d="M847.441 1164.4C844.787 1163.78 843.451 1162.31 844.876 1161.6C846.284 1160.89 850.239 1161.36 851.629 1163.05C852.573 1164.6 849.74 1164.93 847.441 1164.4Z" fill="white"/>
<path d="M858.986 1181.11C856.153 1180.41 854.763 1178.84 856.296 1178.05C857.935 1177.19 862.158 1177.89 863.511 1179.61C864.42 1181.17 861.73 1181.77 858.986 1181.11Z" fill="white"/>
<path d="M870.031 1197.94C866.966 1197.2 865.47 1195.43 867.145 1194.55C868.837 1193.67 873.434 1194.19 874.966 1196.23C875.928 1197.95 873.006 1198.65 870.031 1197.94Z" fill="white"/>
<path d="M880.631 1214.78C877.441 1214.01 875.874 1212.12 877.673 1211.17C879.616 1210.14 884.462 1210.93 885.923 1212.94C886.885 1214.77 883.766 1215.52 880.631 1214.78Z" fill="white"/>
<path d="M890.768 1231.69C887.151 1230.81 885.619 1228.6 887.953 1227.64C890.233 1226.68 895.026 1227.58 896.487 1229.68C897.538 1231.79 893.779 1232.41 890.768 1231.69Z" fill="white"/>
<path d="M900.423 1248.58C896.77 1247.69 895.078 1245.48 897.198 1244.36C899.532 1243.12 904.949 1244 906.534 1246.37C907.55 1248.53 903.95 1249.46 900.423 1248.58Z" fill="white"/>
<path d="M909.669 1265.42C905.66 1264.42 904.056 1261.94 906.729 1260.84C909.081 1259.86 914.515 1260.58 916.119 1263.11C917.116 1265.38 913.339 1266.33 909.669 1265.42Z" fill="white"/>
<path d="M918.433 1282.27C914.175 1281.21 912.554 1278.56 915.423 1277.37C917.935 1276.33 923.601 1277.04 925.293 1279.8C926.326 1282.27 922.317 1283.24 918.433 1282.27Z" fill="white"/>
<path d="M926.752 1299.01C922.494 1297.92 920.837 1295.11 923.742 1293.9C926.379 1292.81 932.276 1293.62 933.933 1296.45C934.984 1299.14 930.351 1299.91 926.752 1299.01Z" fill="white"/>
<path d="M934.609 1315.73C930.101 1314.54 928.444 1311.6 931.545 1310.32C934.591 1309.06 940.596 1310.26 942.163 1313.06C943.143 1315.73 938.742 1316.84 934.609 1315.73Z" fill="white"/>
<path d="M942.019 1332.35C937.333 1331.06 935.676 1327.98 938.955 1326.65C941.895 1325.47 948.309 1326.45 949.984 1329.6C950.928 1332.41 946.295 1333.53 942.019 1332.35Z" fill="white"/>
<path d="M948.966 1348.85C944.191 1347.48 942.552 1344.29 945.956 1342.95C949.305 1341.62 955.595 1342.95 957.145 1346.06C958.089 1349.03 953.367 1350.09 948.966 1348.85Z" fill="white"/>
<path d="M955.433 1365.27C950.515 1363.8 948.912 1360.44 952.458 1359.08C955.629 1357.86 962.329 1358.95 963.985 1362.46C964.947 1365.81 959.459 1366.46 955.433 1365.27Z" fill="white"/>
<path d="M961.436 1381.52C956.483 1379.95 954.915 1376.5 958.55 1375.16C961.811 1373.95 968.599 1375.14 970.202 1378.79C971.022 1381.98 965.979 1382.97 961.436 1381.52Z" fill="white"/>
<path d="M966.922 1397.72C961.88 1396.01 960.348 1392.41 964.09 1391.08C967.475 1389.88 974.442 1391.23 975.974 1395.03C976.775 1398.34 971.554 1399.29 966.922 1397.72Z" fill="white"/>
<path d="M971.91 1413.77C966.814 1411.91 965.336 1408.16 969.202 1406.88C972.694 1405.72 979.768 1407.24 981.246 1411.2C981.994 1414.89 976.097 1415.32 971.91 1413.77Z" fill="white"/>
<path d="M976.38 1429.67C971.196 1427.61 969.824 1423.84 973.833 1422.59C977.397 1421.47 984.505 1423.21 985.895 1427.29C986.5 1430.79 981.084 1431.53 976.38 1429.67Z" fill="white"/>
<path d="M980.317 1445.45C975.132 1443.2 973.832 1439.28 977.912 1438.12C981.565 1437.08 988.727 1439.06 990.027 1443.28C990.526 1446.87 985.02 1447.49 980.317 1445.45Z" fill="white"/>
<path d="M983.701 1461.07C978.57 1458.61 977.394 1454.62 981.51 1453.56C985.626 1452.5 992.45 1455.15 993.518 1459.2C993.91 1462.92 988.458 1463.34 983.701 1461.07Z" fill="white"/>
<path d="M760.481 1097.5C758.753 1097.09 757.773 1096.21 758.646 1095.8C759.59 1095.37 762.209 1095.81 763.136 1096.74C763.795 1097.59 762.316 1097.8 760.962 1097.59C760.802 1097.57 760.624 1097.53 760.481 1097.5Z" fill="white"/>
<path d="M774.145 1113.66C772.096 1113.18 770.992 1112.12 772.025 1111.64C773.077 1111.17 776.105 1111.55 777.264 1112.76C778.047 1113.81 776.07 1114.04 774.43 1113.72C774.341 1113.71 774.235 1113.68 774.145 1113.66Z" fill="white"/>
<path d="M787.347 1130.04C785.102 1129.51 783.926 1128.35 785.084 1127.77C786.313 1127.17 789.681 1127.74 790.839 1129.03C791.623 1130.13 789.485 1130.55 787.347 1130.04Z" fill="white"/>
<path d="M800.013 1146.66C797.537 1146.07 796.236 1144.71 797.519 1144.06C798.944 1143.35 802.722 1143.98 803.987 1145.45C804.913 1146.86 802.258 1147.19 800.013 1146.66Z" fill="white"/>
<path d="M812.288 1163.41C809.616 1162.78 808.244 1161.28 809.669 1160.57C811.095 1159.87 815.21 1160.37 816.618 1162.07C817.58 1163.61 814.676 1163.97 812.288 1163.41Z" fill="white"/>
<path d="M824.081 1180.27C821.177 1179.56 819.752 1177.97 821.32 1177.19C823.013 1176.34 827.378 1177.07 828.732 1178.79C829.676 1180.38 826.914 1180.97 824.081 1180.27Z" fill="white"/>
<path d="M835.412 1197.25C832.294 1196.5 830.762 1194.71 832.473 1193.84C834.343 1192.88 839.083 1193.67 840.561 1195.58C841.523 1197.33 838.477 1198.01 835.412 1197.25Z" fill="white"/>
<path d="M846.297 1214.22C843.001 1213.42 841.415 1211.51 843.251 1210.58C845.246 1209.55 850.253 1210.38 851.767 1212.42C852.765 1214.27 849.522 1215.01 846.297 1214.22Z" fill="white"/>
<path d="M856.754 1231.23C853.262 1230.38 851.587 1228.31 853.547 1227.28C855.703 1226.15 861.049 1227.04 862.634 1229.27C863.739 1231.4 859.854 1231.97 856.754 1231.23Z" fill="white"/>
<path d="M866.73 1248.2C862.971 1247.27 861.225 1245.05 863.399 1243.96C865.769 1242.77 871.488 1243.69 873.109 1246.05C874.16 1248.21 870.401 1249.09 866.73 1248.2Z" fill="white"/>
<path d="M876.332 1265.07C872.43 1264.12 870.667 1261.79 872.947 1260.63C875.424 1259.36 881.357 1260.33 882.996 1262.82C884.047 1265.09 880.127 1266.01 876.332 1265.07Z" fill="white"/>
<path d="M885.472 1281.92C881.392 1280.9 879.557 1278.42 881.98 1277.18C884.617 1275.82 890.906 1276.87 892.599 1279.53C893.668 1281.92 889.48 1282.92 885.472 1281.92Z" fill="white"/>
<path d="M894.2 1298.6C889.96 1297.54 888.125 1294.97 890.673 1293.67C893.453 1292.26 899.902 1293.33 901.613 1296.1C902.771 1298.87 897.906 1299.52 894.2 1298.6Z" fill="white"/>
<path d="M902.502 1315.21C898.048 1314.06 896.195 1311.39 898.885 1310.01C901.825 1308.52 908.596 1309.68 910.342 1312.61C911.393 1315.26 906.814 1316.32 902.502 1315.21Z" fill="white"/>
<path d="M910.358 1331.67C905.672 1330.43 903.784 1327.63 906.688 1326.21C909.574 1324.79 916.683 1325.65 918.572 1328.98C919.605 1331.76 914.83 1332.85 910.358 1331.67Z" fill="white"/>
<path d="M917.804 1347.92C913.047 1346.64 911.176 1343.73 914.17 1342.3C917.395 1340.74 924.611 1342.05 926.321 1345.2C927.39 1348.28 921.92 1349.06 917.804 1347.92Z" fill="white"/>
<path d="M924.752 1364.05C919.923 1362.71 917.999 1359.62 921.082 1358.17C924.218 1356.69 931.754 1357.72 933.625 1361.32C934.729 1364.6 928.992 1365.23 924.752 1364.05Z" fill="white"/>
<path d="M931.325 1379.96C926.372 1378.51 924.519 1375.4 927.726 1373.93C931.219 1372.33 938.809 1373.87 940.483 1377.29C941.445 1380.54 935.636 1381.22 931.325 1379.96Z" fill="white"/>
<path d="M937.399 1395.72C932.304 1394.15 930.451 1390.91 933.819 1389.44C937.543 1387.81 945.186 1389.47 946.861 1393.07C947.751 1396.29 942.317 1397.23 937.399 1395.72Z" fill="white"/>
<path d="M943.046 1411.26C937.861 1409.55 936.044 1406.23 939.519 1404.78C943.029 1403.32 951.064 1404.75 952.792 1408.72C953.683 1412.29 947.482 1412.73 943.046 1411.26Z" fill="white"/>
<path d="M948.212 1426.56C943.009 1424.75 941.263 1421.35 944.791 1419.94C948.747 1418.38 956.604 1420.4 958.154 1424.22C958.902 1427.56 953.218 1428.32 948.212 1426.56Z" fill="white"/>
<path d="M952.861 1441.67C947.64 1439.69 945.93 1436.18 949.547 1434.84C953.236 1433.48 961.449 1435.31 963.017 1439.51C963.711 1442.96 957.903 1443.59 952.861 1441.67Z" fill="white"/>
<path d="M957.064 1456.53C951.755 1454.34 950.169 1450.82 953.911 1449.55C958.062 1448.14 966.009 1450.62 967.38 1454.64C967.932 1458.14 962.07 1458.61 957.064 1456.53Z" fill="white"/>
<path d="M763.916 1144.84C762.383 1144.48 761.617 1143.69 762.419 1143.3C763.274 1142.89 765.537 1143.27 766.303 1144.13C766.873 1144.99 765.252 1145.16 763.916 1144.84Z" fill="white"/>
<path d="M776.404 1161.75C774.605 1161.32 773.714 1160.36 774.658 1159.9C775.603 1159.45 778.364 1159.8 779.291 1160.9C779.914 1161.9 777.99 1162.12 776.404 1161.75Z" fill="white"/>
<path d="M788.483 1178.76C786.523 1178.27 785.525 1177.17 786.576 1176.64C787.628 1176.11 790.674 1176.49 791.69 1177.76C792.313 1178.82 790.389 1179.21 788.483 1178.76Z" fill="white"/>
<path d="M800.063 1195.85C797.782 1195.29 796.678 1194.05 797.925 1193.43C799.279 1192.76 802.718 1193.32 803.769 1194.68C804.535 1196 802.076 1196.33 800.063 1195.85Z" fill="white"/>
<path d="M811.233 1212.92C808.809 1212.33 807.634 1210.94 808.97 1210.26C810.449 1209.51 814.155 1210.13 815.277 1211.62C816.079 1213.08 813.406 1213.45 811.233 1212.92Z" fill="white"/>
<path d="M821.975 1230.02C819.249 1229.35 817.984 1227.83 819.535 1227.06C821.192 1226.22 825.325 1226.9 826.554 1228.57C827.303 1230.05 824.559 1230.65 821.975 1230.02Z" fill="white"/>
<path d="M832.29 1247.08C829.35 1246.35 827.978 1244.64 829.671 1243.82C831.524 1242.92 835.996 1243.66 837.297 1245.46C838.17 1247.24 834.891 1247.71 832.29 1247.08Z" fill="white"/>
<path d="M842.195 1264C839.005 1263.22 837.616 1261.44 839.487 1260.53C841.464 1259.57 846.239 1260.34 847.576 1262.27C848.413 1264.03 845.259 1264.74 842.195 1264Z" fill="white"/>
<path d="M851.672 1280.84C848.34 1280.04 846.862 1278.07 848.822 1277.11C850.978 1276.03 856.091 1276.88 857.516 1279C858.443 1281.02 854.648 1281.57 851.672 1280.84Z" fill="white"/>
<path d="M860.775 1297.49C857.283 1296.63 855.733 1294.57 857.854 1293.56C860.152 1292.44 865.533 1293.33 866.958 1295.54C867.902 1297.69 863.875 1298.26 860.775 1297.49Z" fill="white"/>
<path d="M869.469 1314.05C865.71 1313.11 864.142 1310.93 866.423 1309.84C868.864 1308.65 874.583 1309.6 876.062 1311.98C877.023 1314.27 872.747 1314.88 869.469 1314.05Z" fill="white"/>
<path d="M877.753 1330.35C873.886 1329.36 872.265 1327.08 874.653 1325.98C877.023 1324.87 883.098 1325.6 884.684 1328.23C885.646 1330.61 881.173 1331.21 877.753 1330.35Z" fill="white"/>
<path d="M885.662 1346.44C881.689 1345.41 880.05 1343.03 882.526 1341.9C885.253 1340.66 891.364 1341.73 892.842 1344.27C893.804 1346.74 889.19 1347.34 885.662 1346.44Z" fill="white"/>
<path d="M893.126 1362.33C888.939 1361.21 887.3 1358.76 889.937 1357.57C892.788 1356.26 899.184 1357.43 900.699 1360.12C901.643 1362.71 896.796 1363.31 893.126 1362.33Z" fill="white"/>
<path d="M900.18 1377.99C895.797 1376.78 894.123 1374.21 896.938 1373C899.967 1371.67 906.649 1372.96 908.181 1375.77C909.107 1378.46 903.993 1379.04 900.18 1377.99Z" fill="white"/>
<path d="M906.861 1393.36C902.406 1392.09 900.75 1389.46 903.636 1388.25C906.772 1386.92 913.578 1388.29 915.075 1391.18C916.001 1394.02 910.727 1394.46 906.861 1393.36Z" fill="white"/>
<path d="M913.078 1408.49C908.445 1407.12 906.771 1404.38 909.835 1403.17C912.918 1401.96 920.08 1403.11 921.683 1406.38C922.556 1409.29 917.051 1409.67 913.078 1408.49Z" fill="white"/>
<path d="M918.885 1423.31C914.235 1421.83 912.596 1419.03 915.696 1417.87C918.85 1416.69 926.083 1417.96 927.687 1421.32C928.453 1424.1 923.41 1424.75 918.885 1423.31Z" fill="white"/>
<path d="M924.229 1437.87C919.472 1436.27 917.833 1433.37 921.058 1432.25C924.675 1430.98 931.891 1432.78 933.351 1436.01C934.082 1438.87 928.843 1439.43 924.229 1437.87Z" fill="white"/>
<path d="M929.109 1452.12C924.281 1450.38 922.678 1447.4 926.01 1446.33C929.751 1445.12 937.11 1447.13 938.499 1450.47C939.158 1453.36 933.795 1453.81 929.109 1452.12Z" fill="white"/>
<path d="M933.563 1466.01C928.627 1464.11 927.131 1461.13 930.588 1460.12C934.401 1459 941.812 1461.22 943.131 1464.62C943.683 1467.54 938.248 1467.83 933.563 1466.01Z" fill="white"/>
<path d="M751.94 1177.08C750.871 1176.83 750.336 1176.26 750.942 1175.99C751.53 1175.72 753.134 1175.91 753.668 1176.58C753.989 1177.12 752.973 1177.32 751.94 1177.08Z" fill="white"/>
<path d="M763.787 1194.24C762.522 1193.94 761.88 1193.23 762.593 1192.89C763.377 1192.53 765.284 1192.85 765.871 1193.59C766.299 1194.35 764.909 1194.51 763.787 1194.24Z" fill="white"/>
<path d="M775.206 1211.45C773.656 1211.07 772.908 1210.22 773.781 1209.8C774.708 1209.33 777.077 1209.72 777.808 1210.66C778.271 1211.48 776.703 1211.8 775.206 1211.45Z" fill="white"/>
<path d="M786.234 1228.58C784.47 1228.16 783.633 1227.17 784.648 1226.69C785.646 1226.21 788.337 1226.52 789.192 1227.67C789.69 1228.63 787.944 1228.99 786.234 1228.58Z" fill="white"/>
<path d="M796.833 1245.71C794.802 1245.23 793.858 1244.09 795.052 1243.53C796.335 1242.95 799.417 1243.44 800.308 1244.65C800.86 1245.76 798.829 1246.18 796.833 1245.71Z" fill="white"/>
<path d="M807.077 1262.68C804.903 1262.16 803.87 1260.89 805.153 1260.29C806.418 1259.68 809.839 1260.09 810.854 1261.53C811.513 1262.84 809.019 1263.15 807.077 1262.68Z" fill="white"/>
<path d="M816.875 1279.55C814.363 1278.95 813.294 1277.57 814.773 1276.88C816.234 1276.18 820.011 1276.62 821.134 1278.25C821.811 1279.69 819.049 1280.07 816.875 1279.55Z" fill="white"/>
<path d="M826.299 1296.25C823.609 1295.6 822.415 1294.05 824.019 1293.3C825.783 1292.47 829.934 1293.15 831.039 1294.81C831.769 1296.4 828.704 1296.82 826.299 1296.25Z" fill="white"/>
<path d="M835.384 1312.71C832.427 1312 831.197 1310.37 832.997 1309.55C834.904 1308.68 839.34 1309.42 840.498 1311.19C841.246 1312.9 837.932 1313.33 835.384 1312.71Z" fill="white"/>
<path d="M844.042 1328.98C840.924 1328.23 839.624 1326.44 841.53 1325.6C843.615 1324.66 848.39 1325.46 849.601 1327.37C850.367 1329.18 846.786 1329.65 844.042 1328.98Z" fill="white"/>
<path d="M852.344 1344.94C849.065 1344.12 847.712 1342.26 849.743 1341.38C851.81 1340.51 856.852 1341.1 858.188 1343.26C858.972 1345.18 855.212 1345.65 852.344 1344.94Z" fill="white"/>
<path d="M860.254 1360.66C856.726 1359.77 855.336 1357.82 857.546 1356.88C859.915 1355.87 865.278 1356.81 866.561 1358.92C867.309 1360.83 863.639 1361.52 860.254 1360.66Z" fill="white"/>
<path d="M867.789 1376.06C864.101 1375.12 862.676 1373.09 865.045 1372.12C867.38 1371.17 872.992 1371.91 874.399 1374.3C875.148 1376.33 871.335 1376.96 867.789 1376.06Z" fill="white"/>
<path d="M874.95 1391.18C871.066 1390.15 869.623 1388.03 872.118 1387.05C874.79 1385.99 880.634 1387.09 881.97 1389.41C882.79 1391.69 878.282 1392.05 874.95 1391.18Z" fill="white"/>
<path d="M881.701 1405.97C877.924 1404.92 876.339 1402.87 878.495 1401.81C881.132 1400.51 887.706 1401.69 889.114 1404.23C889.862 1406.42 885.586 1407.02 881.701 1405.97Z" fill="white"/>
<path d="M888.061 1420.36C884.195 1419.26 882.592 1417.14 884.837 1416.1C887.599 1414.81 894.369 1416.11 895.776 1418.73C896.507 1420.95 892.07 1421.49 888.061 1420.36Z" fill="white"/>
<path d="M894.047 1434.45C890.056 1433.24 888.417 1431.05 890.769 1430.01C893.655 1428.72 900.675 1430.17 902.082 1432.88C902.777 1435.19 898.18 1435.69 894.047 1434.45Z" fill="white"/>
<path d="M899.604 1448.12C895.524 1446.82 893.903 1444.58 896.344 1443.59C899.427 1442.33 906.482 1443.9 907.889 1446.72C908.548 1449.06 903.809 1449.45 899.604 1448.12Z" fill="white"/>
<path d="M904.735 1461.43C900.583 1460.02 898.98 1457.71 901.492 1456.76C904.682 1455.53 911.933 1457.3 913.305 1460.22C913.928 1462.59 909.029 1462.88 904.735 1461.43Z" fill="white"/>
<path d="M739.144 1209.51L739.18 1209.52L739.126 1209.57C739.144 1209.54 739.144 1209.52 739.144 1209.51Z" fill="white"/>
<path d="M749.566 1227.03C748.746 1226.84 748.354 1226.38 748.818 1226.16C749.281 1225.93 750.528 1226.08 750.92 1226.63C751.17 1227.06 750.368 1227.22 749.566 1227.03Z" fill="white"/>
<path d="M760.433 1244.21C759.293 1243.94 758.776 1243.33 759.453 1243.05C760.166 1242.75 761.859 1243.02 762.322 1243.65C762.66 1244.29 761.413 1244.44 760.433 1244.21Z" fill="white"/>
<path d="M770.944 1261.22C769.625 1260.91 769.038 1260.19 769.804 1259.83C770.641 1259.45 772.619 1259.79 773.189 1260.56C773.527 1261.27 772.227 1261.53 770.944 1261.22Z" fill="white"/>
<path d="M781.045 1278.13C779.406 1277.75 778.711 1276.87 779.673 1276.45C780.635 1276.03 783.094 1276.31 783.825 1277.34C784.27 1278.23 782.453 1278.46 781.045 1278.13Z" fill="white"/>
<path d="M790.807 1294.79C789.026 1294.37 788.242 1293.39 789.311 1292.9C790.469 1292.37 793.177 1292.83 793.925 1293.89C794.406 1294.94 792.375 1295.17 790.807 1294.79Z" fill="white"/>
<path d="M800.195 1311.29C798.146 1310.79 797.256 1309.66 798.485 1309.11C799.821 1308.52 802.975 1309.04 803.795 1310.25C804.347 1311.44 802.013 1311.73 800.195 1311.29Z" fill="white"/>
<path d="M809.21 1327.5C806.858 1326.92 805.896 1325.68 807.322 1325.06C808.889 1324.4 812.364 1324.97 813.29 1326.35C813.825 1327.59 811.437 1328.04 809.21 1327.5Z" fill="white"/>
<path d="M817.849 1343.38C815.409 1342.79 814.375 1341.43 815.89 1340.79C817.547 1340.08 821.36 1340.7 822.322 1342.17C822.945 1343.59 820.059 1343.92 817.849 1343.38Z" fill="white"/>
<path d="M826.187 1358.94C823.71 1358.33 822.552 1357 823.906 1356.29C825.581 1355.4 829.929 1356.06 830.98 1357.68C831.603 1359.16 828.521 1359.51 826.187 1358.94Z" fill="white"/>
<path d="M834.132 1374.19C831.459 1373.54 830.23 1372.09 831.691 1371.32C833.526 1370.37 838.284 1371.11 839.406 1372.88C840.065 1374.48 836.68 1374.81 834.132 1374.19Z" fill="white"/>
<path d="M841.757 1389.04C838.87 1388.32 837.605 1386.83 839.227 1386.03C841.187 1385.07 846.193 1385.87 847.334 1387.71C847.993 1389.38 844.429 1389.71 841.757 1389.04Z" fill="white"/>
<path d="M849.007 1403.54C845.978 1402.77 844.642 1401.17 846.353 1400.37C848.473 1399.37 853.854 1400.26 855.047 1402.2C855.706 1403.97 851.876 1404.28 849.007 1403.54Z" fill="white"/>
<path d="M855.919 1417.64C852.712 1416.79 851.358 1415.16 853.194 1414.34C855.439 1413.34 861.015 1414.32 862.227 1416.32C862.886 1418.14 858.877 1418.41 855.919 1417.64Z" fill="white"/>
<path d="M862.457 1431.31C859.09 1430.37 857.682 1428.66 859.642 1427.84C862.047 1426.84 867.963 1427.93 869.192 1430.04C869.798 1431.82 865.913 1432.26 862.457 1431.31Z" fill="white"/>
<path d="M868.603 1444.55C865.057 1443.54 863.614 1441.75 865.699 1440.95C868.3 1439.94 874.429 1441.15 875.694 1443.37C876.3 1445.2 872.22 1445.56 868.603 1444.55Z" fill="white"/>
<path d="M874.392 1457.3C870.776 1456.21 869.333 1454.39 871.489 1453.62C874.197 1452.66 880.433 1454 881.698 1456.27C882.303 1458.16 878.116 1458.42 874.392 1457.3Z" fill="white"/>
<path d="M733.599 1259.41L733.884 1259.22L734.454 1259.42L734.116 1259.59L733.599 1259.41Z" fill="white"/>
<path d="M743.682 1276.17L744.252 1275.83L745.321 1276.22L744.698 1276.54L743.682 1276.17Z" fill="white"/>
<path d="M754.3 1293.22C753.48 1293.04 753.071 1292.58 753.498 1292.34C754.015 1292.05 755.512 1292.26 755.886 1292.79C756.135 1293.34 754.995 1293.38 754.3 1293.22Z" fill="white"/>
<path d="M764.009 1309.67C762.94 1309.4 762.477 1308.82 763.1 1308.53C763.795 1308.22 765.47 1308.5 765.915 1309.14C766.218 1309.76 764.953 1309.91 764.009 1309.67Z" fill="white"/>
<path d="M773.326 1325.85C772.025 1325.55 771.402 1324.88 772.114 1324.52C772.881 1324.11 775.197 1324.35 775.785 1325.21C776.105 1325.91 774.644 1326.17 773.326 1325.85Z" fill="white"/>
<path d="M782.358 1341.68C780.897 1341.33 780.202 1340.56 780.986 1340.17C781.948 1339.67 784.514 1340.03 785.137 1340.95C785.547 1341.82 783.748 1342.01 782.358 1341.68Z" fill="white"/>
<path d="M790.998 1357.19C789.27 1356.79 788.468 1355.89 789.412 1355.43C790.57 1354.85 793.582 1355.29 794.312 1356.36C794.775 1357.35 792.637 1357.57 790.998 1357.19Z" fill="white"/>
<path d="M799.353 1372.3C797.393 1371.83 796.503 1370.85 797.572 1370.32C798.872 1369.67 802.311 1370.18 803.131 1371.41C803.612 1372.53 801.188 1372.75 799.353 1372.3Z" fill="white"/>
<path d="M807.387 1386.98C805.267 1386.47 804.341 1385.42 805.499 1384.87C806.924 1384.17 810.612 1384.75 811.485 1386.05C811.984 1387.22 809.365 1387.47 807.387 1386.98Z" fill="white"/>
<path d="M815.065 1401.27C812.731 1400.7 811.68 1399.55 812.999 1398.96C814.62 1398.25 818.736 1398.9 819.68 1400.29C820.197 1401.57 817.257 1401.8 815.065 1401.27Z" fill="white"/>
<path d="M822.441 1415.08C819.875 1414.44 818.806 1413.26 820.267 1412.64C822.049 1411.9 826.378 1412.6 827.358 1414.1C827.875 1415.35 825.024 1415.71 822.441 1415.08Z" fill="white"/>
<path d="M829.477 1428.41C826.894 1427.76 825.7 1426.57 826.965 1425.9C828.694 1425.01 833.754 1425.78 834.858 1427.43C835.375 1428.79 832.274 1429.13 829.477 1428.41Z" fill="white"/>
<path d="M836.211 1441.25C833.539 1440.56 832.309 1439.33 833.61 1438.67C835.428 1437.76 840.737 1438.62 841.842 1440.35C842.412 1441.8 838.83 1441.93 836.211 1441.25Z" fill="white"/>
<path d="M842.535 1453.58C839.702 1452.82 838.384 1451.53 839.792 1450.88C841.77 1449.96 847.453 1450.96 848.629 1452.78C849.235 1454.32 845.35 1454.33 842.535 1453.58Z" fill="white"/>
<path d="M716.705 1291.47L716.884 1291.4L717.169 1291.49L716.991 1291.58L716.705 1291.47Z" fill="white"/>
<path d="M726.753 1307.81L726.914 1307.71L727.199 1307.82L727.038 1307.91L726.753 1307.81Z" fill="white"/>
<path d="M736.088 1323.83L736.551 1323.59L737.335 1323.88L736.854 1324.12L736.088 1323.83Z" fill="white"/>
<path d="M745.138 1339.5L745.869 1339.15L746.991 1339.56L746.332 1339.92L745.138 1339.5Z" fill="white"/>
<path d="M754.865 1355.27C754.063 1355.07 753.689 1354.68 754.116 1354.47C754.651 1354.21 756.058 1354.42 756.415 1354.91C756.611 1355.33 755.72 1355.47 754.865 1355.27Z" fill="white"/>
<path d="M763.523 1370.3C762.436 1370.06 761.937 1369.53 762.525 1369.26C763.202 1368.94 765.091 1369.14 765.572 1369.85C765.839 1370.39 764.645 1370.56 763.523 1370.3Z" fill="white"/>
<path d="M771.931 1384.86C770.702 1384.59 770.132 1383.97 770.791 1383.65C771.646 1383.26 773.856 1383.59 774.372 1384.33C774.693 1385.01 773.107 1385.12 771.931 1384.86Z" fill="white"/>
<path d="M780.001 1398.97C778.487 1398.62 777.828 1397.93 778.647 1397.56C779.699 1397.11 782.3 1397.5 782.923 1398.38C783.244 1399.09 781.551 1399.32 780.001 1398.97Z" fill="white"/>
<path d="M787.786 1412.6C786.13 1412.2 785.346 1411.46 786.13 1411.04C787.217 1410.46 790.495 1410.92 791.225 1411.96C791.582 1412.79 789.604 1413.02 787.786 1412.6Z" fill="white"/>
<path d="M795.286 1425.64C793.451 1425.21 792.578 1424.42 793.469 1423.98C794.663 1423.38 798.262 1423.91 799.028 1424.99C799.437 1425.9 797.282 1426.11 795.286 1425.64Z" fill="white"/>
<path d="M802.465 1438.18C800.434 1437.7 799.472 1436.83 800.47 1436.35C801.824 1435.72 805.851 1436.32 806.724 1437.53C807.169 1438.57 804.461 1438.66 802.465 1438.18Z" fill="white"/>
<path d="M809.396 1450.07C807.186 1449.52 806.189 1448.66 807.275 1448.19C808.737 1447.57 813.03 1448.25 813.939 1449.51C814.384 1450.5 811.783 1450.64 809.396 1450.07Z" fill="white"/>
<path d="M816.183 1461.16C813.956 1460.6 812.833 1459.74 813.706 1459.27C815.06 1458.56 820.12 1459.34 821.136 1460.7C821.67 1461.8 818.499 1461.74 816.183 1461.16Z" fill="white"/>
<path d="M726.516 1368.08L726.712 1367.95L727.14 1368.11L726.873 1368.2L726.516 1368.08Z" fill="white"/>
<path d="M734.978 1382.41L735.459 1382.21L736.208 1382.47L735.745 1382.67L734.978 1382.41Z" fill="white"/>
<path d="M743.85 1396.62C743.191 1396.47 742.906 1396.19 743.262 1396.02C743.725 1395.81 744.919 1396.03 745.186 1396.38C745.329 1396.68 744.545 1396.78 743.85 1396.62Z" fill="white"/>
<path d="M752.045 1410.05C751.208 1409.85 750.798 1409.51 751.208 1409.31C751.689 1409.07 753.346 1409.24 753.72 1409.75C753.916 1410.16 752.936 1410.26 752.045 1410.05Z" fill="white"/>
<path d="M759.919 1422.93C758.868 1422.69 758.369 1422.25 758.868 1422C759.545 1421.68 761.683 1421.97 762.129 1422.57C762.378 1423.12 760.97 1423.18 759.919 1422.93Z" fill="white"/>
<path d="M767.508 1435.23C766.332 1434.96 765.531 1434.44 766.208 1434.12C767.063 1433.75 769.646 1434.11 770.199 1434.84C770.502 1435.41 768.934 1435.55 767.508 1435.23Z" fill="white"/>
<path d="M774.973 1446.72C773.601 1446.4 772.906 1445.89 773.423 1445.59C774.225 1445.13 777.36 1445.54 778.02 1446.37C778.358 1447.04 776.434 1447.05 774.973 1446.72Z" fill="white"/>
<path d="M782.312 1457.4C780.709 1457.03 779.872 1456.46 780.513 1456.17C781.493 1455.72 785.039 1456.22 785.787 1457.09C786.197 1457.81 783.952 1457.77 782.312 1457.4Z" fill="white"/>
<path d="M731.019 1431.96L731.536 1431.78L732.409 1432.07L731.839 1432.23L731.019 1431.96Z" fill="white"/>
<path d="M739.41 1443.38C738.786 1443.24 738.555 1443.03 738.751 1442.92C739.054 1442.76 740.426 1442.89 740.729 1443.26C740.889 1443.5 740.051 1443.5 739.41 1443.38Z" fill="white"/>
<path d="M747.248 1453.69C746.464 1453.52 746.037 1453.24 746.322 1453.1C746.767 1452.87 748.62 1453.13 749.03 1453.55C749.28 1453.92 747.997 1453.86 747.248 1453.69Z" fill="white"/>
<path d="M721.806 1026.2L722.073 1026.07L722.75 1026.28L722.5 1026.41L721.806 1026.2Z" fill="white"/>
<path d="M736.985 1039.16L737.501 1038.89L738.749 1039.28L738.268 1039.56L736.985 1039.16Z" fill="white"/>
<path d="M753.126 1053.39C752.271 1053.21 751.718 1052.82 752.057 1052.64C752.449 1052.41 753.892 1052.64 754.444 1053.09C754.801 1053.45 754.141 1053.51 753.625 1053.47C753.447 1053.45 753.286 1053.42 753.126 1053.39Z" fill="white"/>
<path d="M717.349 1051.33C716.476 1051.15 715.942 1050.71 716.352 1050.55C716.797 1050.35 718.133 1050.56 718.632 1051.02C718.989 1051.41 718.312 1051.48 717.706 1051.41C717.581 1051.38 717.456 1051.36 717.349 1051.33Z" fill="white"/>
<path d="M731.993 1066.26C730.782 1065.97 730.123 1065.41 730.657 1065.14C731.263 1064.84 733.098 1065.15 733.775 1065.77C734.221 1066.3 733.312 1066.45 732.492 1066.35C732.314 1066.33 732.154 1066.3 731.993 1066.26Z" fill="white"/>
<path d="M746.371 1081.67C744.928 1081.33 744.126 1080.62 744.821 1080.31C745.534 1079.99 747.672 1080.28 748.527 1081.09C749.079 1081.77 747.886 1081.92 746.781 1081.74C746.639 1081.73 746.478 1081.68 746.371 1081.67Z" fill="white"/>
<path d="M723.493 1095.08L724.027 1094.74L725.292 1095.17L724.704 1095.53L723.493 1095.08Z" fill="white"/>
<path d="M737.709 1111.65C736.729 1111.42 736.213 1110.92 736.711 1110.7C737.264 1110.44 738.778 1110.7 739.295 1111.23C739.651 1111.73 738.671 1111.85 737.852 1111.68C737.816 1111.66 737.763 1111.65 737.709 1111.65Z" fill="white"/>
<path d="M750.982 1128.1C749.788 1127.81 749.146 1127.18 749.752 1126.89C750.376 1126.59 752.211 1126.82 752.906 1127.57C753.351 1128.21 752.051 1128.36 750.982 1128.1Z" fill="white"/>
<path d="M726.678 1142.78L727.141 1142.48L728.103 1142.83L727.622 1143.13L726.678 1142.78Z" fill="white"/>
<path d="M739.718 1159.97C738.934 1159.79 738.56 1159.4 738.988 1159.2C739.487 1158.96 740.574 1159.2 740.93 1159.63C741.161 1160.01 740.449 1160.14 739.718 1159.97Z" fill="white"/>
<path d="M726.442 1192.39L726.71 1192.23L727.28 1192.42L726.977 1192.62L726.442 1192.39Z" fill="white"/>
<path d="M737.719 1209.48L738.218 1209.16L739.145 1209.51C739.145 1209.52 739.127 1209.54 739.127 1209.55L738.681 1209.83L737.719 1209.48Z" fill="white"/>
</g>
<g style="mix-blend-mode:overlay" opacity="0.7" clip-path="url(#clip1_15_13950)">
<path d="M2082.36 436.292C2080.5 437.132 2079.46 437.568 2079.16 437.677C2079.35 437.568 2079.54 437.506 2079.74 437.412L2087.36 433.974C2085.69 434.752 2084.04 435.53 2082.36 436.292Z" fill="white"/>
<path d="M2058.61 446.203C2058.38 446.281 2056.38 447.028 2055.85 447.121C2056.2 446.81 2063.13 444.321 2063.2 444.305C2063.23 444.305 2063.26 444.29 2063.28 444.29C2062.98 444.538 2059.82 445.768 2058.61 446.203Z" fill="white"/>
<path d="M2064.53 445.208C2064 445.425 2062.19 446.11 2061.69 446.141C2061.67 446.126 2061.66 446.11 2061.64 446.11C2062.11 445.643 2068.14 443.185 2069.21 442.952C2069.23 442.952 2069.26 442.952 2069.29 442.952C2069.29 442.967 2069.3 442.983 2069.32 442.998C2069.02 443.278 2066.7 444.352 2064.53 445.208Z" fill="white"/>
<path d="M2026.39 456.441C2025.69 456.644 2024.99 456.877 2024.28 457.017C2024.52 456.861 2029.71 455.368 2029.76 455.368C2029.78 455.368 2029.79 455.368 2029.82 455.368C2029.65 455.461 2027.2 456.192 2026.39 456.441Z" fill="white"/>
<path d="M2033.17 455.305C2032.96 455.367 2031.11 455.943 2030.88 455.896C2031.05 455.648 2035.93 454.092 2036.84 453.936C2036.87 453.936 2036.9 453.936 2036.92 453.952C2036.7 454.138 2034.72 454.838 2033.17 455.305Z" fill="white"/>
<path d="M2039.92 454.932C2039.7 455.01 2037.74 455.632 2037.48 455.508C2037.67 455.087 2042.76 453.345 2043.7 453.267C2043.73 453.267 2043.78 453.267 2043.81 453.283C2043.67 453.594 2041.17 454.527 2039.92 454.932Z" fill="white"/>
<path d="M1991.21 465.745C1990.8 465.854 1990.41 465.947 1990.01 466.041C1990.3 465.963 1990.59 465.901 1990.88 465.823L1992.87 465.325C1992.96 465.294 1993.03 465.278 1993.12 465.263C1993.14 465.263 1993.17 465.247 1993.17 465.247C1992.51 465.418 1991.85 465.574 1991.21 465.745Z" fill="white"/>
<path d="M1998.71 464.376C1998.41 464.454 1997.42 464.703 1997.28 464.687C1997.39 464.578 2000.36 463.8 2000.99 463.691C2001 463.691 2001.03 463.691 2001.05 463.691C2000.91 463.769 1999.68 464.127 1998.71 464.376Z" fill="white"/>
<path d="M2006.21 463.785C2005.87 463.878 2004.71 464.174 2004.53 464.112C2004.64 463.894 2008.08 462.929 2008.79 462.867C2008.8 462.867 2008.83 462.867 2008.85 462.882C2008.79 463.054 2007.09 463.551 2006.21 463.785Z" fill="white"/>
<path d="M2013.69 463.956C2013.42 464.018 2012.07 464.392 2011.86 464.283C2011.97 463.94 2015.69 462.836 2016.46 462.836C2016.5 462.836 2016.53 462.836 2016.54 462.851C2016.48 463.1 2014.64 463.691 2013.69 463.956Z" fill="white"/>
<path d="M1961.25 472.948L1961.61 472.839L1962.29 472.7L1961.88 472.808L1961.25 472.948Z" fill="white"/>
<path d="M1969.21 472.031L1969.73 471.86L1970.69 471.658L1970.14 471.829L1969.21 472.031Z" fill="white"/>
<path d="M1977.88 471.798C1977.71 471.844 1977.12 471.969 1977.03 471.938C1977.06 471.813 1978.87 471.362 1979.21 471.362C1979.21 471.362 1979.23 471.362 1979.24 471.378C1979.2 471.471 1978.22 471.72 1977.88 471.798Z" fill="white"/>
<path d="M1986.01 472.451C1985.85 472.482 1985.1 472.669 1984.99 472.591C1985.02 472.389 1987.11 471.829 1987.56 471.86C1987.58 471.86 1987.61 471.86 1987.63 471.891C1987.55 472.015 1986.62 472.311 1986.01 472.451Z" fill="white"/>
<path d="M2077.18 438.704C2074.47 439.84 2074.23 439.98 2074.08 440.058L2074.11 440.073C2076.96 438.922 2079.79 437.739 2082.58 436.541C2082.37 436.603 2081.93 436.712 2077.18 438.704Z" fill="white"/>
<path d="M2079.74 437.412C2082.73 436.106 2085.55 434.861 2087.84 433.741C2087.88 433.725 2087.89 433.709 2087.92 433.709C2087.73 433.787 2087.55 433.881 2087.34 433.974L2079.74 437.412Z" fill="white"/>
<path d="M2052.54 447.961C2051.66 448.273 2050.75 448.568 2049.85 448.879C2050.4 448.724 2055.19 447.106 2057.04 446.39C2057.06 446.39 2057.09 446.374 2057.11 446.374C2055.55 446.779 2054.08 447.432 2052.54 447.961Z" fill="white"/>
<path d="M1990.86 465.823C1991.52 465.652 1992.18 465.497 1992.85 465.325L1990.86 465.823Z" fill="white"/>
<path d="M2005.55 904.599C2004.47 904.895 2003.86 905.486 2004.36 905.75C2004.93 906.046 2006.5 905.719 2007.12 905.066C2007.5 904.568 2006.86 904.366 2006.02 904.49C2005.87 904.521 2005.71 904.552 2005.55 904.599Z" fill="white"/>
<path d="M2018.33 888.838C2017.11 889.181 2016.39 889.912 2016.98 890.239C2017.58 890.55 2019.48 890.254 2020.22 889.43C2020.66 888.792 2019.78 888.558 2018.69 888.761C2018.58 888.776 2018.44 888.807 2018.33 888.838Z" fill="white"/>
<path d="M2030.62 872.688C2029.12 873.108 2028.27 873.995 2029.02 874.399C2029.85 874.835 2032.07 874.399 2032.88 873.435C2033.42 872.626 2032.35 872.346 2031.06 872.579C2030.94 872.61 2030.77 872.641 2030.62 872.688Z" fill="white"/>
<path d="M2042.49 856.227C2040.76 856.694 2039.79 857.798 2040.67 858.281C2041.63 858.825 2044.27 858.296 2045.18 857.145C2045.79 856.134 2044.34 855.791 2042.73 856.165C2042.66 856.165 2042.57 856.196 2042.49 856.227Z" fill="white"/>
<path d="M2053.92 839.548C2051.96 840.092 2050.95 841.275 2051.96 841.85C2053.04 842.488 2055.88 841.912 2056.89 840.59C2057.56 839.439 2055.79 839.019 2053.92 839.548Z" fill="white"/>
<path d="M2064.91 822.604C2062.77 823.211 2061.64 824.58 2062.74 825.249C2063.95 825.965 2067.2 825.342 2068.28 823.849C2069.1 822.433 2066.82 822.075 2064.91 822.604Z" fill="white"/>
<path d="M2075.47 805.551C2073.13 806.189 2071.96 807.698 2073.21 808.43C2074.45 809.161 2077.94 808.679 2079.16 806.936C2079.99 805.349 2077.5 805.007 2075.47 805.551Z" fill="white"/>
<path d="M2085.65 788.359C2083.15 789.074 2081.93 790.692 2083.28 791.502C2084.72 792.388 2088.44 791.673 2089.63 789.899C2090.43 788.296 2088.06 787.674 2085.65 788.359Z" fill="white"/>
<path d="M2095.38 771.042C2092.68 771.804 2091.36 773.624 2092.84 774.527C2094.33 775.429 2098.38 774.9 2099.73 772.8C2100.57 771.026 2098 770.31 2095.38 771.042Z" fill="white"/>
<path d="M2104.72 753.709C2101.91 754.503 2100.53 756.448 2102.11 757.428C2103.82 758.486 2108.09 757.677 2109.38 755.607C2110.23 753.725 2107.48 752.947 2104.72 753.709Z" fill="white"/>
<path d="M2113.65 736.314C2110.46 737.217 2109.11 739.488 2111.17 740.484C2113.18 741.464 2117.4 740.546 2118.69 738.384C2119.62 736.205 2116.3 735.567 2113.65 736.314Z" fill="white"/>
<path d="M2122.16 718.935C2118.94 719.853 2117.45 722.125 2119.32 723.276C2121.38 724.552 2126.15 723.649 2127.54 721.207C2128.44 718.982 2125.27 718.033 2122.16 718.935Z" fill="white"/>
<path d="M2130.31 701.602C2126.78 702.629 2125.36 705.181 2127.72 706.317C2129.79 707.328 2134.58 706.581 2135.99 703.983C2136.87 701.649 2133.54 700.669 2130.31 701.602Z" fill="white"/>
<path d="M2138.03 684.27C2134.28 685.359 2132.85 688.082 2135.38 689.311C2137.59 690.385 2142.58 689.653 2144.07 686.806C2144.98 684.27 2141.45 683.274 2138.03 684.27Z" fill="white"/>
<path d="M2145.36 667.046C2141.61 668.166 2140.15 671.06 2142.71 672.305C2145.03 673.425 2150.23 672.585 2151.69 669.676C2152.61 666.906 2148.53 666.113 2145.36 667.046Z" fill="white"/>
<path d="M2152.28 649.838C2148.31 651.067 2146.85 654.086 2149.58 655.408C2152.27 656.699 2157.56 655.47 2158.94 652.592C2159.8 649.838 2155.93 648.702 2152.28 649.838Z" fill="white"/>
<path d="M2158.82 632.739C2154.69 634.061 2153.23 637.235 2156.12 638.604C2158.71 639.818 2164.36 638.807 2165.83 635.57C2166.66 632.676 2162.58 631.525 2158.82 632.739Z" fill="white"/>
<path d="M1998.85 874.384C1997.33 874.804 1996.46 875.706 1997.23 876.126C1998.07 876.578 2000.37 876.126 2001.19 875.162C2001.77 874.29 2000.47 874.073 1999.27 874.29C1999.13 874.306 1998.98 874.353 1998.85 874.384Z" fill="white"/>
<path d="M2010.89 857.751C2009.09 858.249 2008.11 859.338 2009.02 859.836C2009.95 860.318 2012.62 859.929 2013.64 858.685C2014.33 857.596 2012.59 857.362 2011.14 857.689C2011.06 857.705 2010.97 857.736 2010.89 857.751Z" fill="white"/>
<path d="M2022.52 840.901C2020.55 841.446 2019.51 842.644 2020.53 843.235C2021.61 843.857 2024.58 843.266 2025.6 841.944C2026.29 840.808 2024.41 840.372 2022.52 840.901Z" fill="white"/>
<path d="M2033.69 823.802C2031.5 824.409 2030.36 825.809 2031.49 826.478C2032.74 827.209 2036.07 826.556 2037.19 825.047C2038 823.6 2035.66 823.257 2033.69 823.802Z" fill="white"/>
<path d="M2044.5 806.563C2042.15 807.216 2040.94 808.756 2042.19 809.488C2043.45 810.203 2047.08 809.69 2048.32 807.947C2049.16 806.36 2046.6 805.987 2044.5 806.563Z" fill="white"/>
<path d="M2054.89 789.215C2052.33 789.946 2051.08 791.58 2052.46 792.389C2053.95 793.26 2057.8 792.513 2058.99 790.739C2059.82 789.106 2057.39 788.499 2054.89 789.215Z" fill="white"/>
<path d="M2064.88 771.742C2062.13 772.52 2060.78 774.356 2062.29 775.258C2063.94 776.238 2068.11 775.429 2069.41 773.469C2070.26 771.664 2067.58 770.964 2064.88 771.742Z" fill="white"/>
<path d="M2074.47 754.285C2071.56 755.109 2070.17 757.07 2071.78 758.035C2073.54 759.093 2077.95 758.237 2079.29 756.136C2080.17 754.238 2077.31 753.476 2074.47 754.285Z" fill="white"/>
<path d="M2083.68 736.781C2080.61 737.652 2079.13 739.784 2080.86 740.842C2082.76 742.009 2087.47 741.091 2088.86 738.804C2089.84 736.61 2086.42 736.019 2083.68 736.781Z" fill="white"/>
<path d="M2092.47 719.324C2089.16 720.273 2087.62 722.56 2089.54 723.681C2091.63 724.91 2096.67 723.961 2098.09 721.533C2099.02 719.309 2095.71 718.406 2092.47 719.324Z" fill="white"/>
<path d="M2100.94 701.96C2097.5 702.941 2095.94 705.337 2097.95 706.535C2100.14 707.842 2105.36 706.846 2106.81 704.279C2107.73 701.945 2104.28 700.996 2100.94 701.96Z" fill="white"/>
<path d="M2108.99 684.628C2105.39 685.67 2103.78 688.222 2105.91 689.498C2108.24 690.898 2113.78 689.824 2115.27 687.086C2116.21 684.628 2112.52 683.601 2108.99 684.628Z" fill="white"/>
<path d="M2116.68 667.466C2112.95 668.555 2111.33 671.2 2113.57 672.538C2116.02 673.985 2121.7 672.881 2123.21 670.033C2124.23 667.186 2119.95 666.517 2116.68 667.466Z" fill="white"/>
<path d="M2124 650.367C2120.07 651.549 2118.44 654.303 2120.81 655.719C2123.4 657.26 2129.37 656.062 2130.9 653.043C2131.83 650.32 2127.8 649.231 2124 650.367Z" fill="white"/>
<path d="M2130.92 633.439C2126.79 634.715 2125.13 637.593 2127.69 639.056C2130.23 640.518 2136.49 639.631 2138.16 636.208C2139.07 633.346 2134.86 632.225 2130.92 633.439Z" fill="white"/>
<path d="M2137.48 616.713C2133.29 618.036 2131.64 621.023 2134.28 622.501C2137.12 624.104 2143.48 622.75 2144.98 619.514C2145.93 616.34 2141.11 615.546 2137.48 616.713Z" fill="white"/>
<path d="M2143.6 600.112C2139.35 601.496 2137.65 604.671 2140.37 606.164C2143.13 607.689 2149.77 606.631 2151.42 602.928C2152.39 599.552 2147.34 598.898 2143.6 600.112Z" fill="white"/>
<path d="M2149.4 583.744C2145.03 585.238 2143.4 588.443 2146.23 589.952C2149.3 591.601 2155.99 590.014 2157.47 586.498C2158.31 583.153 2153.2 582.452 2149.4 583.744Z" fill="white"/>
<path d="M2154.75 567.531C2150.26 569.15 2148.63 572.479 2151.59 573.988C2154.87 575.669 2161.61 573.957 2163.09 570.254C2163.87 566.94 2159.08 565.976 2154.75 567.531Z" fill="white"/>
<path d="M2159.73 551.537C2155.16 553.295 2153.56 556.718 2156.62 558.212C2159.71 559.705 2166.79 558.243 2168.31 554.151C2169.1 550.479 2163.63 550.028 2159.73 551.537Z" fill="white"/>
<path d="M2001.88 825.669C2000.53 826.042 1999.86 826.851 2000.56 827.256C2001.32 827.676 2003.31 827.287 2003.98 826.4C2004.49 825.513 2003.06 825.342 2001.88 825.669Z" fill="white"/>
<path d="M2012.88 808.274C2011.3 808.71 2010.51 809.706 2011.35 810.172C2012.18 810.639 2014.61 810.281 2015.43 809.145C2015.98 808.119 2014.28 807.885 2012.88 808.274Z" fill="white"/>
<path d="M2023.53 790.77C2021.8 791.268 2020.92 792.404 2021.85 792.949C2022.77 793.493 2025.46 793.104 2026.35 791.797C2026.9 790.708 2025.21 790.304 2023.53 790.77Z" fill="white"/>
<path d="M2033.73 773.189C2031.72 773.765 2030.75 775.04 2031.85 775.678C2033.04 776.363 2036.07 775.787 2037 774.387C2037.67 773.033 2035.51 772.691 2033.73 773.189Z" fill="white"/>
<path d="M2043.57 755.623C2041.44 756.229 2040.4 757.661 2041.58 758.361C2042.88 759.123 2046.15 758.485 2047.14 756.961C2047.84 755.451 2045.49 755.078 2043.57 755.623Z" fill="white"/>
<path d="M2053.04 738.026C2050.64 738.71 2049.52 740.282 2050.89 741.075C2052.35 741.931 2055.99 741.231 2057.08 739.519C2057.73 737.995 2055.32 737.372 2053.04 738.026Z" fill="white"/>
<path d="M2062.13 720.475C2059.54 721.222 2058.33 722.98 2059.82 723.821C2061.46 724.754 2065.4 723.992 2066.54 722.14C2067.31 720.304 2064.42 719.822 2062.13 720.475Z" fill="white"/>
<path d="M2070.86 703.065C2068.05 703.858 2066.82 705.694 2068.47 706.628C2070.21 707.624 2074.42 706.83 2075.6 704.839C2076.34 703.034 2073.56 702.303 2070.86 703.065Z" fill="white"/>
<path d="M2079.21 685.732C2076.27 686.557 2074.97 688.58 2076.7 689.575C2078.6 690.68 2083.1 689.809 2084.36 687.631C2085.18 685.546 2081.83 684.986 2079.21 685.732Z" fill="white"/>
<path d="M2087.23 668.602C2084.15 669.489 2082.79 671.605 2084.66 672.647C2086.68 673.798 2091.42 672.881 2092.68 670.609C2093.51 668.4 2089.96 667.808 2087.23 668.602Z" fill="white"/>
<path d="M2094.89 651.565C2091.58 652.53 2090.2 654.77 2092.21 655.89C2094.36 657.12 2099.4 656.139 2100.7 653.697C2101.55 651.332 2097.78 650.709 2094.89 651.565Z" fill="white"/>
<path d="M2102.19 634.793C2098.79 635.804 2097.36 638.153 2099.46 639.289C2101.55 640.425 2106.9 639.678 2108.3 636.971C2109.15 634.528 2105.21 633.906 2102.19 634.793Z" fill="white"/>
<path d="M2109.16 618.238C2105.66 619.296 2104.22 621.739 2106.4 622.906C2108.8 624.182 2114.19 623.077 2115.49 620.463C2116.34 617.927 2112.27 617.305 2109.16 618.238Z" fill="white"/>
<path d="M2115.74 601.886C2112.05 603.037 2110.61 605.557 2112.93 606.787C2115.44 608.125 2121.08 606.927 2122.41 604.157C2123.24 601.497 2118.97 600.874 2115.74 601.886Z" fill="white"/>
<path d="M2121.96 585.766C2118.09 587.011 2116.62 589.656 2119.1 590.901C2121.77 592.27 2127.65 590.948 2129 588.054C2129.82 585.284 2125.32 584.693 2121.96 585.766Z" fill="white"/>
<path d="M2127.84 569.959C2123.92 571.266 2122.46 573.973 2125 575.218C2127.76 576.587 2133.76 575.171 2135.08 572.199C2135.9 569.274 2131.25 568.823 2127.84 569.959Z" fill="white"/>
<path d="M2133.32 554.384C2129.24 555.8 2127.76 558.616 2130.46 559.861C2133.18 561.106 2139.49 559.923 2140.9 556.562C2141.67 553.56 2136.82 553.171 2133.32 554.384Z" fill="white"/>
<path d="M2138.44 539.136C2134.34 540.661 2132.9 543.54 2135.63 544.738C2138.41 545.951 2144.78 544.644 2146.19 541.19C2146.87 538.327 2142.43 537.658 2138.44 539.136Z" fill="white"/>
<path d="M2143.15 524.153C2138.96 525.803 2137.51 528.79 2140.35 529.941C2143.54 531.248 2149.9 529.397 2151.19 526.067C2151.83 523.126 2147.21 522.551 2143.15 524.153Z" fill="white"/>
<path d="M2147.45 509.497C2143.2 511.286 2141.78 514.351 2144.72 515.456C2148.01 516.701 2154.5 514.631 2155.72 511.193C2156.3 508.221 2151.58 507.754 2147.45 509.497Z" fill="white"/>
<path d="M2151.37 495.198C2147.03 497.159 2145.71 500.224 2148.75 501.266C2152.11 502.418 2158.64 500.13 2159.8 496.63C2160.29 493.627 2155.5 493.331 2151.37 495.198Z" fill="white"/>
<path d="M2154.83 481.242C2150.46 483.389 2149.19 486.516 2152.28 487.434C2155.44 488.368 2162.27 486.159 2163.43 482.347C2163.9 479.017 2158.61 479.375 2154.83 481.242Z" fill="white"/>
<path d="M2158 467.861C2153.93 470.039 2152.54 472.965 2155.14 473.883C2158.2 474.972 2165.5 472.42 2166.63 468.452C2167.04 465.216 2161.75 465.854 2158 467.861Z" fill="white"/>
<path d="M1991.33 792.497C1990.39 792.746 1989.92 793.338 1990.45 793.618C1990.97 793.898 1992.38 793.695 1992.85 793.011C1993.14 792.451 1992.24 792.248 1991.33 792.497Z" fill="white"/>
<path d="M2001.77 774.838C2000.66 775.149 2000.09 775.881 2000.72 776.223C2001.41 776.596 2003.09 776.27 2003.61 775.507C2003.98 774.729 2002.76 774.558 2001.77 774.838Z" fill="white"/>
<path d="M2011.83 757.132C2010.47 757.521 2009.81 758.392 2010.58 758.828C2011.39 759.31 2013.48 758.906 2014.13 757.941C2014.53 757.101 2013.15 756.774 2011.83 757.132Z" fill="white"/>
<path d="M2021.55 739.504C2020 739.94 2019.26 740.951 2020.15 741.449C2021.03 741.947 2023.4 741.62 2024.16 740.437C2024.6 739.457 2023.06 739.084 2021.55 739.504Z" fill="white"/>
<path d="M2030.89 721.876C2029.1 722.373 2028.27 723.54 2029.32 724.116C2030.45 724.723 2033.17 724.209 2033.95 722.965C2034.44 721.829 2032.65 721.393 2030.89 721.876Z" fill="white"/>
<path d="M2039.92 704.419C2038 704.948 2037.09 706.255 2038.22 706.877C2039.34 707.499 2042.35 707.079 2043.25 705.601C2043.83 704.248 2041.63 703.936 2039.92 704.419Z" fill="white"/>
<path d="M2048.55 687.055C2046.34 687.677 2045.4 689.093 2046.7 689.809C2047.99 690.525 2051.31 690.073 2052.3 688.393C2052.9 686.915 2050.47 686.526 2048.55 687.055Z" fill="white"/>
<path d="M2056.86 669.878C2054.49 670.547 2053.43 672.134 2054.85 672.912C2056.4 673.768 2060.06 673.067 2061.03 671.356C2061.67 669.722 2058.97 669.287 2056.86 669.878Z" fill="white"/>
<path d="M2064.86 652.934C2062.26 653.665 2061.17 655.346 2062.76 656.186C2064.44 657.088 2068.35 656.326 2069.37 654.505C2070.03 652.747 2067.11 652.296 2064.86 652.934Z" fill="white"/>
<path d="M2072.49 636.193C2069.74 636.971 2068.6 638.807 2070.28 639.678C2072.11 640.643 2076.32 639.818 2077.39 637.858C2078.06 635.991 2074.91 635.508 2072.49 636.193Z" fill="white"/>
<path d="M2079.81 619.778C2076.92 620.618 2075.72 622.532 2077.51 623.435C2079.34 624.337 2083.78 623.73 2084.96 621.505C2085.65 619.529 2082.33 619.047 2079.81 619.778Z" fill="white"/>
<path d="M2086.78 603.597C2083.67 604.515 2082.44 606.522 2084.39 607.487C2086.48 608.529 2091.2 607.565 2092.33 605.387C2092.99 603.426 2089.76 602.71 2086.78 603.597Z" fill="white"/>
<path d="M2093.42 587.758C2090.17 588.723 2088.91 590.808 2091 591.803C2093.06 592.784 2098 592.021 2099.24 589.563C2099.9 587.478 2096.54 586.825 2093.42 587.758Z" fill="white"/>
<path d="M2099.73 572.199C2096.31 573.257 2095.03 575.435 2097.23 576.447C2099.59 577.536 2104.73 576.4 2105.91 574.019C2106.63 571.67 2102.66 571.297 2099.73 572.199Z" fill="white"/>
<path d="M2105.68 556.983C2102.35 558.056 2100.95 560.172 2102.85 561.261C2105.17 562.599 2110.97 561.386 2112.21 558.772C2112.87 556.516 2109.1 555.893 2105.68 556.983Z" fill="white"/>
<path d="M2111.28 542.17C2107.87 543.306 2106.46 545.484 2108.44 546.558C2110.87 547.881 2116.84 546.542 2118.08 543.851C2118.72 541.564 2114.81 541.004 2111.28 542.17Z" fill="white"/>
<path d="M2116.56 527.67C2113.04 528.914 2111.6 531.17 2113.67 532.244C2116.21 533.566 2122.4 532.073 2123.64 529.288C2124.25 526.907 2120.2 526.394 2116.56 527.67Z" fill="white"/>
<path d="M2121.45 513.604C2117.86 514.942 2116.43 517.245 2118.58 518.272C2121.3 519.563 2127.51 517.945 2128.75 515.051C2129.33 512.64 2125.16 512.235 2121.45 513.604Z" fill="white"/>
<path d="M2125.97 499.913C2122.32 501.36 2120.9 503.74 2123.12 504.72C2125.93 505.981 2132.32 504.16 2133.53 501.157C2134.07 498.715 2129.76 498.419 2125.97 499.913Z" fill="white"/>
<path d="M2130.17 486.719C2126.4 488.306 2125.02 490.655 2127.34 491.542C2130.24 492.678 2136.71 490.655 2137.87 487.683C2138.41 485.023 2133.65 485.256 2130.17 486.719Z" fill="white"/>
<path d="M2134.09 474.178C2130.28 475.905 2128.89 478.27 2131.25 479.048C2133.96 479.951 2140.72 477.943 2141.94 474.754C2142.46 472.124 2137.61 472.576 2134.09 474.178Z" fill="white"/>
<path d="M2137.8 462.322C2134.22 464.065 2132.74 466.274 2134.67 467.037C2137.45 468.157 2144.5 465.59 2145.68 462.447C2146.15 459.926 2141.3 460.626 2137.8 462.322Z" fill="white"/>
<path d="M2141.22 451.12C2137.62 453.034 2136.16 455.259 2138.09 455.881C2140.93 456.799 2148.05 453.889 2149.19 450.762C2149.66 448.179 2144.7 449.268 2141.22 451.12Z" fill="white"/>
<path d="M2144.39 440.555C2140.78 442.64 2139.38 444.819 2141.34 445.301C2144.22 446.001 2151.28 442.734 2152.38 439.653C2152.76 437.366 2148.33 438.284 2144.39 440.555Z" fill="white"/>
<path d="M1980.06 759.125L1980.09 759.109L1980.04 759.061C1980.06 759.093 1980.06 759.109 1980.06 759.125Z" fill="white"/>
<path d="M1989.24 741.091C1988.52 741.293 1988.18 741.76 1988.58 741.993C1988.99 742.227 1990.09 742.071 1990.44 741.511C1990.66 741.06 1989.95 740.904 1989.24 741.091Z" fill="white"/>
<path d="M1998.82 723.416C1997.81 723.696 1997.36 724.318 1997.96 724.614C1998.58 724.925 2000.08 724.645 2000.48 723.992C2000.78 723.338 1999.68 723.183 1998.82 723.416Z" fill="white"/>
<path d="M2008.08 705.912C2006.92 706.239 2006.4 706.97 2007.08 707.344C2007.81 707.733 2009.56 707.39 2010.06 706.597C2010.36 705.866 2009.21 705.601 2008.08 705.912Z" fill="white"/>
<path d="M2016.98 688.517C2015.54 688.906 2014.93 689.809 2015.77 690.244C2016.62 690.68 2018.79 690.385 2019.43 689.327C2019.82 688.409 2018.22 688.175 2016.98 688.517Z" fill="white"/>
<path d="M2025.58 671.371C2024.01 671.807 2023.32 672.818 2024.27 673.316C2025.29 673.861 2027.67 673.394 2028.33 672.305C2028.76 671.216 2026.97 670.982 2025.58 671.371Z" fill="white"/>
<path d="M2033.86 654.397C2032.05 654.91 2031.27 656.077 2032.35 656.637C2033.53 657.244 2036.31 656.715 2037.03 655.47C2037.52 654.241 2035.46 653.946 2033.86 654.397Z" fill="white"/>
<path d="M2041.8 637.717C2039.73 638.309 2038.88 639.584 2040.14 640.222C2041.52 640.907 2044.58 640.316 2045.4 638.9C2045.87 637.624 2043.76 637.157 2041.8 637.717Z" fill="white"/>
<path d="M2049.41 621.381C2047.26 621.988 2046.35 623.388 2047.69 624.042C2049.15 624.773 2052.51 624.135 2053.35 622.626C2053.9 621.163 2051.36 620.821 2049.41 621.381Z" fill="white"/>
<path d="M2056.76 605.371C2054.58 605.993 2053.56 607.362 2054.75 608.093C2056.23 609.011 2060.06 608.327 2060.98 606.662C2061.53 605.137 2058.82 604.779 2056.76 605.371Z" fill="white"/>
<path d="M2063.76 589.672C2061.41 590.341 2060.32 591.834 2061.61 592.628C2063.23 593.608 2067.42 592.846 2068.41 591.025C2068.99 589.376 2066.01 589.034 2063.76 589.672Z" fill="white"/>
<path d="M2070.48 574.393C2067.94 575.14 2066.82 576.665 2068.25 577.489C2069.98 578.485 2074.39 577.66 2075.4 575.762C2075.98 574.051 2072.84 573.708 2070.48 574.393Z" fill="white"/>
<path d="M2076.87 559.472C2074.2 560.265 2073.02 561.915 2074.53 562.739C2076.4 563.766 2081.14 562.848 2082.19 560.857C2082.77 559.036 2079.4 558.71 2076.87 559.472Z" fill="white"/>
<path d="M2082.96 544.971C2080.14 545.843 2078.94 547.523 2080.56 548.363C2082.54 549.39 2087.45 548.379 2088.52 546.325C2089.1 544.458 2085.57 544.178 2082.96 544.971Z" fill="white"/>
<path d="M2088.72 530.906C2085.76 531.87 2084.52 533.629 2086.24 534.469C2088.36 535.496 2093.57 534.375 2094.66 532.213C2095.19 530.377 2091.77 529.926 2088.72 530.906Z" fill="white"/>
<path d="M2094.14 517.276C2091.01 518.319 2089.74 520.155 2091.58 520.979C2093.87 522.022 2099.27 520.777 2100.39 518.49C2100.92 516.607 2097.33 516.234 2094.14 517.276Z" fill="white"/>
<path d="M2099.24 504.16C2096.05 505.28 2094.78 507.147 2096.68 507.941C2099.07 508.937 2104.56 507.552 2105.68 505.218C2106.21 503.273 2102.52 503.009 2099.24 504.16Z" fill="white"/>
<path d="M2104.06 491.62C2100.94 492.771 2099.54 494.545 2101.16 495.323C2103.4 496.427 2109.63 494.856 2110.79 492.444C2111.36 490.344 2107.09 490.499 2104.06 491.62Z" fill="white"/>
<path d="M2108.72 479.842C2105.5 481.102 2104.14 482.813 2105.79 483.545C2108.08 484.525 2114.41 482.767 2115.57 480.355C2116.12 478.332 2111.8 478.644 2108.72 479.842Z" fill="white"/>
<path d="M2113.13 468.779C2109.84 470.148 2108.44 471.891 2110.14 472.513C2112.57 473.4 2119 471.424 2120.2 468.95C2120.75 466.912 2116.37 467.441 2113.13 468.779Z" fill="white"/>
<path d="M2117.36 458.401C2114.2 459.802 2112.73 461.451 2114.08 462.058C2116.26 463.054 2123.32 460.751 2124.56 458.184C2125.1 456.223 2120.64 456.939 2117.36 458.401Z" fill="white"/>
<path d="M2121.36 448.724C2118.22 450.233 2116.76 451.867 2118.09 452.396C2120.31 453.236 2127.4 450.622 2128.64 448.07C2129.16 446.172 2124.66 447.152 2121.36 448.724Z" fill="white"/>
<path d="M2125.13 439.715C2121.91 441.396 2120.46 442.998 2121.85 443.387C2123.9 443.978 2131.2 441.224 2132.51 438.564C2132.99 436.697 2128.39 438.019 2125.13 439.715Z" fill="white"/>
<path d="M1975.18 707.779L1975.43 707.966L1975.93 707.764L1975.63 707.593L1975.18 707.779Z" fill="white"/>
<path d="M1984.06 690.525L1984.57 690.882L1985.51 690.478L1984.96 690.151L1984.06 690.525Z" fill="white"/>
<path d="M1993.42 672.99C1992.7 673.176 1992.34 673.643 1992.71 673.892C1993.17 674.188 1994.49 673.97 1994.82 673.425C1995.04 672.865 1994.03 672.818 1993.42 672.99Z" fill="white"/>
<path d="M2001.97 656.062C2001.03 656.342 2000.62 656.933 2001.17 657.228C2001.79 657.555 2003.26 657.26 2003.65 656.606C2003.92 655.968 2002.81 655.813 2001.97 656.062Z" fill="white"/>
<path d="M2010.18 639.414C2009.04 639.725 2008.49 640.409 2009.12 640.783C2009.79 641.203 2011.83 640.954 2012.35 640.067C2012.63 639.351 2011.35 639.087 2010.18 639.414Z" fill="white"/>
<path d="M2018.14 623.123C2016.86 623.481 2016.24 624.275 2016.94 624.679C2017.78 625.193 2020.04 624.819 2020.59 623.87C2020.95 622.983 2019.37 622.781 2018.14 623.123Z" fill="white"/>
<path d="M2025.76 607.16C2024.23 607.58 2023.53 608.498 2024.36 608.98C2025.38 609.572 2028.03 609.12 2028.68 608.016C2029.09 607.004 2027.2 606.771 2025.76 607.16Z" fill="white"/>
<path d="M2033.12 591.617C2031.39 592.099 2030.61 593.11 2031.55 593.655C2032.7 594.324 2035.73 593.795 2036.45 592.535C2036.87 591.383 2034.74 591.15 2033.12 591.617Z" fill="white"/>
<path d="M2040.2 576.509C2038.33 577.038 2037.52 578.112 2038.54 578.687C2039.79 579.403 2043.04 578.812 2043.81 577.474C2044.25 576.26 2041.94 576.011 2040.2 576.509Z" fill="white"/>
<path d="M2046.97 561.806C2044.91 562.397 2043.98 563.579 2045.14 564.186C2046.57 564.918 2050.2 564.249 2051.03 562.817C2051.49 561.495 2048.9 561.261 2046.97 561.806Z" fill="white"/>
<path d="M2053.46 547.601C2051.2 548.254 2050.26 549.468 2051.55 550.105C2053.12 550.868 2056.93 550.152 2057.8 548.612C2058.25 547.32 2055.74 546.947 2053.46 547.601Z" fill="white"/>
<path d="M2059.67 533.878C2057.39 534.547 2056.34 535.776 2057.45 536.46C2058.97 537.378 2063.43 536.585 2064.41 534.889C2064.86 533.489 2062.13 533.146 2059.67 533.878Z" fill="white"/>
<path d="M2065.6 520.668C2063.24 521.384 2062.16 522.644 2063.31 523.329C2064.91 524.262 2069.59 523.375 2070.56 521.602C2071.06 520.108 2067.91 519.968 2065.6 520.668Z" fill="white"/>
<path d="M2071.17 507.988C2068.68 508.766 2067.51 510.088 2068.75 510.757C2070.5 511.706 2075.51 510.679 2076.54 508.812C2077.07 507.225 2073.65 507.21 2071.17 507.988Z" fill="white"/>
<path d="M2076.6 496.07C2073.97 496.925 2072.76 498.279 2074.06 498.901C2075.9 499.773 2081.19 498.606 2082.26 496.739C2082.8 495.12 2079.21 495.214 2076.6 496.07Z" fill="white"/>
<path d="M2081.89 484.945C2079.34 485.816 2078.05 487.061 2079.1 487.683C2080.73 488.632 2086.62 487.325 2087.77 485.381C2088.3 483.809 2084.58 484.027 2081.89 484.945Z" fill="white"/>
<path d="M2087.03 474.583C2084.41 475.516 2083.1 476.761 2084.15 477.321C2085.82 478.177 2091.85 476.683 2093.01 474.754C2093.57 473.245 2089.77 473.602 2087.03 474.583Z" fill="white"/>
<path d="M2091.96 464.952C2089.18 465.994 2087.84 467.239 2088.97 467.721C2090.8 468.499 2097 466.772 2098.2 464.827C2098.79 463.318 2094.88 463.847 2091.96 464.952Z" fill="white"/>
<path d="M2096.76 456.037C2093.97 457.172 2092.62 458.417 2093.75 458.806C2095.6 459.459 2101.86 457.515 2103.09 455.585C2103.65 454.138 2099.7 454.854 2096.76 456.037Z" fill="white"/>
<path d="M2101.33 447.837C2098.61 449.004 2097.2 450.186 2098.06 450.575C2099.43 451.182 2106.51 449.082 2107.87 446.997C2108.41 445.612 2104.34 446.546 2101.33 447.837Z" fill="white"/>
<path d="M2105.71 440.353C2102.95 441.629 2101.52 442.827 2102.38 443.107C2104 443.652 2111.05 441.038 2112.35 439.077C2112.88 437.801 2109.29 438.813 2106.68 439.917C2106.38 440.042 2105.99 440.213 2105.71 440.353Z" fill="white"/>
<path d="M1960.3 674.779L1960.45 674.856L1960.7 674.763L1960.55 674.67L1960.3 674.779Z" fill="white"/>
<path d="M1969.15 657.975L1969.29 658.068L1969.54 657.959L1969.4 657.866L1969.15 657.975Z" fill="white"/>
<path d="M1977.38 641.483L1977.78 641.732L1978.47 641.436L1978.05 641.187L1977.38 641.483Z" fill="white"/>
<path d="M1985.35 625.364L1985.99 625.722L1986.98 625.302L1986.4 624.928L1985.35 625.364Z" fill="white"/>
<path d="M1993.92 609.136C1993.22 609.338 1992.89 609.743 1993.26 609.961C1993.73 610.225 1994.97 610.007 1995.29 609.509C1995.46 609.074 1994.68 608.934 1993.92 609.136Z" fill="white"/>
<path d="M2001.55 593.67C2000.59 593.919 2000.15 594.464 2000.67 594.744C2001.27 595.071 2002.93 594.868 2003.36 594.137C2003.59 593.577 2002.54 593.406 2001.55 593.67Z" fill="white"/>
<path d="M2008.96 578.687C2007.88 578.967 2007.37 579.605 2007.96 579.932C2008.71 580.337 2010.66 579.994 2011.11 579.232C2011.39 578.532 2010 578.423 2008.96 578.687Z" fill="white"/>
<path d="M2016.07 564.171C2014.74 564.529 2014.16 565.244 2014.88 565.618C2015.8 566.084 2018.1 565.68 2018.65 564.778C2018.93 564.046 2017.44 563.813 2016.07 564.171Z" fill="white"/>
<path d="M2022.93 550.152C2021.47 550.557 2020.78 551.319 2021.47 551.755C2022.43 552.346 2025.32 551.879 2025.96 550.806C2026.28 549.95 2024.53 549.716 2022.93 550.152Z" fill="white"/>
<path d="M2029.54 536.725C2027.92 537.176 2027.15 537.985 2027.94 538.436C2028.99 539.059 2032.16 538.514 2032.84 537.394C2033.2 536.46 2031.3 536.243 2029.54 536.725Z" fill="white"/>
<path d="M2035.87 523.827C2034.08 524.324 2033.23 525.211 2034.11 525.709C2035.3 526.363 2038.85 525.74 2039.62 524.496C2040.01 523.422 2037.63 523.329 2035.87 523.827Z" fill="white"/>
<path d="M2041.97 511.597C2040.03 512.157 2039.15 513.044 2040.11 513.527C2041.39 514.164 2045.18 513.464 2045.98 512.173C2046.37 511.146 2044.08 511.006 2041.97 511.597Z" fill="white"/>
<path d="M2047.95 500.177C2045.99 500.753 2045 501.64 2045.77 502.122C2046.97 502.853 2051.42 502.06 2052.32 500.659C2052.79 499.524 2050 499.586 2047.95 500.177Z" fill="white"/>
<path d="M2053.81 489.597C2051.72 490.235 2050.65 491.153 2051.47 491.604C2052.74 492.304 2057.51 491.355 2058.49 489.939C2058.99 488.788 2055.99 488.928 2053.81 489.597Z" fill="white"/>
<path d="M2059.56 479.842C2057.36 480.526 2056.24 481.444 2057.11 481.849C2058.46 482.471 2063.46 481.382 2064.48 479.982C2064.99 478.861 2061.85 479.126 2059.56 479.842Z" fill="white"/>
<path d="M2065.14 470.848C2062.96 471.564 2061.78 472.435 2062.43 472.84C2063.57 473.556 2069.21 472.28 2070.36 470.786C2070.87 469.666 2067.56 470.055 2065.14 470.848Z" fill="white"/>
<path d="M2070.62 462.618C2068.36 463.396 2067.12 464.267 2067.8 464.625C2069.02 465.247 2074.77 463.816 2075.96 462.307C2076.48 461.28 2073.39 461.731 2071.02 462.478C2070.91 462.525 2070.76 462.571 2070.62 462.618Z" fill="white"/>
<path d="M2075.94 455.134C2073.56 456.005 2072.29 456.877 2073.01 457.157C2074.12 457.608 2080.26 456.052 2081.55 454.512C2082.07 453.594 2079.34 454.061 2077.23 454.698C2076.79 454.839 2076.37 454.979 2075.94 455.134Z" fill="white"/>
<path d="M2081.12 448.397C2078.86 449.268 2077.55 450.109 2078 450.373C2078.91 450.918 2085.49 448.942 2086.81 447.464C2087.29 446.655 2084.92 447.215 2084.19 447.401C2083.24 447.65 2082.13 448.008 2081.12 448.397Z" fill="white"/>
<path d="M2086.1 442.376C2083.76 443.34 2082.46 444.165 2082.9 444.367C2083.84 444.803 2090.62 442.516 2092 441.053C2092.1 440.913 2092.36 440.493 2090.75 440.851C2089.6 441.069 2087.78 441.676 2086.1 442.376Z" fill="white"/>
<path d="M2090.94 437.055C2088.47 438.144 2087.17 438.937 2087.64 439.062C2088.49 439.311 2095.46 436.806 2096.98 435.296C2097.07 435.172 2097.23 434.939 2096.51 435.063C2095.33 435.25 2092.8 436.23 2090.94 437.055Z" fill="white"/>
<path d="M1968.95 595.957L1969.12 596.081L1969.5 595.926L1969.26 595.833L1968.95 595.957Z" fill="white"/>
<path d="M1976.4 581.207L1976.83 581.409L1977.49 581.145L1977.08 580.943L1976.4 581.207Z" fill="white"/>
<path d="M1984.22 566.582C1983.64 566.738 1983.39 567.033 1983.7 567.204C1984.11 567.422 1985.16 567.189 1985.4 566.831C1985.52 566.52 1984.83 566.426 1984.22 566.582Z" fill="white"/>
<path d="M1991.44 552.766C1990.7 552.968 1990.34 553.326 1990.7 553.528C1991.13 553.777 1992.59 553.606 1992.92 553.077C1993.09 552.657 1992.23 552.548 1991.44 552.766Z" fill="white"/>
<path d="M1998.38 539.51C1997.45 539.759 1997.01 540.21 1997.45 540.475C1998.05 540.802 1999.93 540.506 2000.33 539.884C2000.55 539.323 1999.31 539.261 1998.38 539.51Z" fill="white"/>
<path d="M2005.07 526.861C2004.03 527.141 2003.33 527.67 2003.92 527.996C2004.68 528.385 2006.95 528.012 2007.44 527.265C2007.7 526.674 2006.32 526.534 2005.07 526.861Z" fill="white"/>
<path d="M2011.64 515.036C2010.44 515.363 2009.82 515.892 2010.28 516.203C2010.99 516.669 2013.75 516.249 2014.33 515.394C2014.63 514.709 2012.93 514.693 2011.64 515.036Z" fill="white"/>
<path d="M2018.11 504.051C2016.7 504.425 2015.96 505.016 2016.53 505.311C2017.39 505.778 2020.51 505.265 2021.17 504.362C2021.53 503.631 2019.56 503.662 2018.11 504.051Z" fill="white"/>
<path d="M2024.49 493.969C2023.01 494.358 2022.21 494.98 2022.77 495.276C2023.67 495.743 2027.08 495.12 2027.81 494.187C2028.21 493.44 2026.07 493.533 2024.49 493.969Z" fill="white"/>
<path d="M2030.8 484.727C2029.27 485.147 2028.43 485.723 2028.87 486.018C2029.62 486.532 2033.58 485.816 2034.42 484.82C2034.82 484.074 2032.49 484.245 2030.8 484.727Z" fill="white"/>
<path d="M2037 476.279C2035.33 476.761 2034.39 477.352 2034.86 477.648C2035.69 478.13 2040 477.259 2040.92 476.247C2041.31 475.594 2039.49 475.656 2037.59 476.107C2037.41 476.154 2037.17 476.216 2037 476.279Z" fill="white"/>
<path d="M2043.09 468.624C2041.27 469.184 2040.25 469.791 2040.76 470.039C2041.68 470.46 2046.37 469.433 2047.37 468.406C2047.75 467.815 2046.13 467.908 2044.42 468.281C2043.95 468.375 2043.51 468.499 2043.09 468.624Z" fill="white"/>
<path d="M2049.08 461.778C2047.31 462.338 2046.26 462.914 2046.59 463.147C2047.23 463.614 2052.41 462.431 2053.54 461.342C2053.92 460.813 2052.46 461 2051.83 461.109C2051.44 461.171 2050.39 461.373 2049.08 461.778Z" fill="white"/>
<path d="M2054.96 455.679C2053.09 456.301 2051.97 456.877 2052.3 457.079C2052.96 457.452 2058.54 456.005 2059.7 454.994C2059.78 454.885 2060.03 454.574 2058.72 454.745C2057.78 454.87 2056.31 455.243 2054.96 455.679Z" fill="white"/>
<path d="M2060.72 450.342C2058.74 451.027 2057.61 451.602 2057.95 451.742C2058.66 452.022 2064.34 450.373 2065.58 449.377C2065.66 449.284 2065.82 449.113 2065.24 449.16C2064.44 449.206 2062.57 449.704 2060.72 450.342Z" fill="white"/>
<path d="M2066.34 445.736C2065.32 446.125 2063.56 446.795 2063.37 447.09C2063.83 447.464 2070.15 445.363 2071.44 444.414C2071.47 444.383 2071.5 444.336 2071.53 444.305C2071.11 443.994 2066.38 445.721 2066.34 445.736Z" fill="white"/>
<path d="M2071.83 441.862C2069.93 442.594 2068.93 443.06 2068.79 443.216C2069.3 443.403 2075.68 441.069 2077.03 440.198C2077.06 440.166 2077.11 440.135 2077.12 440.104C2076.75 439.949 2072.33 441.66 2071.83 441.862Z" fill="white"/>
<path d="M2074.12 440.089C2075.3 439.777 2081.02 437.506 2082.55 436.635C2082.57 436.619 2082.6 436.603 2082.63 436.588C2082.62 436.588 2082.6 436.572 2082.6 436.557C2079.81 437.755 2076.98 438.937 2074.12 440.089Z" fill="white"/>
<path d="M1972.92 530.221L1973.37 530.408L1974.14 530.112L1973.64 529.941L1972.92 530.221Z" fill="white"/>
<path d="M1980.31 518.474C1979.76 518.614 1979.56 518.832 1979.73 518.941C1980 519.112 1981.21 518.972 1981.47 518.599C1981.61 518.35 1980.88 518.35 1980.31 518.474Z" fill="white"/>
<path d="M1987.22 507.863C1986.53 508.034 1986.15 508.33 1986.4 508.47C1986.79 508.703 1988.43 508.439 1988.79 508.003C1989.01 507.63 1987.88 507.692 1987.22 507.863Z" fill="white"/>
<path d="M1994.06 498.154C1993.2 498.372 1992.73 498.683 1992.96 498.855C1993.39 499.15 1995.6 498.808 1996.07 498.263C1996.31 497.89 1995.11 497.89 1994.06 498.154Z" fill="white"/>
<path d="M2000.88 489.333C1999.92 489.582 1999.37 489.908 1999.64 490.095C2000.08 490.391 2002.62 489.955 2003.17 489.395C2003.43 488.99 2002.07 489.068 2001.03 489.301C2000.99 489.301 2000.92 489.317 2000.88 489.333Z" fill="white"/>
<path d="M2007.59 481.366C2006.45 481.662 2005.79 482.035 2006.12 482.207C2006.68 482.487 2009.65 481.942 2010.31 481.335C2010.59 480.931 2009.32 481.04 2008.43 481.195C2008.14 481.226 2007.88 481.289 2007.59 481.366Z" fill="white"/>
<path d="M2014.28 474.209C2013.03 474.552 2012.3 474.941 2012.65 475.096C2013.25 475.361 2016.48 474.707 2017.22 474.085C2017.48 473.743 2016.53 473.82 2016.1 473.867C2015.77 473.898 2015.11 473.991 2014.28 474.209Z" fill="white"/>
<path d="M2020.86 467.908C2019.71 468.219 2018.69 468.639 2018.94 468.795C2019.4 469.106 2023.28 468.297 2024.17 467.597C2024.23 467.535 2024.41 467.317 2023.5 467.395C2022.98 467.426 2022.01 467.581 2020.86 467.908Z" fill="white"/>
<path d="M2027.37 462.369C2025.9 462.789 2025.02 463.178 2025.27 463.303C2025.76 463.536 2030.01 462.571 2030.98 461.887C2031.05 461.824 2031.17 461.7 2030.75 461.7C2030.15 461.7 2028.72 461.98 2027.37 462.369Z" fill="white"/>
<path d="M2033.81 457.639C2033.17 457.826 2031.68 458.308 2031.52 458.526C2031.85 458.853 2036.76 457.499 2037.66 456.939C2037.69 456.923 2037.72 456.892 2037.74 456.861C2037.48 456.597 2034.58 457.406 2033.81 457.639Z" fill="white"/>
<path d="M2040.17 453.656C2039.32 453.921 2037.86 454.403 2037.7 454.574C2038.02 454.776 2043.18 453.298 2044.28 452.691C2044.3 452.676 2044.34 452.645 2044.36 452.629C2044.06 452.458 2040.2 453.64 2040.17 453.656Z" fill="white"/>
<path d="M2046.42 450.435C2043.9 451.26 2043.86 451.338 2043.84 451.369C2044.36 451.353 2049.45 449.797 2050.7 449.206C2050.73 449.191 2050.76 449.16 2050.78 449.128C2050.36 449.144 2046.59 450.373 2046.42 450.435Z" fill="white"/>
<path d="M1969.5 494.047L1969.97 494.109L1970.74 493.876L1970.26 493.798L1969.5 494.047Z" fill="white"/>
<path d="M1977.16 486.267C1976.64 486.392 1976.32 486.563 1976.47 486.625C1976.7 486.75 1978.02 486.516 1978.33 486.252C1978.46 486.112 1978.07 486.127 1977.89 486.143C1977.64 486.158 1977.39 486.205 1977.16 486.267Z" fill="white"/>
<path d="M1984.3 479.546C1983.73 479.686 1983.2 479.873 1983.33 479.966C1983.55 480.122 1985.48 479.779 1985.92 479.453C1986.01 479.359 1985.88 479.328 1985.6 479.328C1985.29 479.344 1984.77 479.437 1984.3 479.546Z" fill="white"/>
<path d="M1991.44 473.68C1990.69 473.867 1990.22 474.069 1990.33 474.147C1990.53 474.303 1992.84 473.851 1993.36 473.509C1993.39 473.478 1993.47 473.416 1993.23 473.4C1992.92 473.385 1992.15 473.509 1991.44 473.68Z" fill="white"/>
<path d="M1998.51 468.639C1998.21 468.717 1997.22 468.981 1997.12 469.137C1997.3 469.355 2000.26 468.67 2000.83 468.344C2000.84 468.328 2000.88 468.312 2000.88 468.297C2000.75 468.126 1998.98 468.53 1998.51 468.639Z" fill="white"/>
<path d="M2005.57 464.423C2005.15 464.532 2004.16 464.812 2004.03 464.936C2004.19 465.107 2007.52 464.283 2008.11 463.987C2008.13 463.971 2008.16 463.956 2008.18 463.94C2008.02 463.8 2006.09 464.283 2005.57 464.423Z" fill="white"/>
<path d="M2012.56 460.984C2012.07 461.109 2010.92 461.435 2010.78 461.529C2010.99 461.638 2014.71 460.658 2015.44 460.346C2015.46 460.331 2015.49 460.315 2015.51 460.3C2015.33 460.237 2012.59 460.969 2012.56 460.984Z" fill="white"/>
<path d="M2019.49 458.324C2018.83 458.51 2018.18 458.666 2017.53 458.899C2017.81 458.899 2021.93 457.732 2022.7 457.483C2022.71 457.483 2022.74 457.468 2022.74 457.468C2022.68 457.468 2022.59 457.468 2019.49 458.324Z" fill="white"/>
<path d="M1960.56 479.406L1960.88 479.391L1961.41 479.25L1961.1 479.266L1960.56 479.406Z" fill="white"/>
<path d="M1967.91 474.832L1968.47 474.785L1969.45 474.536L1968.85 474.583L1967.91 474.832Z" fill="white"/>
<path d="M1976.07 470.88C1975.95 470.911 1975.37 471.051 1975.29 471.113C1975.37 471.175 1977 470.802 1977.31 470.677C1977.33 470.677 1977.33 470.662 1977.34 470.662C1977.3 470.6 1976.54 470.771 1976.07 470.88Z" fill="white"/>
<path d="M1983.64 467.908C1983.29 467.986 1982.95 468.017 1982.62 468.172C1982.81 468.188 1984.91 467.675 1985.3 467.55C1985.32 467.55 1985.32 467.535 1985.33 467.535C1985.27 467.519 1984.06 467.799 1983.64 467.908Z" fill="white"/>
<path d="M1937 971.954L1937.09 972.001L1937.36 971.907L1937.24 971.891L1937 971.954Z" fill="white"/>
<path d="M1951.16 960.255L1951.21 960.286L1951.35 960.239L1951.3 960.207L1951.16 960.255Z" fill="white"/>
<path d="M1964.77 947.744L1965.01 947.884L1965.6 947.666L1965.38 947.526L1964.77 947.744Z" fill="white"/>
<path d="M1978.14 934.41L1978.6 934.69L1979.7 934.286L1979.28 934.005L1978.14 934.41Z" fill="white"/>
<path d="M1992.37 919.769C1991.61 919.956 1991.13 920.36 1991.43 920.547C1991.77 920.781 1993.04 920.547 1993.53 920.08C1993.84 919.707 1993.26 919.645 1992.81 919.691C1992.65 919.707 1992.51 919.738 1992.37 919.769Z" fill="white"/>
<path d="M1947.08 936.713L1947.49 937.008L1948.6 936.604L1948.13 936.324L1947.08 936.713Z" fill="white"/>
<path d="M1960.85 921.885C1960.08 922.072 1959.61 922.523 1959.97 922.694C1960.36 922.897 1961.54 922.679 1961.98 922.212C1962.29 921.807 1961.69 921.73 1961.16 921.807C1961.05 921.839 1960.94 921.854 1960.85 921.885Z" fill="white"/>
<path d="M1973.75 906.529C1972.68 906.824 1972.1 907.4 1972.57 907.68C1973.11 907.991 1974.72 907.665 1975.32 907.027C1975.71 906.482 1974.91 906.327 1974.19 906.435C1974.03 906.451 1973.89 906.482 1973.75 906.529Z" fill="white"/>
<path d="M1986.42 890.674C1985.15 891.017 1984.44 891.748 1985.05 892.075C1985.68 892.401 1987.56 892.106 1988.32 891.265C1988.8 890.565 1987.75 890.41 1986.78 890.596C1986.65 890.612 1986.51 890.659 1986.42 890.674Z" fill="white"/>
<path d="M1942.46 908.738L1942.53 908.831L1942.79 908.722L1942.67 908.645L1942.46 908.738Z" fill="white"/>
<path d="M1954.39 892.992L1954.72 893.225L1955.48 892.945L1955.12 892.696L1954.39 892.992Z" fill="white"/>
<path d="M1966.26 876.873L1966.73 877.216L1967.85 876.78L1967.33 876.406L1966.26 876.873Z" fill="white"/>
<path d="M1978.79 859.821C1977.92 860.054 1977.47 860.568 1977.91 860.801C1978.4 861.066 1979.73 860.801 1980.19 860.257C1980.5 859.743 1979.64 859.619 1978.91 859.79C1978.88 859.806 1978.84 859.821 1978.79 859.821Z" fill="white"/>
<path d="M1990.48 842.893C1989.43 843.188 1988.87 843.842 1989.4 844.138C1989.95 844.449 1991.57 844.215 1992.18 843.437C1992.57 842.784 1991.43 842.628 1990.48 842.893Z" fill="white"/>
<path d="M1969.07 827.785L1969.48 828.096L1970.33 827.738L1969.9 827.427L1969.07 827.785Z" fill="white"/>
<path d="M1980.56 810.095C1979.87 810.281 1979.54 810.686 1979.92 810.888C1980.36 811.137 1981.32 810.888 1981.63 810.452C1981.83 810.064 1981.21 809.924 1980.56 810.095Z" fill="white"/>
<path d="M1968.87 776.737L1969.1 776.908L1969.61 776.706L1969.34 776.503L1968.87 776.737Z" fill="white"/>
<path d="M1978.8 759.155L1979.24 759.481L1980.06 759.124C1980.06 759.108 1980.04 759.092 1980.04 759.077L1979.65 758.797L1978.8 759.155Z" fill="white"/>
</g>
<defs>
<filter id="filter0_f_15_13950" x="183.811" y="318.208" width="1276.99" height="1265.88" filterUnits="userSpaceOnUse" color-interpolation-filters="sRGB">
<feFlood flood-opacity="0" result="BackgroundImageFix"/>
<feBlend mode="normal" in="SourceGraphic" in2="BackgroundImageFix" result="shape"/>
<feGaussianBlur stdDeviation="232" result="effect1_foregroundBlur_15_13950"/>
</filter>
<filter id="filter1_f_15_13950" x="306.232" y="435.418" width="1361.18" height="1105.69" filterUnits="userSpaceOnUse" color-interpolation-filters="sRGB">
<feFlood flood-opacity="0" result="BackgroundImageFix"/>
<feBlend mode="normal" in="SourceGraphic" in2="BackgroundImageFix" result="shape"/>
<feGaussianBlur stdDeviation="232" result="effect1_foregroundBlur_15_13950"/>
</filter>
<filter id="filter2_f_15_13950" x="0.769745" y="579.99" width="1361.18" height="1105.69" filterUnits="userSpaceOnUse" color-interpolation-filters="sRGB">
<feFlood flood-opacity="0" result="BackgroundImageFix"/>
<feBlend mode="normal" in="SourceGraphic" in2="BackgroundImageFix" result="shape"/>
<feGaussianBlur stdDeviation="232" result="effect1_foregroundBlur_15_13950"/>
</filter>
<filter id="filter3_f_15_13950" x="14.2092" y="309.222" width="1551.79" height="1542.33" filterUnits="userSpaceOnUse" color-interpolation-filters="sRGB">
<feFlood flood-opacity="0" result="BackgroundImageFix"/>
<feBlend mode="normal" in="SourceGraphic" in2="BackgroundImageFix" result="shape"/>
<feGaussianBlur stdDeviation="287" result="effect1_foregroundBlur_15_13950"/>
</filter>
<filter id="filter4_f_15_13950" x="280.114" y="446.342" width="1276.99" height="1265.88" filterUnits="userSpaceOnUse" color-interpolation-filters="sRGB">
<feFlood flood-opacity="0" result="BackgroundImageFix"/>
<feBlend mode="normal" in="SourceGraphic" in2="BackgroundImageFix" result="shape"/>
<feGaussianBlur stdDeviation="232" result="effect1_foregroundBlur_15_13950"/>
</filter>
<filter id="filter5_f_15_13950" x="1609.5" y="0.407562" width="1532.21" height="1080.58" filterUnits="userSpaceOnUse" color-interpolation-filters="sRGB">
<feFlood flood-opacity="0" result="BackgroundImageFix"/>
<feBlend mode="normal" in="SourceGraphic" in2="BackgroundImageFix" result="shape"/>
<feGaussianBlur stdDeviation="119.431" result="effect1_foregroundBlur_15_13950"/>
</filter>
<filter id="filter6_f_15_13950" x="255.52" y="694.564" width="1321.33" height="1786.63" filterUnits="userSpaceOnUse" color-interpolation-filters="sRGB">
<feFlood flood-opacity="0" result="BackgroundImageFix"/>
<feBlend mode="normal" in="SourceGraphic" in2="BackgroundImageFix" result="shape"/>
<feGaussianBlur stdDeviation="119.431" result="effect1_foregroundBlur_15_13950"/>
</filter>
<clipPath id="clip0_15_13950">
<rect width="522.252" height="456.937" fill="white" transform="matrix(1 8.29765e-05 8.37885e-05 -1 716.613 1459.57)"/>
</clipPath>
<clipPath id="clip1_15_13950">
<rect width="217" height="535" fill="white" transform="translate(1937 437)"/>
</clipPath>
</defs>
</svg>
