<svg width="159" height="135" viewBox="0 0 159 135" fill="none" xmlns="http://www.w3.org/2000/svg">
<path d="M0 0V134.8H158.413V0H0ZM151.765 127.922H6.87755V6.87755H151.535V127.922H151.765Z" fill="white" fill-opacity="0.2"/>
<path d="M52.4986 50.6647L77.0285 75.1947L82.072 70.3804L52.4986 40.8069L22.9251 70.3804L27.9686 75.1947L52.4986 50.6647Z" fill="white" fill-opacity="0.2"/>
<path d="M83.4474 50.6647L130.444 97.6613L135.258 92.847L83.4474 40.8069L68.546 55.7083L73.3603 60.5226L83.4474 50.6647Z" fill="white" fill-opacity="0.2"/>
<path d="M123.796 40.1189C130.674 40.1189 136.176 34.6169 136.176 27.7393C136.176 20.8618 130.674 15.3598 123.796 15.3598C116.919 15.3598 111.417 21.091 111.417 27.7393C111.417 34.3876 117.148 40.1189 123.796 40.1189ZM123.796 22.4666C126.776 22.4666 129.298 24.9883 129.298 27.9686C129.298 30.9489 126.776 33.4706 123.796 33.4706C120.816 33.4706 118.294 30.9489 118.294 27.9686C118.294 24.7591 120.816 22.4666 123.796 22.4666C123.796 22.2373 123.796 22.2373 123.796 22.4666Z" fill="white" fill-opacity="0.2"/>
</svg>
